<svg width="94" height="115" viewBox="0 0 94 115" fill="none" xmlns="http://www.w3.org/2000/svg">
<path d="M89.3672 47.7533V86.4709C89.3672 89.5488 87.7214 92.392 85.0523 93.9309L51.4697 113.29C48.8007 114.829 45.5134 114.829 42.8444 113.29L9.26183 93.9309C6.5928 92.392 4.94699 89.5488 4.94699 86.4709V47.7533C4.94699 44.6754 6.5928 41.8322 9.26183 40.2933L42.8444 20.9345C45.5134 19.3955 48.8007 19.3955 51.4697 20.9345L85.0523 40.2933C87.7214 41.8322 89.3672 44.6754 89.3672 47.7533Z" fill="url(#paint0_linear_351_535)"/>
<path d="M85.832 35.228V70.0278C85.832 73.2409 84.1279 76.2115 81.3649 77.8226L51.4447 95.2248C48.6817 96.8314 45.2734 96.8314 42.5104 95.2248L12.5902 77.8226C9.82722 76.2161 8.12307 73.2455 8.12307 70.0278V35.228C8.12307 32.0148 9.82722 29.0443 12.5902 27.4331L42.5104 10.0355C45.2734 8.42892 48.6817 8.42892 51.4447 10.0355L81.3649 27.4377C84.1279 29.0443 85.832 32.0148 85.832 35.2325V35.228Z" fill="#D9A4E3"/>
<path fill-rule="evenodd" clip-rule="evenodd" d="M94 74.0972V31.3375C94 27.7771 92.1019 24.4909 89.0196 22.7107L51.9847 1.33515C48.9025 -0.445051 45.1062 -0.445051 42.024 1.33515L4.98036 22.715C1.89811 24.4909 0 27.7814 0 31.3375V74.0972C0 77.6533 1.89811 80.9395 4.98036 82.7197L42.0196 104.1C45.1019 105.88 48.8981 105.88 51.9804 104.1L89.0196 82.7197C92.1019 80.9438 94 77.6533 94 74.0972ZM84.2266 69.2615V36.1732C84.2266 33.1133 82.594 30.2885 79.9471 28.7607L51.2839 12.2122C48.637 10.6845 45.3719 10.6845 42.725 12.2122L14.0618 28.7564C11.4149 30.2885 9.78233 33.1133 9.78233 36.1688V69.2615C9.78233 72.3213 11.4149 75.1462 14.0618 76.6739L42.725 93.2224C45.3719 94.7502 48.637 94.7502 51.2839 93.2224L79.9471 76.6739C82.594 75.1418 84.2266 72.317 84.2266 69.2615Z" fill="url(#paint1_linear_351_535)"/>
<defs>
<linearGradient id="paint0_linear_351_535" x1="86.9768" y1="67.1121" x2="2.56099" y2="67.1121" gradientUnits="userSpaceOnUse">
<stop stop-color="#D4A1EB"/>
<stop offset="0.5" stop-color="#E3AAD4"/>
<stop offset="0.97" stop-color="#E9ADCA"/>
</linearGradient>
<linearGradient id="paint1_linear_351_535" x1="47.0044" y1="106.92" x2="47.0044" y2="1.4875" gradientUnits="userSpaceOnUse">
<stop stop-color="#EDC7E0"/>
<stop offset="0.26" stop-color="#ECC7E2"/>
<stop offset="0.4" stop-color="#EACAEA"/>
<stop offset="0.5" stop-color="#E8CFF6"/>
<stop offset="0.66" stop-color="#E9D3F5"/>
<stop offset="0.82" stop-color="#EBDFF3"/>
<stop offset="0.95" stop-color="#F0F0F0"/>
</linearGradient>
</defs>
</svg>
