<svg width="31" height="21" viewBox="0 0 31 21" fill="none" xmlns="http://www.w3.org/2000/svg">
<path d="M15.5001 1.13333C12.3943 1.13333 9.85374 3.58853 9.85374 6.64493C9.85374 9.70132 12.3943 12.1565 15.5001 12.1565C18.6059 12.1565 21.1464 9.70132 21.1464 6.64493C21.1464 3.58853 18.6059 1.13333 15.5001 1.13333ZM6.79088 8.84348C3.68508 8.84348 1.14453 11.2987 1.14453 14.3551C1.14453 17.4115 3.68508 19.8667 6.79088 19.8667C9.89668 19.8667 12.4372 17.4115 12.4372 14.3551C12.4372 11.2987 9.89668 8.84348 6.79088 8.84348ZM24.2093 8.84348C21.1035 8.84348 18.5629 11.2987 18.5629 14.3551C18.5629 17.4115 21.1035 19.8667 24.2093 19.8667C27.3151 19.8667 29.8556 17.4115 29.8556 14.3551C29.8556 11.2987 27.3151 8.84348 24.2093 8.84348Z" stroke="url(#paint0_linear_1097_3660)"/>
<defs>
<linearGradient id="paint0_linear_1097_3660" x1="15.4988" y1="19.6165" x2="15.4988" y2="1.88352" gradientUnits="userSpaceOnUse">
<stop stop-color="#EDC7E0"/>
<stop offset="0.26" stop-color="#ECC7E2"/>
<stop offset="0.4" stop-color="#EACAEA"/>
<stop offset="0.5" stop-color="#E8CFF6"/>
<stop offset="0.66" stop-color="#E9D3F5"/>
<stop offset="0.82" stop-color="#EBDFF3"/>
<stop offset="0.95" stop-color="#F0F0F0"/>
</linearGradient>
</defs>
</svg>
