<svg width="21" height="30" viewBox="0 0 21 30" fill="none" xmlns="http://www.w3.org/2000/svg">
<path d="M19.8672 15C19.8672 11.9756 17.3955 9.53111 14.3556 9.53111C11.3157 9.53111 8.844 11.9756 8.844 15C8.844 18.0244 11.3157 20.4689 14.3556 20.4689C17.3955 20.4689 19.8672 18.0244 19.8672 15ZM12.157 6.59111C12.157 3.5667 9.68537 1.12222 6.64545 1.12222C3.60552 1.12222 1.13385 3.5667 1.13385 6.59111C1.13385 9.61552 3.60552 12.06 6.64545 12.06C9.68537 12.06 12.157 9.61552 12.157 6.59111ZM12.157 23.4089C12.157 20.3845 9.68537 17.94 6.64545 17.94C3.60552 17.94 1.13385 20.3845 1.13385 23.4089C1.13385 26.4333 3.60552 28.8778 6.64545 28.8778C9.68537 28.8778 12.157 26.4333 12.157 23.4089Z" stroke="url(#paint0_linear_1099_3736)"/>
<defs>
<linearGradient id="paint0_linear_1099_3736" x1="1.38403" y1="14.9988" x2="19.117" y2="14.9988" gradientUnits="userSpaceOnUse">
<stop stop-color="#EDC7E0"/>
<stop offset="0.26" stop-color="#ECC7E2"/>
<stop offset="0.4" stop-color="#EACAEA"/>
<stop offset="0.5" stop-color="#E8CFF6"/>
<stop offset="0.66" stop-color="#E9D3F5"/>
<stop offset="0.82" stop-color="#EBDFF3"/>
<stop offset="0.95" stop-color="#F0F0F0"/>
</linearGradient>
</defs>
</svg>
