<svg width="102" height="99" viewBox="0 0 102 99" fill="none" xmlns="http://www.w3.org/2000/svg">
<g filter="url(#filter0_f_1029_7204)">
<mask id="path-1-inside-1_1029_7204" fill="white">
<path d="M78.3074 74.242L90.6763 72.0514C90.9919 71.9948 91.1859 71.6725 91.0889 71.3661C90.0521 68.0458 88.1972 65.1523 85.7887 62.8803C85.0428 62.1773 84.1101 61.8426 83.1879 61.8426H83.1862C81.8126 61.8426 80.4602 62.5811 79.7743 63.9446C78.2862 66.9072 77.528 70.2629 77.6849 73.739C77.6973 74.0295 77.9353 74.2508 78.2139 74.2508C78.2439 74.2508 78.2756 74.2473 78.3074 74.242Z"/>
<path d="M91.699 73.8772C91.6866 73.8099 91.6743 73.7426 91.6619 73.6771C91.6143 73.4221 91.3922 73.245 91.1435 73.245C91.1136 73.245 91.0818 73.2485 91.0501 73.2538L78.3585 75.501C78.0728 75.5524 77.8807 75.8233 77.9283 76.1102C77.9388 76.1775 77.9512 76.2448 77.9618 76.312C78.355 78.5504 79.1096 80.6329 80.1517 82.5135C80.2451 82.6817 80.4232 82.7826 80.6119 82.7826C80.6418 82.7826 80.6736 82.7791 80.7053 82.7738L91.3216 80.8932C91.542 80.8542 91.7166 80.6807 91.7519 80.4575C92.0904 78.3326 92.0922 76.1173 91.699 73.8772Z"/>
<path d="M90.6798 82.2886H90.6781C90.6481 82.2868 90.6163 82.2886 90.5846 82.2957L81.8779 83.8381C81.4917 83.9071 81.3083 84.3604 81.5428 84.6757C82.5884 86.0923 83.8103 87.3567 85.1786 88.4351C85.6635 88.8176 86.2365 89 86.8043 89C87.6824 89 88.5481 88.5626 89.0506 87.7498C89.9692 86.2658 90.6869 84.6579 91.1859 82.9686C91.2881 82.6233 91.0219 82.2886 90.6798 82.2886Z"/>
<path d="M22.7009 64.9522C21.9533 63.2292 20.2976 62.2907 18.6191 62.2907C17.4694 62.2907 16.311 62.7316 15.4294 63.6648C13.4334 65.7721 11.8836 68.338 10.9579 71.2333C10.838 71.6087 11.076 72.0036 11.4639 72.0727L23.5649 74.2154C23.6037 74.2225 23.6407 74.226 23.6777 74.226C24.018 74.226 24.3107 73.9551 24.3248 73.6009C24.4412 70.5622 23.8593 67.6173 22.7009 64.9522Z"/>
<path d="M23.5226 75.4815L11.0619 73.2751C11.0231 73.268 10.9861 73.2645 10.9491 73.2645H10.9544C10.6493 73.2627 10.376 73.4805 10.3178 73.7922C10.3126 73.8205 10.3073 73.8488 10.302 73.8772C9.91407 76.0872 9.90878 78.2741 10.235 80.3743C10.2773 80.647 10.4906 80.8595 10.7604 80.9073L21.211 82.7578C21.2498 82.7649 21.2868 82.7685 21.3238 82.7685C21.5548 82.7685 21.7717 82.6463 21.8863 82.4391C22.9072 80.578 23.6477 78.5203 24.0356 76.312C24.0409 76.2837 24.0462 76.2554 24.0498 76.227C24.1097 75.8764 23.8717 75.5435 23.5226 75.4815Z"/>
<path d="M20.1284 83.8345L11.4216 82.2921C11.3899 82.2868 11.3581 82.2833 11.3282 82.2833H11.3264C10.9843 82.285 10.7181 82.6197 10.8204 82.965C11.3194 84.6544 12.037 86.2641 12.9556 87.7463C13.4599 88.5591 14.3239 88.9965 15.2019 88.9965C15.7697 88.9965 16.3427 88.8141 16.8276 88.4316C18.1959 87.3531 19.4178 86.0888 20.4634 84.6721C20.6961 84.3551 20.5127 83.9018 20.1284 83.8345Z"/>
<path d="M89.733 36.3906C89.3874 36.3906 89.107 36.6722 89.107 37.0192V44.4496C89.107 44.7967 89.3874 45.0783 89.733 45.0783C90.3818 45.0783 90.9073 44.5505 90.9073 43.8989V37.57C90.9073 36.9183 90.3818 36.3906 89.733 36.3906Z"/>
<path d="M89.3415 45.505H88.8214C88.4529 45.505 88.1549 45.2058 88.1549 44.8356V36.6527C88.1549 36.2826 88.4529 35.9833 88.8214 35.9833H89.2234C89.6342 35.9833 89.9481 35.6132 89.8811 35.2059L88.1796 24.8307C88.0526 24.0533 87.6841 23.3343 87.1305 22.7765L86.0902 21.7317C85.9262 21.567 85.7234 21.4926 85.5242 21.4926H85.5224C85.1063 21.4909 84.7078 21.8149 84.7078 22.3055V46.1549C84.7078 47.2599 85.6106 48.0639 86.6068 48.0639C86.8854 48.0639 87.1728 48.0001 87.4478 47.8638L89.6378 46.7747C89.8652 46.6614 90.008 46.4294 90.008 46.1744C90.008 45.8043 89.7101 45.505 89.3415 45.505Z"/>
<path d="M13.1601 44.4496V37.0192C13.1601 36.6722 12.8798 36.3906 12.5342 36.3906C11.8853 36.3906 11.3599 36.9183 11.3599 37.57V43.8989C11.3599 44.5505 11.8853 45.0783 12.5342 45.0783C12.8798 45.0783 13.1601 44.7967 13.1601 44.4496Z"/>
<path d="M16.7465 21.4909H16.7448C16.5455 21.4909 16.3427 21.5653 16.1788 21.7299L15.1385 22.7747C14.5831 23.3325 14.2163 24.0497 14.0894 24.8289L12.3879 35.2041C12.3209 35.6114 12.6347 35.9815 13.0455 35.9815H13.4475C13.8161 35.9815 14.114 36.2808 14.114 36.6509V44.8339C14.114 45.204 13.8161 45.5033 13.4475 45.5033H12.9274C12.5589 45.5033 12.2609 45.8025 12.2609 46.1726C12.2609 46.4276 12.4037 46.6596 12.6312 46.7729L14.8211 47.862C15.0979 48.0001 15.3836 48.0621 15.6621 48.0621C16.6584 48.0621 17.5611 47.2581 17.5611 46.1531V22.3055C17.5611 21.8167 17.1626 21.4909 16.7465 21.4909Z"/>
<path d="M53.3879 65.3418L51.4818 64.2368C51.3372 64.1518 51.1715 64.1075 51.004 64.1075C50.8365 64.1075 50.6707 64.1536 50.5262 64.2368L48.6201 65.3418C48.3257 65.5118 48.1423 65.8305 48.1423 66.1723V68.3841C48.1423 68.7258 48.3257 69.0446 48.6201 69.2146L50.5262 70.3196C50.6707 70.4046 50.8365 70.4488 51.004 70.4488C51.1715 70.4488 51.3372 70.4028 51.4818 70.3196L53.3879 69.2146C53.6823 69.0446 53.8657 68.7258 53.8657 68.3841V66.1723C53.8657 65.8305 53.6823 65.5118 53.3879 65.3418ZM49.9143 68.5204C50.6425 68.9631 51.3655 68.956 52.0901 68.5257C51.533 69.1402 50.4697 69.1384 49.9143 68.5204ZM52.2806 68.1804C52.1307 68.2654 51.9755 68.3345 51.8133 68.3894C51.6352 68.4496 51.4519 68.4903 51.2649 68.508C50.7184 68.5612 50.207 68.4531 49.7292 68.1822C49.671 68.1503 49.6234 68.106 49.5864 68.0423C50.5332 67.6403 51.4748 67.6386 52.4216 68.0405C52.3864 68.1043 52.3387 68.1468 52.2806 68.1804ZM52.4745 67.8546C52.4745 67.9183 52.4604 67.9768 52.4269 68.037C52.1677 67.8599 51.8838 67.7413 51.5788 67.6722V67.2029C51.5788 67.1286 51.5488 67.0737 51.4836 67.0365C51.3531 66.9621 51.2244 66.8877 51.0957 66.8116C51.034 66.7762 50.9758 66.7762 50.9158 66.8116C50.7854 66.8895 50.6531 66.9639 50.5226 67.04C50.4609 67.0737 50.4327 67.1268 50.4327 67.1959V67.6704C50.1277 67.7395 49.8438 67.8581 49.5846 68.0352C49.5511 67.9786 49.537 67.9183 49.537 67.8546V66.5796C49.5388 66.4397 49.6005 66.3317 49.7204 66.2608C50.0854 66.0466 50.4539 65.8341 50.8206 65.6234C50.9423 65.5543 51.0675 65.5543 51.1891 65.6234C51.5576 65.8359 51.9244 66.0484 52.2911 66.2626C52.411 66.3317 52.4727 66.4415 52.4727 66.5814H52.4745V67.8546Z"/>
<path d="M70.6674 29.5942C65.286 27.1221 59.9329 25.6222 54.7596 25.1388C54.2201 25.0874 53.7229 24.8147 53.3932 24.3879C53.067 23.9665 52.9277 23.4246 53.0105 22.8987C53.4337 20.223 54.1743 17.4268 55.2146 14.5776C55.2727 14.4164 55.1687 14.2411 54.9994 14.2216C53.7052 14.064 52.3916 13.9844 51.078 13.9844C49.7398 13.9844 48.4085 14.0676 47.1091 14.2323C46.9451 14.2535 46.841 14.4217 46.8922 14.5811C47.8866 17.6535 48.5884 20.3788 49.0257 22.8863C49.1174 23.414 48.9851 23.9629 48.6607 24.3915C48.3327 24.8253 47.8337 25.1034 47.2907 25.1565C42.1774 25.6541 36.8859 27.1451 31.5681 29.5853C29.8789 30.3592 28.4966 31.5669 27.5691 33.0756C26.6999 34.4887 26.2397 36.1303 26.2397 37.8214C26.2379 39.5072 26.6946 41.1417 27.5585 42.5495C28.4807 44.0512 29.856 45.2536 31.5381 46.0274C38.2225 49.098 44.794 50.6563 51.1027 50.6563C57.4115 50.6563 64.0059 49.0927 70.7026 46.0097C72.383 45.2359 73.7583 44.0352 74.6787 42.5371C75.5409 41.1329 75.9958 39.5037 75.9958 37.8232C75.9958 36.1427 75.5356 34.4994 74.6663 33.088C73.7371 31.581 72.3547 30.3733 70.6656 29.5977L70.6674 29.5942ZM69.2638 44.5452C64.1911 46.9181 57.6936 49.0254 50.609 49.0254C44.3338 49.0254 38.5169 47.3715 33.7457 45.3439C26.885 42.4291 26.885 33.5537 33.7457 30.639C37.6247 28.9921 43.0554 27.5825 48.0665 27.115C48.0841 27.1132 48.1 27.1132 48.1159 27.1132C48.4033 27.1132 48.6413 27.3488 48.6413 27.6445V29.4135C48.6413 29.9412 48.8088 30.453 49.1191 30.878L50.0131 32.1017C50.1118 32.238 50.2687 32.3177 50.438 32.3177C50.7906 32.3159 51.4078 32.3159 51.7745 32.3159C51.9597 32.3159 52.1307 32.2185 52.2241 32.0592C52.4022 31.7617 52.7002 31.2605 52.94 30.8585C53.1886 30.4442 53.3191 29.9696 53.3191 29.4861V27.6445C53.3191 27.3488 53.5571 27.1097 53.8463 27.1097H53.8498C53.8657 27.1115 53.8816 27.1132 53.8974 27.1132C59.6631 27.6392 64.9757 29.4366 69.2303 31.4234C75.0948 34.1629 75.1265 41.8022 69.2638 44.5452Z"/>
<path d="M68.6308 32.7073C64.1364 30.6053 59.4586 29.2188 55.0241 28.6592C54.8672 28.6397 54.7279 28.7637 54.7261 28.923L54.7226 29.4861C54.7226 30.2264 54.5234 30.9506 54.146 31.5828L53.61 32.4824L53.4266 32.7887C53.0793 33.3713 52.4445 33.7344 51.7692 33.7344H51.3143L50.4345 33.7361C49.8174 33.7361 49.232 33.4386 48.8687 32.941L47.9748 31.7174C47.4829 31.0445 47.2237 30.2476 47.2237 29.4118V28.9283C47.2237 28.769 47.0861 28.6432 46.9274 28.6627C42.6181 29.1957 37.8822 30.4176 34.2887 31.944C31.6051 33.0845 30.0041 35.344 30.0041 37.9914C30.0041 40.6388 31.6051 42.8984 34.2887 44.0388C39.864 46.4064 45.3529 47.607 50.6037 47.607C56.4206 47.607 62.4966 46.1443 68.6626 43.2596C70.8966 42.2148 72.2296 40.2492 72.2296 38.002C72.2296 35.7549 70.8842 33.7591 68.6308 32.7073ZM44.898 40.9239C44.898 41.9404 44.0781 42.7638 43.066 42.7638C42.0539 42.7638 41.234 41.9404 41.234 40.9239V33.5644C41.234 32.5479 42.0539 31.7245 43.066 31.7245C44.0781 31.7245 44.898 32.5479 44.898 33.5644V40.9239ZM61.0049 40.9239C61.0049 41.9404 60.185 42.7638 59.173 42.7638C58.1609 42.7638 57.341 41.9404 57.341 40.9239V33.5644C57.341 32.5479 58.1609 31.7245 59.173 31.7245C60.185 31.7245 61.0049 32.5479 61.0049 33.5644V40.9239Z"/>
<path d="M51.1151 10C33.3807 10 19.0052 24.4375 19.0052 42.2485C19.0052 60.0594 32.9275 72.6943 42.4383 79.944C44.9844 81.8848 48.0206 82.8552 51.0551 82.8552C54.0896 82.8552 57.1823 81.8654 59.7389 79.8873C69.121 72.6252 82.8512 59.1457 83.225 42.2485C83.6181 24.4428 68.8477 10 51.1151 10ZM58.9138 14.5988H58.912L59.2065 14.6555C59.478 14.7086 59.6332 14.9955 59.5327 15.2558C58.6369 17.5437 57.9158 19.8369 57.3992 22.1372C57.3533 22.3391 57.1752 22.4843 56.9689 22.4843H56.6551C56.38 22.4843 56.1684 22.2329 56.2196 21.9601C56.6516 19.6439 57.2987 17.3525 58.1309 15.0415C58.2473 14.721 58.5805 14.5333 58.9138 14.5988ZM42.8738 14.5971V14.5935C43.1982 14.5457 43.5086 14.7405 43.6073 15.0522C44.369 17.4463 44.9897 19.7466 45.4305 21.9548C45.4851 22.2293 45.2735 22.4843 44.995 22.4843H44.6705C44.4642 22.4843 44.2861 22.3426 44.2403 22.1408C43.7501 19.9981 43.103 17.7686 42.3396 15.4736C42.2073 15.077 42.463 14.6573 42.8738 14.5971ZM56.2125 69.1809C56.2125 69.8716 55.8458 70.5108 55.2498 70.8561L51.9667 72.7598C51.6687 72.9315 51.3372 73.0183 51.004 73.0183C50.6707 73.0183 50.3393 72.9333 50.0413 72.7598L46.7582 70.8561C46.1622 70.5108 45.7955 69.8716 45.7955 69.1809V65.3737C45.7955 64.683 46.1622 64.0438 46.7582 63.6985L50.0413 61.7948C50.3393 61.6231 50.6707 61.5363 51.004 61.5363C51.3372 61.5363 51.6687 61.6213 51.9667 61.7948L55.2498 63.6985C55.8458 64.0438 56.2125 64.683 56.2125 65.3737V69.1809ZM71.2898 47.2918C65.5822 49.9197 58.6034 52.0659 51.1027 52.0659C43.602 52.0659 36.6532 49.9285 30.951 47.3077C22.7679 43.5465 22.7961 32.045 30.9809 28.2891C35.6623 26.1411 41.1811 24.3207 47.1549 23.7398C47.4652 23.7097 47.6892 23.4299 47.6363 23.1253C47.139 20.2867 46.3103 17.2639 45.2542 14.1154C45.0814 13.5983 45.4164 13.0458 45.9612 12.9608C47.6327 12.697 49.3519 12.5659 51.078 12.5659C52.7901 12.5659 54.5075 12.6934 56.1896 12.9537C56.7521 13.0405 57.0871 13.6196 56.8843 14.1455C55.7312 17.1276 54.8778 20.1167 54.4035 23.1183C54.3559 23.4211 54.5798 23.6973 54.8884 23.7257C60.9362 24.2906 66.5238 26.1304 71.2527 28.3032C79.4341 32.0627 79.4675 43.527 71.2898 47.2918Z"/>
<path d="M54.809 64.4652L51.5259 62.5616C51.3672 62.4695 51.1874 62.4217 51.004 62.4217C50.8206 62.4217 50.6408 62.4695 50.4821 62.5616L47.199 64.4652C46.8763 64.6529 46.6771 65 46.6771 65.3737V69.1809C46.6771 69.5546 46.8763 69.9034 47.199 70.0894L50.4821 71.993C50.6408 72.0851 50.8206 72.1329 51.004 72.1329C51.1874 72.1329 51.3672 72.0851 51.5259 71.993L54.809 70.0894C55.1317 69.9017 55.3309 69.5546 55.3309 69.1809V65.3737C55.3309 65 55.1317 64.6512 54.809 64.4652ZM54.571 68.3841C54.571 68.9808 54.2536 69.5316 53.7405 69.8291L51.8345 70.9341C51.577 71.0828 51.2914 71.1572 51.004 71.1572C50.7166 71.1572 50.431 71.0828 50.1735 70.9341L48.2675 69.8291C47.7544 69.5298 47.437 68.9808 47.437 68.3841V66.1723C47.437 65.5755 47.7544 65.0248 48.2675 64.7273L50.1735 63.6223C50.431 63.4736 50.7166 63.3992 51.004 63.3992C51.2914 63.3992 51.577 63.4736 51.8345 63.6223L53.7405 64.7273C54.2536 65.0266 54.571 65.5755 54.571 66.1723V68.3841Z"/>
</mask>
<path d="M78.3074 74.242L90.6763 72.0514C90.9919 71.9948 91.1859 71.6725 91.0889 71.3661C90.0521 68.0458 88.1972 65.1523 85.7887 62.8803C85.0428 62.1773 84.1101 61.8426 83.1879 61.8426H83.1862C81.8126 61.8426 80.4602 62.5811 79.7743 63.9446C78.2862 66.9072 77.528 70.2629 77.6849 73.739C77.6973 74.0295 77.9353 74.2508 78.2139 74.2508C78.2439 74.2508 78.2756 74.2473 78.3074 74.242Z" stroke="white" stroke-width="12" mask="url(#path-1-inside-1_1029_7204)"/>
<path d="M91.699 73.8772C91.6866 73.8099 91.6743 73.7426 91.6619 73.6771C91.6143 73.4221 91.3922 73.245 91.1435 73.245C91.1136 73.245 91.0818 73.2485 91.0501 73.2538L78.3585 75.501C78.0728 75.5524 77.8807 75.8233 77.9283 76.1102C77.9388 76.1775 77.9512 76.2448 77.9618 76.312C78.355 78.5504 79.1096 80.6329 80.1517 82.5135C80.2451 82.6817 80.4232 82.7826 80.6119 82.7826C80.6418 82.7826 80.6736 82.7791 80.7053 82.7738L91.3216 80.8932C91.542 80.8542 91.7166 80.6807 91.7519 80.4575C92.0904 78.3326 92.0922 76.1173 91.699 73.8772Z" stroke="white" stroke-width="12" mask="url(#path-1-inside-1_1029_7204)"/>
<path d="M90.6798 82.2886H90.6781C90.6481 82.2868 90.6163 82.2886 90.5846 82.2957L81.8779 83.8381C81.4917 83.9071 81.3083 84.3604 81.5428 84.6757C82.5884 86.0923 83.8103 87.3567 85.1786 88.4351C85.6635 88.8176 86.2365 89 86.8043 89C87.6824 89 88.5481 88.5626 89.0506 87.7498C89.9692 86.2658 90.6869 84.6579 91.1859 82.9686C91.2881 82.6233 91.0219 82.2886 90.6798 82.2886Z" stroke="white" stroke-width="12" mask="url(#path-1-inside-1_1029_7204)"/>
<path d="M22.7009 64.9522C21.9533 63.2292 20.2976 62.2907 18.6191 62.2907C17.4694 62.2907 16.311 62.7316 15.4294 63.6648C13.4334 65.7721 11.8836 68.338 10.9579 71.2333C10.838 71.6087 11.076 72.0036 11.4639 72.0727L23.5649 74.2154C23.6037 74.2225 23.6407 74.226 23.6777 74.226C24.018 74.226 24.3107 73.9551 24.3248 73.6009C24.4412 70.5622 23.8593 67.6173 22.7009 64.9522Z" stroke="white" stroke-width="12" mask="url(#path-1-inside-1_1029_7204)"/>
<path d="M23.5226 75.4815L11.0619 73.2751C11.0231 73.268 10.9861 73.2645 10.9491 73.2645H10.9544C10.6493 73.2627 10.376 73.4805 10.3178 73.7922C10.3126 73.8205 10.3073 73.8488 10.302 73.8772C9.91407 76.0872 9.90878 78.2741 10.235 80.3743C10.2773 80.647 10.4906 80.8595 10.7604 80.9073L21.211 82.7578C21.2498 82.7649 21.2868 82.7685 21.3238 82.7685C21.5548 82.7685 21.7717 82.6463 21.8863 82.4391C22.9072 80.578 23.6477 78.5203 24.0356 76.312C24.0409 76.2837 24.0462 76.2554 24.0498 76.227C24.1097 75.8764 23.8717 75.5435 23.5226 75.4815Z" stroke="white" stroke-width="12" mask="url(#path-1-inside-1_1029_7204)"/>
<path d="M20.1284 83.8345L11.4216 82.2921C11.3899 82.2868 11.3581 82.2833 11.3282 82.2833H11.3264C10.9843 82.285 10.7181 82.6197 10.8204 82.965C11.3194 84.6544 12.037 86.2641 12.9556 87.7463C13.4599 88.5591 14.3239 88.9965 15.2019 88.9965C15.7697 88.9965 16.3427 88.8141 16.8276 88.4316C18.1959 87.3531 19.4178 86.0888 20.4634 84.6721C20.6961 84.3551 20.5127 83.9018 20.1284 83.8345Z" stroke="white" stroke-width="12" mask="url(#path-1-inside-1_1029_7204)"/>
<path d="M89.733 36.3906C89.3874 36.3906 89.107 36.6722 89.107 37.0192V44.4496C89.107 44.7967 89.3874 45.0783 89.733 45.0783C90.3818 45.0783 90.9073 44.5505 90.9073 43.8989V37.57C90.9073 36.9183 90.3818 36.3906 89.733 36.3906Z" stroke="white" stroke-width="12" mask="url(#path-1-inside-1_1029_7204)"/>
<path d="M89.3415 45.505H88.8214C88.4529 45.505 88.1549 45.2058 88.1549 44.8356V36.6527C88.1549 36.2826 88.4529 35.9833 88.8214 35.9833H89.2234C89.6342 35.9833 89.9481 35.6132 89.8811 35.2059L88.1796 24.8307C88.0526 24.0533 87.6841 23.3343 87.1305 22.7765L86.0902 21.7317C85.9262 21.567 85.7234 21.4926 85.5242 21.4926H85.5224C85.1063 21.4909 84.7078 21.8149 84.7078 22.3055V46.1549C84.7078 47.2599 85.6106 48.0639 86.6068 48.0639C86.8854 48.0639 87.1728 48.0001 87.4478 47.8638L89.6378 46.7747C89.8652 46.6614 90.008 46.4294 90.008 46.1744C90.008 45.8043 89.7101 45.505 89.3415 45.505Z" stroke="white" stroke-width="12" mask="url(#path-1-inside-1_1029_7204)"/>
<path d="M13.1601 44.4496V37.0192C13.1601 36.6722 12.8798 36.3906 12.5342 36.3906C11.8853 36.3906 11.3599 36.9183 11.3599 37.57V43.8989C11.3599 44.5505 11.8853 45.0783 12.5342 45.0783C12.8798 45.0783 13.1601 44.7967 13.1601 44.4496Z" stroke="white" stroke-width="12" mask="url(#path-1-inside-1_1029_7204)"/>
<path d="M16.7465 21.4909H16.7448C16.5455 21.4909 16.3427 21.5653 16.1788 21.7299L15.1385 22.7747C14.5831 23.3325 14.2163 24.0497 14.0894 24.8289L12.3879 35.2041C12.3209 35.6114 12.6347 35.9815 13.0455 35.9815H13.4475C13.8161 35.9815 14.114 36.2808 14.114 36.6509V44.8339C14.114 45.204 13.8161 45.5033 13.4475 45.5033H12.9274C12.5589 45.5033 12.2609 45.8025 12.2609 46.1726C12.2609 46.4276 12.4037 46.6596 12.6312 46.7729L14.8211 47.862C15.0979 48.0001 15.3836 48.0621 15.6621 48.0621C16.6584 48.0621 17.5611 47.2581 17.5611 46.1531V22.3055C17.5611 21.8167 17.1626 21.4909 16.7465 21.4909Z" stroke="white" stroke-width="12" mask="url(#path-1-inside-1_1029_7204)"/>
<path d="M53.3879 65.3418L51.4818 64.2368C51.3372 64.1518 51.1715 64.1075 51.004 64.1075C50.8365 64.1075 50.6707 64.1536 50.5262 64.2368L48.6201 65.3418C48.3257 65.5118 48.1423 65.8305 48.1423 66.1723V68.3841C48.1423 68.7258 48.3257 69.0446 48.6201 69.2146L50.5262 70.3196C50.6707 70.4046 50.8365 70.4488 51.004 70.4488C51.1715 70.4488 51.3372 70.4028 51.4818 70.3196L53.3879 69.2146C53.6823 69.0446 53.8657 68.7258 53.8657 68.3841V66.1723C53.8657 65.8305 53.6823 65.5118 53.3879 65.3418ZM49.9143 68.5204C50.6425 68.9631 51.3655 68.956 52.0901 68.5257C51.533 69.1402 50.4697 69.1384 49.9143 68.5204ZM52.2806 68.1804C52.1307 68.2654 51.9755 68.3345 51.8133 68.3894C51.6352 68.4496 51.4519 68.4903 51.2649 68.508C50.7184 68.5612 50.207 68.4531 49.7292 68.1822C49.671 68.1503 49.6234 68.106 49.5864 68.0423C50.5332 67.6403 51.4748 67.6386 52.4216 68.0405C52.3864 68.1043 52.3387 68.1468 52.2806 68.1804ZM52.4745 67.8546C52.4745 67.9183 52.4604 67.9768 52.4269 68.037C52.1677 67.8599 51.8838 67.7413 51.5788 67.6722V67.2029C51.5788 67.1286 51.5488 67.0737 51.4836 67.0365C51.3531 66.9621 51.2244 66.8877 51.0957 66.8116C51.034 66.7762 50.9758 66.7762 50.9158 66.8116C50.7854 66.8895 50.6531 66.9639 50.5226 67.04C50.4609 67.0737 50.4327 67.1268 50.4327 67.1959V67.6704C50.1277 67.7395 49.8438 67.8581 49.5846 68.0352C49.5511 67.9786 49.537 67.9183 49.537 67.8546V66.5796C49.5388 66.4397 49.6005 66.3317 49.7204 66.2608C50.0854 66.0466 50.4539 65.8341 50.8206 65.6234C50.9423 65.5543 51.0675 65.5543 51.1891 65.6234C51.5576 65.8359 51.9244 66.0484 52.2911 66.2626C52.411 66.3317 52.4727 66.4415 52.4727 66.5814H52.4745V67.8546Z" stroke="white" stroke-width="12" mask="url(#path-1-inside-1_1029_7204)"/>
<path d="M70.6674 29.5942C65.286 27.1221 59.9329 25.6222 54.7596 25.1388C54.2201 25.0874 53.7229 24.8147 53.3932 24.3879C53.067 23.9665 52.9277 23.4246 53.0105 22.8987C53.4337 20.223 54.1743 17.4268 55.2146 14.5776C55.2727 14.4164 55.1687 14.2411 54.9994 14.2216C53.7052 14.064 52.3916 13.9844 51.078 13.9844C49.7398 13.9844 48.4085 14.0676 47.1091 14.2323C46.9451 14.2535 46.841 14.4217 46.8922 14.5811C47.8866 17.6535 48.5884 20.3788 49.0257 22.8863C49.1174 23.414 48.9851 23.9629 48.6607 24.3915C48.3327 24.8253 47.8337 25.1034 47.2907 25.1565C42.1774 25.6541 36.8859 27.1451 31.5681 29.5853C29.8789 30.3592 28.4966 31.5669 27.5691 33.0756C26.6999 34.4887 26.2397 36.1303 26.2397 37.8214C26.2379 39.5072 26.6946 41.1417 27.5585 42.5495C28.4807 44.0512 29.856 45.2536 31.5381 46.0274C38.2225 49.098 44.794 50.6563 51.1027 50.6563C57.4115 50.6563 64.0059 49.0927 70.7026 46.0097C72.383 45.2359 73.7583 44.0352 74.6787 42.5371C75.5409 41.1329 75.9958 39.5037 75.9958 37.8232C75.9958 36.1427 75.5356 34.4994 74.6663 33.088C73.7371 31.581 72.3547 30.3733 70.6656 29.5977L70.6674 29.5942ZM69.2638 44.5452C64.1911 46.9181 57.6936 49.0254 50.609 49.0254C44.3338 49.0254 38.5169 47.3715 33.7457 45.3439C26.885 42.4291 26.885 33.5537 33.7457 30.639C37.6247 28.9921 43.0554 27.5825 48.0665 27.115C48.0841 27.1132 48.1 27.1132 48.1159 27.1132C48.4033 27.1132 48.6413 27.3488 48.6413 27.6445V29.4135C48.6413 29.9412 48.8088 30.453 49.1191 30.878L50.0131 32.1017C50.1118 32.238 50.2687 32.3177 50.438 32.3177C50.7906 32.3159 51.4078 32.3159 51.7745 32.3159C51.9597 32.3159 52.1307 32.2185 52.2241 32.0592C52.4022 31.7617 52.7002 31.2605 52.94 30.8585C53.1886 30.4442 53.3191 29.9696 53.3191 29.4861V27.6445C53.3191 27.3488 53.5571 27.1097 53.8463 27.1097H53.8498C53.8657 27.1115 53.8816 27.1132 53.8974 27.1132C59.6631 27.6392 64.9757 29.4366 69.2303 31.4234C75.0948 34.1629 75.1265 41.8022 69.2638 44.5452Z" stroke="white" stroke-width="12" mask="url(#path-1-inside-1_1029_7204)"/>
<path d="M68.6308 32.7073C64.1364 30.6053 59.4586 29.2188 55.0241 28.6592C54.8672 28.6397 54.7279 28.7637 54.7261 28.923L54.7226 29.4861C54.7226 30.2264 54.5234 30.9506 54.146 31.5828L53.61 32.4824L53.4266 32.7887C53.0793 33.3713 52.4445 33.7344 51.7692 33.7344H51.3143L50.4345 33.7361C49.8174 33.7361 49.232 33.4386 48.8687 32.941L47.9748 31.7174C47.4829 31.0445 47.2237 30.2476 47.2237 29.4118V28.9283C47.2237 28.769 47.0861 28.6432 46.9274 28.6627C42.6181 29.1957 37.8822 30.4176 34.2887 31.944C31.6051 33.0845 30.0041 35.344 30.0041 37.9914C30.0041 40.6388 31.6051 42.8984 34.2887 44.0388C39.864 46.4064 45.3529 47.607 50.6037 47.607C56.4206 47.607 62.4966 46.1443 68.6626 43.2596C70.8966 42.2148 72.2296 40.2492 72.2296 38.002C72.2296 35.7549 70.8842 33.7591 68.6308 32.7073ZM44.898 40.9239C44.898 41.9404 44.0781 42.7638 43.066 42.7638C42.0539 42.7638 41.234 41.9404 41.234 40.9239V33.5644C41.234 32.5479 42.0539 31.7245 43.066 31.7245C44.0781 31.7245 44.898 32.5479 44.898 33.5644V40.9239ZM61.0049 40.9239C61.0049 41.9404 60.185 42.7638 59.173 42.7638C58.1609 42.7638 57.341 41.9404 57.341 40.9239V33.5644C57.341 32.5479 58.1609 31.7245 59.173 31.7245C60.185 31.7245 61.0049 32.5479 61.0049 33.5644V40.9239Z" stroke="white" stroke-width="12" mask="url(#path-1-inside-1_1029_7204)"/>
<path d="M51.1151 10C33.3807 10 19.0052 24.4375 19.0052 42.2485C19.0052 60.0594 32.9275 72.6943 42.4383 79.944C44.9844 81.8848 48.0206 82.8552 51.0551 82.8552C54.0896 82.8552 57.1823 81.8654 59.7389 79.8873C69.121 72.6252 82.8512 59.1457 83.225 42.2485C83.6181 24.4428 68.8477 10 51.1151 10ZM58.9138 14.5988H58.912L59.2065 14.6555C59.478 14.7086 59.6332 14.9955 59.5327 15.2558C58.6369 17.5437 57.9158 19.8369 57.3992 22.1372C57.3533 22.3391 57.1752 22.4843 56.9689 22.4843H56.6551C56.38 22.4843 56.1684 22.2329 56.2196 21.9601C56.6516 19.6439 57.2987 17.3525 58.1309 15.0415C58.2473 14.721 58.5805 14.5333 58.9138 14.5988ZM42.8738 14.5971V14.5935C43.1982 14.5457 43.5086 14.7405 43.6073 15.0522C44.369 17.4463 44.9897 19.7466 45.4305 21.9548C45.4851 22.2293 45.2735 22.4843 44.995 22.4843H44.6705C44.4642 22.4843 44.2861 22.3426 44.2403 22.1408C43.7501 19.9981 43.103 17.7686 42.3396 15.4736C42.2073 15.077 42.463 14.6573 42.8738 14.5971ZM56.2125 69.1809C56.2125 69.8716 55.8458 70.5108 55.2498 70.8561L51.9667 72.7598C51.6687 72.9315 51.3372 73.0183 51.004 73.0183C50.6707 73.0183 50.3393 72.9333 50.0413 72.7598L46.7582 70.8561C46.1622 70.5108 45.7955 69.8716 45.7955 69.1809V65.3737C45.7955 64.683 46.1622 64.0438 46.7582 63.6985L50.0413 61.7948C50.3393 61.6231 50.6707 61.5363 51.004 61.5363C51.3372 61.5363 51.6687 61.6213 51.9667 61.7948L55.2498 63.6985C55.8458 64.0438 56.2125 64.683 56.2125 65.3737V69.1809ZM71.2898 47.2918C65.5822 49.9197 58.6034 52.0659 51.1027 52.0659C43.602 52.0659 36.6532 49.9285 30.951 47.3077C22.7679 43.5465 22.7961 32.045 30.9809 28.2891C35.6623 26.1411 41.1811 24.3207 47.1549 23.7398C47.4652 23.7097 47.6892 23.4299 47.6363 23.1253C47.139 20.2867 46.3103 17.2639 45.2542 14.1154C45.0814 13.5983 45.4164 13.0458 45.9612 12.9608C47.6327 12.697 49.3519 12.5659 51.078 12.5659C52.7901 12.5659 54.5075 12.6934 56.1896 12.9537C56.7521 13.0405 57.0871 13.6196 56.8843 14.1455C55.7312 17.1276 54.8778 20.1167 54.4035 23.1183C54.3559 23.4211 54.5798 23.6973 54.8884 23.7257C60.9362 24.2906 66.5238 26.1304 71.2527 28.3032C79.4341 32.0627 79.4675 43.527 71.2898 47.2918Z" stroke="white" stroke-width="12" mask="url(#path-1-inside-1_1029_7204)"/>
<path d="M54.809 64.4652L51.5259 62.5616C51.3672 62.4695 51.1874 62.4217 51.004 62.4217C50.8206 62.4217 50.6408 62.4695 50.4821 62.5616L47.199 64.4652C46.8763 64.6529 46.6771 65 46.6771 65.3737V69.1809C46.6771 69.5546 46.8763 69.9034 47.199 70.0894L50.4821 71.993C50.6408 72.0851 50.8206 72.1329 51.004 72.1329C51.1874 72.1329 51.3672 72.0851 51.5259 71.993L54.809 70.0894C55.1317 69.9017 55.3309 69.5546 55.3309 69.1809V65.3737C55.3309 65 55.1317 64.6512 54.809 64.4652ZM54.571 68.3841C54.571 68.9808 54.2536 69.5316 53.7405 69.8291L51.8345 70.9341C51.577 71.0828 51.2914 71.1572 51.004 71.1572C50.7166 71.1572 50.431 71.0828 50.1735 70.9341L48.2675 69.8291C47.7544 69.5298 47.437 68.9808 47.437 68.3841V66.1723C47.437 65.5755 47.7544 65.0248 48.2675 64.7273L50.1735 63.6223C50.431 63.4736 50.7166 63.3992 51.004 63.3992C51.2914 63.3992 51.577 63.4736 51.8345 63.6223L53.7405 64.7273C54.2536 65.0266 54.571 65.5755 54.571 66.1723V68.3841Z" stroke="white" stroke-width="12" mask="url(#path-1-inside-1_1029_7204)"/>
</g>
<g filter="url(#filter1_bif_1029_7204)">
<path d="M78.3074 74.242L90.6763 72.0514C90.9919 71.9948 91.1859 71.6725 91.0889 71.3661C90.0521 68.0458 88.1972 65.1523 85.7887 62.8803C85.0428 62.1773 84.1101 61.8426 83.1879 61.8426H83.1862C81.8126 61.8426 80.4602 62.5811 79.7743 63.9446C78.2862 66.9072 77.528 70.2629 77.6849 73.739C77.6973 74.0295 77.9353 74.2508 78.2139 74.2508C78.2439 74.2508 78.2756 74.2473 78.3074 74.242Z" fill="url(#paint0_linear_1029_7204)"/>
<path d="M91.699 73.8772C91.6866 73.8099 91.6743 73.7426 91.6619 73.6771C91.6143 73.4221 91.3922 73.245 91.1435 73.245C91.1136 73.245 91.0818 73.2485 91.0501 73.2538L78.3585 75.501C78.0728 75.5524 77.8807 75.8233 77.9283 76.1102C77.9388 76.1775 77.9512 76.2448 77.9618 76.312C78.355 78.5504 79.1096 80.6329 80.1517 82.5135C80.2451 82.6817 80.4232 82.7826 80.6119 82.7826C80.6418 82.7826 80.6736 82.7791 80.7053 82.7738L91.3216 80.8932C91.542 80.8542 91.7166 80.6807 91.7519 80.4575C92.0904 78.3326 92.0922 76.1173 91.699 73.8772Z" fill="url(#paint1_linear_1029_7204)"/>
<path d="M90.6798 82.2886H90.6781C90.6481 82.2868 90.6163 82.2886 90.5846 82.2957L81.8779 83.8381C81.4917 83.9071 81.3083 84.3604 81.5428 84.6757C82.5884 86.0923 83.8103 87.3567 85.1786 88.4351C85.6635 88.8176 86.2365 89 86.8043 89C87.6824 89 88.5481 88.5626 89.0506 87.7498C89.9692 86.2658 90.6869 84.6579 91.1859 82.9686C91.2881 82.6233 91.0219 82.2886 90.6798 82.2886Z" fill="url(#paint2_linear_1029_7204)"/>
<path d="M22.7009 64.9522C21.9533 63.2292 20.2976 62.2907 18.6191 62.2907C17.4694 62.2907 16.311 62.7316 15.4294 63.6648C13.4334 65.7721 11.8836 68.338 10.9579 71.2333C10.838 71.6087 11.076 72.0036 11.4639 72.0727L23.5649 74.2154C23.6037 74.2225 23.6407 74.226 23.6777 74.226C24.018 74.226 24.3107 73.9551 24.3248 73.6009C24.4412 70.5622 23.8593 67.6173 22.7009 64.9522Z" fill="url(#paint3_linear_1029_7204)"/>
<path d="M23.5226 75.4815L11.0619 73.2751C11.0231 73.268 10.9861 73.2645 10.9491 73.2645H10.9544C10.6493 73.2627 10.376 73.4805 10.3178 73.7922C10.3126 73.8205 10.3073 73.8488 10.302 73.8772C9.91407 76.0872 9.90878 78.2741 10.235 80.3743C10.2773 80.647 10.4906 80.8595 10.7604 80.9073L21.211 82.7578C21.2498 82.7649 21.2868 82.7685 21.3238 82.7685C21.5548 82.7685 21.7717 82.6463 21.8863 82.4391C22.9072 80.578 23.6477 78.5203 24.0356 76.312C24.0409 76.2837 24.0462 76.2554 24.0498 76.227C24.1097 75.8764 23.8717 75.5435 23.5226 75.4815Z" fill="url(#paint4_linear_1029_7204)"/>
<path d="M20.1284 83.8345L11.4216 82.2921C11.3899 82.2868 11.3581 82.2833 11.3282 82.2833H11.3264C10.9843 82.285 10.7181 82.6197 10.8204 82.965C11.3194 84.6544 12.037 86.2641 12.9556 87.7463C13.4599 88.5591 14.3239 88.9965 15.2019 88.9965C15.7697 88.9965 16.3427 88.8141 16.8276 88.4316C18.1959 87.3531 19.4178 86.0888 20.4634 84.6721C20.6961 84.3551 20.5127 83.9018 20.1284 83.8345Z" fill="url(#paint5_linear_1029_7204)"/>
<path d="M89.733 36.3906C89.3874 36.3906 89.107 36.6722 89.107 37.0192V44.4496C89.107 44.7967 89.3874 45.0783 89.733 45.0783C90.3818 45.0783 90.9073 44.5505 90.9073 43.8989V37.57C90.9073 36.9183 90.3818 36.3906 89.733 36.3906Z" fill="url(#paint6_linear_1029_7204)"/>
<path d="M89.3415 45.505H88.8214C88.4529 45.505 88.1549 45.2058 88.1549 44.8356V36.6527C88.1549 36.2826 88.4529 35.9833 88.8214 35.9833H89.2234C89.6342 35.9833 89.9481 35.6132 89.8811 35.2059L88.1796 24.8307C88.0526 24.0533 87.6841 23.3343 87.1305 22.7765L86.0902 21.7317C85.9262 21.567 85.7234 21.4926 85.5242 21.4926H85.5224C85.1063 21.4909 84.7078 21.8149 84.7078 22.3055V46.1549C84.7078 47.2599 85.6106 48.0639 86.6068 48.0639C86.8854 48.0639 87.1728 48.0001 87.4478 47.8638L89.6378 46.7747C89.8652 46.6614 90.008 46.4294 90.008 46.1744C90.008 45.8043 89.7101 45.505 89.3415 45.505Z" fill="url(#paint7_linear_1029_7204)"/>
<path d="M13.1601 44.4496V37.0192C13.1601 36.6722 12.8798 36.3906 12.5342 36.3906C11.8853 36.3906 11.3599 36.9183 11.3599 37.57V43.8989C11.3599 44.5505 11.8853 45.0783 12.5342 45.0783C12.8798 45.0783 13.1601 44.7967 13.1601 44.4496Z" fill="url(#paint8_linear_1029_7204)"/>
<path d="M16.7465 21.4909H16.7448C16.5455 21.4909 16.3427 21.5653 16.1788 21.7299L15.1385 22.7747C14.5831 23.3325 14.2163 24.0497 14.0894 24.8289L12.3879 35.2041C12.3209 35.6114 12.6347 35.9815 13.0455 35.9815H13.4475C13.8161 35.9815 14.114 36.2808 14.114 36.6509V44.8339C14.114 45.204 13.8161 45.5033 13.4475 45.5033H12.9274C12.5589 45.5033 12.2609 45.8025 12.2609 46.1726C12.2609 46.4276 12.4037 46.6596 12.6312 46.7729L14.8211 47.862C15.0979 48.0001 15.3836 48.0621 15.6621 48.0621C16.6584 48.0621 17.5611 47.2581 17.5611 46.1531V22.3055C17.5611 21.8167 17.1626 21.4909 16.7465 21.4909Z" fill="url(#paint9_linear_1029_7204)"/>
<path d="M53.3879 65.3418L51.4818 64.2368C51.3372 64.1518 51.1715 64.1075 51.004 64.1075C50.8365 64.1075 50.6707 64.1536 50.5262 64.2368L48.6201 65.3418C48.3257 65.5118 48.1423 65.8305 48.1423 66.1723V68.3841C48.1423 68.7258 48.3257 69.0446 48.6201 69.2146L50.5262 70.3196C50.6707 70.4046 50.8365 70.4488 51.004 70.4488C51.1715 70.4488 51.3372 70.4028 51.4818 70.3196L53.3879 69.2146C53.6823 69.0446 53.8657 68.7258 53.8657 68.3841V66.1723C53.8657 65.8305 53.6823 65.5118 53.3879 65.3418ZM49.9143 68.5204C50.6425 68.9631 51.3655 68.956 52.0901 68.5257C51.533 69.1402 50.4697 69.1384 49.9143 68.5204ZM52.2806 68.1804C52.1307 68.2654 51.9755 68.3345 51.8133 68.3894C51.6352 68.4496 51.4519 68.4903 51.2649 68.508C50.7184 68.5612 50.207 68.4531 49.7292 68.1822C49.671 68.1503 49.6234 68.106 49.5864 68.0423C50.5332 67.6403 51.4748 67.6386 52.4216 68.0405C52.3864 68.1043 52.3387 68.1468 52.2806 68.1804ZM52.4745 67.8546C52.4745 67.9183 52.4604 67.9768 52.4269 68.037C52.1677 67.8599 51.8838 67.7413 51.5788 67.6722V67.2029C51.5788 67.1286 51.5488 67.0737 51.4836 67.0365C51.3531 66.9621 51.2244 66.8877 51.0957 66.8116C51.034 66.7762 50.9758 66.7762 50.9158 66.8116C50.7854 66.8895 50.6531 66.9639 50.5226 67.04C50.4609 67.0737 50.4327 67.1268 50.4327 67.1959V67.6704C50.1277 67.7395 49.8438 67.8581 49.5846 68.0352C49.5511 67.9786 49.537 67.9183 49.537 67.8546V66.5796C49.5388 66.4397 49.6005 66.3317 49.7204 66.2608C50.0854 66.0466 50.4539 65.8341 50.8206 65.6234C50.9423 65.5543 51.0675 65.5543 51.1891 65.6234C51.5576 65.8359 51.9244 66.0484 52.2911 66.2626C52.411 66.3317 52.4727 66.4415 52.4727 66.5814H52.4745V67.8546Z" fill="url(#paint10_linear_1029_7204)"/>
<path d="M70.6674 29.5942C65.286 27.1221 59.9329 25.6222 54.7596 25.1388C54.2201 25.0874 53.7229 24.8147 53.3932 24.3879C53.067 23.9665 52.9277 23.4246 53.0105 22.8987C53.4337 20.223 54.1743 17.4268 55.2146 14.5776C55.2727 14.4164 55.1687 14.2411 54.9994 14.2216C53.7052 14.064 52.3916 13.9844 51.078 13.9844C49.7398 13.9844 48.4085 14.0676 47.1091 14.2323C46.9451 14.2535 46.841 14.4217 46.8922 14.5811C47.8866 17.6535 48.5884 20.3788 49.0257 22.8863C49.1174 23.414 48.9851 23.9629 48.6607 24.3915C48.3327 24.8253 47.8337 25.1034 47.2907 25.1565C42.1774 25.6541 36.8859 27.1451 31.5681 29.5853C29.8789 30.3592 28.4966 31.5669 27.5691 33.0756C26.6999 34.4887 26.2397 36.1303 26.2397 37.8214C26.2379 39.5072 26.6946 41.1417 27.5585 42.5495C28.4807 44.0512 29.856 45.2536 31.5381 46.0274C38.2225 49.098 44.794 50.6563 51.1027 50.6563C57.4115 50.6563 64.0059 49.0927 70.7026 46.0097C72.383 45.2359 73.7583 44.0352 74.6787 42.5371C75.5409 41.1329 75.9958 39.5037 75.9958 37.8232C75.9958 36.1427 75.5356 34.4994 74.6663 33.088C73.7371 31.581 72.3547 30.3733 70.6656 29.5977L70.6674 29.5942ZM69.2638 44.5452C64.1911 46.9181 57.6936 49.0254 50.609 49.0254C44.3338 49.0254 38.5169 47.3715 33.7457 45.3439C26.885 42.4291 26.885 33.5537 33.7457 30.639C37.6247 28.9921 43.0554 27.5825 48.0665 27.115C48.0841 27.1132 48.1 27.1132 48.1159 27.1132C48.4033 27.1132 48.6413 27.3488 48.6413 27.6445V29.4135C48.6413 29.9412 48.8088 30.453 49.1191 30.878L50.0131 32.1017C50.1118 32.238 50.2687 32.3177 50.438 32.3177C50.7906 32.3159 51.4078 32.3159 51.7745 32.3159C51.9597 32.3159 52.1307 32.2185 52.2241 32.0592C52.4022 31.7617 52.7002 31.2605 52.94 30.8585C53.1886 30.4442 53.3191 29.9696 53.3191 29.4861V27.6445C53.3191 27.3488 53.5571 27.1097 53.8463 27.1097H53.8498C53.8657 27.1115 53.8816 27.1132 53.8974 27.1132C59.6631 27.6392 64.9757 29.4366 69.2303 31.4234C75.0948 34.1629 75.1265 41.8022 69.2638 44.5452Z" fill="url(#paint11_linear_1029_7204)"/>
<path d="M68.6308 32.7073C64.1364 30.6053 59.4586 29.2188 55.0241 28.6592C54.8672 28.6397 54.7279 28.7637 54.7261 28.923L54.7226 29.4861C54.7226 30.2264 54.5234 30.9506 54.146 31.5828L53.61 32.4824L53.4266 32.7887C53.0793 33.3713 52.4445 33.7344 51.7692 33.7344H51.3143L50.4345 33.7361C49.8174 33.7361 49.232 33.4386 48.8687 32.941L47.9748 31.7174C47.4829 31.0445 47.2237 30.2476 47.2237 29.4118V28.9283C47.2237 28.769 47.0861 28.6432 46.9274 28.6627C42.6181 29.1957 37.8822 30.4176 34.2887 31.944C31.6051 33.0845 30.0041 35.344 30.0041 37.9914C30.0041 40.6388 31.6051 42.8984 34.2887 44.0388C39.864 46.4064 45.3529 47.607 50.6037 47.607C56.4206 47.607 62.4966 46.1443 68.6626 43.2596C70.8966 42.2148 72.2296 40.2492 72.2296 38.002C72.2296 35.7549 70.8842 33.7591 68.6308 32.7073ZM44.898 40.9239C44.898 41.9404 44.0781 42.7638 43.066 42.7638C42.0539 42.7638 41.234 41.9404 41.234 40.9239V33.5644C41.234 32.5479 42.0539 31.7245 43.066 31.7245C44.0781 31.7245 44.898 32.5479 44.898 33.5644V40.9239ZM61.0049 40.9239C61.0049 41.9404 60.185 42.7638 59.173 42.7638C58.1609 42.7638 57.341 41.9404 57.341 40.9239V33.5644C57.341 32.5479 58.1609 31.7245 59.173 31.7245C60.185 31.7245 61.0049 32.5479 61.0049 33.5644V40.9239Z" fill="url(#paint12_linear_1029_7204)"/>
<path d="M51.1151 10C33.3807 10 19.0052 24.4375 19.0052 42.2485C19.0052 60.0594 32.9275 72.6943 42.4383 79.944C44.9844 81.8848 48.0206 82.8552 51.0551 82.8552C54.0896 82.8552 57.1823 81.8654 59.7389 79.8873C69.121 72.6252 82.8512 59.1457 83.225 42.2485C83.6181 24.4428 68.8477 10 51.1151 10ZM58.9138 14.5988H58.912L59.2065 14.6555C59.478 14.7086 59.6332 14.9955 59.5327 15.2558C58.6369 17.5437 57.9158 19.8369 57.3992 22.1372C57.3533 22.3391 57.1752 22.4843 56.9689 22.4843H56.6551C56.38 22.4843 56.1684 22.2329 56.2196 21.9601C56.6516 19.6439 57.2987 17.3525 58.1309 15.0415C58.2473 14.721 58.5805 14.5333 58.9138 14.5988ZM42.8738 14.5971V14.5935C43.1982 14.5457 43.5086 14.7405 43.6073 15.0522C44.369 17.4463 44.9897 19.7466 45.4305 21.9548C45.4851 22.2293 45.2735 22.4843 44.995 22.4843H44.6705C44.4642 22.4843 44.2861 22.3426 44.2403 22.1408C43.7501 19.9981 43.103 17.7686 42.3396 15.4736C42.2073 15.077 42.463 14.6573 42.8738 14.5971ZM56.2125 69.1809C56.2125 69.8716 55.8458 70.5108 55.2498 70.8561L51.9667 72.7598C51.6687 72.9315 51.3372 73.0183 51.004 73.0183C50.6707 73.0183 50.3393 72.9333 50.0413 72.7598L46.7582 70.8561C46.1622 70.5108 45.7955 69.8716 45.7955 69.1809V65.3737C45.7955 64.683 46.1622 64.0438 46.7582 63.6985L50.0413 61.7948C50.3393 61.6231 50.6707 61.5363 51.004 61.5363C51.3372 61.5363 51.6687 61.6213 51.9667 61.7948L55.2498 63.6985C55.8458 64.0438 56.2125 64.683 56.2125 65.3737V69.1809ZM71.2898 47.2918C65.5822 49.9197 58.6034 52.0659 51.1027 52.0659C43.602 52.0659 36.6532 49.9285 30.951 47.3077C22.7679 43.5465 22.7961 32.045 30.9809 28.2891C35.6623 26.1411 41.1811 24.3207 47.1549 23.7398C47.4652 23.7097 47.6892 23.4299 47.6363 23.1253C47.139 20.2867 46.3103 17.2639 45.2542 14.1154C45.0814 13.5983 45.4164 13.0458 45.9612 12.9608C47.6327 12.697 49.3519 12.5659 51.078 12.5659C52.7901 12.5659 54.5075 12.6934 56.1896 12.9537C56.7521 13.0405 57.0871 13.6196 56.8843 14.1455C55.7312 17.1276 54.8778 20.1167 54.4035 23.1183C54.3559 23.4211 54.5798 23.6973 54.8884 23.7257C60.9362 24.2906 66.5238 26.1304 71.2527 28.3032C79.4341 32.0627 79.4675 43.527 71.2898 47.2918Z" fill="url(#paint13_linear_1029_7204)"/>
<path d="M54.809 64.4652L51.5259 62.5616C51.3672 62.4695 51.1874 62.4217 51.004 62.4217C50.8206 62.4217 50.6408 62.4695 50.4821 62.5616L47.199 64.4652C46.8763 64.6529 46.6771 65 46.6771 65.3737V69.1809C46.6771 69.5546 46.8763 69.9034 47.199 70.0894L50.4821 71.993C50.6408 72.0851 50.8206 72.1329 51.004 72.1329C51.1874 72.1329 51.3672 72.0851 51.5259 71.993L54.809 70.0894C55.1317 69.9017 55.3309 69.5546 55.3309 69.1809V65.3737C55.3309 65 55.1317 64.6512 54.809 64.4652ZM54.571 68.3841C54.571 68.9808 54.2536 69.5316 53.7405 69.8291L51.8345 70.9341C51.577 71.0828 51.2914 71.1572 51.004 71.1572C50.7166 71.1572 50.431 71.0828 50.1735 70.9341L48.2675 69.8291C47.7544 69.5298 47.437 68.9808 47.437 68.3841V66.1723C47.437 65.5755 47.7544 65.0248 48.2675 64.7273L50.1735 63.6223C50.431 63.4736 50.7166 63.3992 51.004 63.3992C51.2914 63.3992 51.577 63.4736 51.8345 63.6223L53.7405 64.7273C54.2536 65.0266 54.571 65.5755 54.571 66.1723V68.3841Z" fill="url(#paint14_linear_1029_7204)"/>
</g>
<g opacity="0.9" filter="url(#filter2_bi_1029_7204)">
<path d="M78.3074 74.242L90.6763 72.0514C90.9919 71.9948 91.1859 71.6725 91.0889 71.3661C90.0521 68.0458 88.1972 65.1523 85.7887 62.8803C85.0428 62.1773 84.1101 61.8426 83.1879 61.8426H83.1862C81.8126 61.8426 80.4602 62.5811 79.7743 63.9446C78.2862 66.9072 77.528 70.2629 77.6849 73.739C77.6973 74.0295 77.9353 74.2508 78.2139 74.2508C78.2439 74.2508 78.2756 74.2473 78.3074 74.242Z" fill="url(#paint15_linear_1029_7204)" fill-opacity="0.3"/>
<path d="M91.699 73.8772C91.6866 73.8099 91.6743 73.7426 91.6619 73.6771C91.6143 73.4221 91.3922 73.245 91.1435 73.245C91.1136 73.245 91.0818 73.2485 91.0501 73.2538L78.3585 75.501C78.0728 75.5524 77.8807 75.8233 77.9283 76.1102C77.9388 76.1775 77.9512 76.2448 77.9618 76.312C78.355 78.5504 79.1096 80.6329 80.1517 82.5135C80.2451 82.6817 80.4232 82.7826 80.6119 82.7826C80.6418 82.7826 80.6736 82.7791 80.7053 82.7738L91.3216 80.8932C91.542 80.8542 91.7166 80.6807 91.7519 80.4575C92.0904 78.3326 92.0922 76.1173 91.699 73.8772Z" fill="url(#paint16_linear_1029_7204)" fill-opacity="0.3"/>
<path d="M90.6798 82.2886H90.6781C90.6481 82.2868 90.6163 82.2886 90.5846 82.2957L81.8779 83.8381C81.4917 83.9071 81.3083 84.3604 81.5428 84.6757C82.5884 86.0923 83.8103 87.3567 85.1786 88.4351C85.6635 88.8176 86.2365 89 86.8043 89C87.6824 89 88.5481 88.5626 89.0506 87.7498C89.9692 86.2658 90.6869 84.6579 91.1859 82.9686C91.2881 82.6233 91.0219 82.2886 90.6798 82.2886Z" fill="url(#paint17_linear_1029_7204)" fill-opacity="0.3"/>
<path d="M22.7009 64.9522C21.9533 63.2292 20.2976 62.2907 18.6191 62.2907C17.4694 62.2907 16.311 62.7316 15.4294 63.6648C13.4334 65.7721 11.8836 68.338 10.9579 71.2333C10.838 71.6087 11.076 72.0036 11.4639 72.0727L23.5649 74.2154C23.6037 74.2225 23.6407 74.226 23.6777 74.226C24.018 74.226 24.3107 73.9551 24.3248 73.6009C24.4412 70.5622 23.8593 67.6173 22.7009 64.9522Z" fill="url(#paint18_linear_1029_7204)" fill-opacity="0.3"/>
<path d="M23.5226 75.4815L11.0619 73.2751C11.0231 73.268 10.9861 73.2645 10.9491 73.2645H10.9544C10.6493 73.2627 10.376 73.4805 10.3178 73.7922C10.3126 73.8205 10.3073 73.8488 10.302 73.8772C9.91407 76.0872 9.90878 78.2741 10.235 80.3743C10.2773 80.647 10.4906 80.8595 10.7604 80.9073L21.211 82.7578C21.2498 82.7649 21.2868 82.7685 21.3238 82.7685C21.5548 82.7685 21.7717 82.6463 21.8863 82.4391C22.9072 80.578 23.6477 78.5203 24.0356 76.312C24.0409 76.2837 24.0462 76.2554 24.0498 76.227C24.1097 75.8764 23.8717 75.5435 23.5226 75.4815Z" fill="url(#paint19_linear_1029_7204)" fill-opacity="0.3"/>
<path d="M20.1284 83.8345L11.4216 82.2921C11.3899 82.2868 11.3581 82.2833 11.3282 82.2833H11.3264C10.9843 82.285 10.7181 82.6197 10.8204 82.965C11.3194 84.6544 12.037 86.2641 12.9556 87.7463C13.4599 88.5591 14.3239 88.9965 15.2019 88.9965C15.7697 88.9965 16.3427 88.8141 16.8276 88.4316C18.1959 87.3531 19.4178 86.0888 20.4634 84.6721C20.6961 84.3551 20.5127 83.9018 20.1284 83.8345Z" fill="url(#paint20_linear_1029_7204)" fill-opacity="0.3"/>
<path d="M89.733 36.3906C89.3874 36.3906 89.107 36.6722 89.107 37.0192V44.4496C89.107 44.7967 89.3874 45.0783 89.733 45.0783C90.3818 45.0783 90.9073 44.5505 90.9073 43.8989V37.57C90.9073 36.9183 90.3818 36.3906 89.733 36.3906Z" fill="url(#paint21_linear_1029_7204)" fill-opacity="0.3"/>
<path d="M89.3415 45.505H88.8214C88.4529 45.505 88.1549 45.2058 88.1549 44.8356V36.6527C88.1549 36.2826 88.4529 35.9833 88.8214 35.9833H89.2234C89.6342 35.9833 89.9481 35.6132 89.8811 35.2059L88.1796 24.8307C88.0526 24.0533 87.6841 23.3343 87.1305 22.7765L86.0902 21.7317C85.9262 21.567 85.7234 21.4926 85.5242 21.4926H85.5224C85.1063 21.4909 84.7078 21.8149 84.7078 22.3055V46.1549C84.7078 47.2599 85.6106 48.0639 86.6068 48.0639C86.8854 48.0639 87.1728 48.0001 87.4478 47.8638L89.6378 46.7747C89.8652 46.6614 90.008 46.4294 90.008 46.1744C90.008 45.8043 89.7101 45.505 89.3415 45.505Z" fill="url(#paint22_linear_1029_7204)" fill-opacity="0.3"/>
<path d="M13.1601 44.4496V37.0192C13.1601 36.6722 12.8798 36.3906 12.5342 36.3906C11.8853 36.3906 11.3599 36.9183 11.3599 37.57V43.8989C11.3599 44.5505 11.8853 45.0783 12.5342 45.0783C12.8798 45.0783 13.1601 44.7967 13.1601 44.4496Z" fill="url(#paint23_linear_1029_7204)" fill-opacity="0.3"/>
<path d="M16.7465 21.4909H16.7448C16.5455 21.4909 16.3427 21.5653 16.1788 21.7299L15.1385 22.7747C14.5831 23.3325 14.2163 24.0497 14.0894 24.8289L12.3879 35.2041C12.3209 35.6114 12.6347 35.9815 13.0455 35.9815H13.4475C13.8161 35.9815 14.114 36.2808 14.114 36.6509V44.8339C14.114 45.204 13.8161 45.5033 13.4475 45.5033H12.9274C12.5589 45.5033 12.2609 45.8025 12.2609 46.1726C12.2609 46.4276 12.4037 46.6596 12.6312 46.7729L14.8211 47.862C15.0979 48.0001 15.3836 48.0621 15.6621 48.0621C16.6584 48.0621 17.5611 47.2581 17.5611 46.1531V22.3055C17.5611 21.8167 17.1626 21.4909 16.7465 21.4909Z" fill="url(#paint24_linear_1029_7204)" fill-opacity="0.3"/>
<path d="M53.3879 65.3418L51.4818 64.2368C51.3372 64.1518 51.1715 64.1075 51.004 64.1075C50.8365 64.1075 50.6707 64.1536 50.5262 64.2368L48.6201 65.3418C48.3257 65.5118 48.1423 65.8305 48.1423 66.1723V68.3841C48.1423 68.7258 48.3257 69.0446 48.6201 69.2146L50.5262 70.3196C50.6707 70.4046 50.8365 70.4488 51.004 70.4488C51.1715 70.4488 51.3372 70.4028 51.4818 70.3196L53.3879 69.2146C53.6823 69.0446 53.8657 68.7258 53.8657 68.3841V66.1723C53.8657 65.8305 53.6823 65.5118 53.3879 65.3418ZM49.9143 68.5204C50.6425 68.9631 51.3655 68.956 52.0901 68.5257C51.533 69.1402 50.4697 69.1384 49.9143 68.5204ZM52.2806 68.1804C52.1307 68.2654 51.9755 68.3345 51.8133 68.3894C51.6352 68.4496 51.4519 68.4903 51.2649 68.508C50.7184 68.5612 50.207 68.4531 49.7292 68.1822C49.671 68.1503 49.6234 68.106 49.5864 68.0423C50.5332 67.6403 51.4748 67.6386 52.4216 68.0405C52.3864 68.1043 52.3387 68.1468 52.2806 68.1804ZM52.4745 67.8546C52.4745 67.9183 52.4604 67.9768 52.4269 68.037C52.1677 67.8599 51.8838 67.7413 51.5788 67.6722V67.2029C51.5788 67.1286 51.5488 67.0737 51.4836 67.0365C51.3531 66.9621 51.2244 66.8877 51.0957 66.8116C51.034 66.7762 50.9758 66.7762 50.9158 66.8116C50.7854 66.8895 50.6531 66.9639 50.5226 67.04C50.4609 67.0737 50.4327 67.1268 50.4327 67.1959V67.6704C50.1277 67.7395 49.8438 67.8581 49.5846 68.0352C49.5511 67.9786 49.537 67.9183 49.537 67.8546V66.5796C49.5388 66.4397 49.6005 66.3317 49.7204 66.2608C50.0854 66.0466 50.4539 65.8341 50.8206 65.6234C50.9423 65.5543 51.0675 65.5543 51.1891 65.6234C51.5576 65.8359 51.9244 66.0484 52.2911 66.2626C52.411 66.3317 52.4727 66.4415 52.4727 66.5814H52.4745V67.8546Z" fill="url(#paint25_linear_1029_7204)" fill-opacity="0.3"/>
<path d="M70.6674 29.5942C65.286 27.1221 59.9329 25.6222 54.7596 25.1388C54.2201 25.0874 53.7229 24.8147 53.3932 24.3879C53.067 23.9665 52.9277 23.4246 53.0105 22.8987C53.4337 20.223 54.1743 17.4268 55.2146 14.5776C55.2727 14.4164 55.1687 14.2411 54.9994 14.2216C53.7052 14.064 52.3916 13.9844 51.078 13.9844C49.7398 13.9844 48.4085 14.0676 47.1091 14.2323C46.9451 14.2535 46.841 14.4217 46.8922 14.5811C47.8866 17.6535 48.5884 20.3788 49.0257 22.8863C49.1174 23.414 48.9851 23.9629 48.6607 24.3915C48.3327 24.8253 47.8337 25.1034 47.2907 25.1565C42.1774 25.6541 36.8859 27.1451 31.5681 29.5853C29.8789 30.3592 28.4966 31.5669 27.5691 33.0756C26.6999 34.4887 26.2397 36.1303 26.2397 37.8214C26.2379 39.5072 26.6946 41.1417 27.5585 42.5495C28.4807 44.0512 29.856 45.2536 31.5381 46.0274C38.2225 49.098 44.794 50.6563 51.1027 50.6563C57.4115 50.6563 64.0059 49.0927 70.7026 46.0097C72.383 45.2359 73.7583 44.0352 74.6787 42.5371C75.5409 41.1329 75.9958 39.5037 75.9958 37.8232C75.9958 36.1427 75.5356 34.4994 74.6663 33.088C73.7371 31.581 72.3547 30.3733 70.6656 29.5977L70.6674 29.5942ZM69.2638 44.5452C64.1911 46.9181 57.6936 49.0254 50.609 49.0254C44.3338 49.0254 38.5169 47.3715 33.7457 45.3439C26.885 42.4291 26.885 33.5537 33.7457 30.639C37.6247 28.9921 43.0554 27.5825 48.0665 27.115C48.0841 27.1132 48.1 27.1132 48.1159 27.1132C48.4033 27.1132 48.6413 27.3488 48.6413 27.6445V29.4135C48.6413 29.9412 48.8088 30.453 49.1191 30.878L50.0131 32.1017C50.1118 32.238 50.2687 32.3177 50.438 32.3177C50.7906 32.3159 51.4078 32.3159 51.7745 32.3159C51.9597 32.3159 52.1307 32.2185 52.2241 32.0592C52.4022 31.7617 52.7002 31.2605 52.94 30.8585C53.1886 30.4442 53.3191 29.9696 53.3191 29.4861V27.6445C53.3191 27.3488 53.5571 27.1097 53.8463 27.1097H53.8498C53.8657 27.1115 53.8816 27.1132 53.8974 27.1132C59.6631 27.6392 64.9757 29.4366 69.2303 31.4234C75.0948 34.1629 75.1265 41.8022 69.2638 44.5452Z" fill="url(#paint26_linear_1029_7204)" fill-opacity="0.3"/>
<path d="M68.6308 32.7073C64.1364 30.6053 59.4586 29.2188 55.0241 28.6592C54.8672 28.6397 54.7279 28.7637 54.7261 28.923L54.7226 29.4861C54.7226 30.2264 54.5234 30.9506 54.146 31.5828L53.61 32.4824L53.4266 32.7887C53.0793 33.3713 52.4445 33.7344 51.7692 33.7344H51.3143L50.4345 33.7361C49.8174 33.7361 49.232 33.4386 48.8687 32.941L47.9748 31.7174C47.4829 31.0445 47.2237 30.2476 47.2237 29.4118V28.9283C47.2237 28.769 47.0861 28.6432 46.9274 28.6627C42.6181 29.1957 37.8822 30.4176 34.2887 31.944C31.6051 33.0845 30.0041 35.344 30.0041 37.9914C30.0041 40.6388 31.6051 42.8984 34.2887 44.0388C39.864 46.4064 45.3529 47.607 50.6037 47.607C56.4206 47.607 62.4966 46.1443 68.6626 43.2596C70.8966 42.2148 72.2296 40.2492 72.2296 38.002C72.2296 35.7549 70.8842 33.7591 68.6308 32.7073ZM44.898 40.9239C44.898 41.9404 44.0781 42.7638 43.066 42.7638C42.0539 42.7638 41.234 41.9404 41.234 40.9239V33.5644C41.234 32.5479 42.0539 31.7245 43.066 31.7245C44.0781 31.7245 44.898 32.5479 44.898 33.5644V40.9239ZM61.0049 40.9239C61.0049 41.9404 60.185 42.7638 59.173 42.7638C58.1609 42.7638 57.341 41.9404 57.341 40.9239V33.5644C57.341 32.5479 58.1609 31.7245 59.173 31.7245C60.185 31.7245 61.0049 32.5479 61.0049 33.5644V40.9239Z" fill="url(#paint27_linear_1029_7204)" fill-opacity="0.3"/>
<path d="M51.1151 10C33.3807 10 19.0052 24.4375 19.0052 42.2485C19.0052 60.0594 32.9275 72.6943 42.4383 79.944C44.9844 81.8848 48.0206 82.8552 51.0551 82.8552C54.0896 82.8552 57.1823 81.8654 59.7389 79.8873C69.121 72.6252 82.8512 59.1457 83.225 42.2485C83.6181 24.4428 68.8477 10 51.1151 10ZM58.9138 14.5988H58.912L59.2065 14.6555C59.478 14.7086 59.6332 14.9955 59.5327 15.2558C58.6369 17.5437 57.9158 19.8369 57.3992 22.1372C57.3533 22.3391 57.1752 22.4843 56.9689 22.4843H56.6551C56.38 22.4843 56.1684 22.2329 56.2196 21.9601C56.6516 19.6439 57.2987 17.3525 58.1309 15.0415C58.2473 14.721 58.5805 14.5333 58.9138 14.5988ZM42.8738 14.5971V14.5935C43.1982 14.5457 43.5086 14.7405 43.6073 15.0522C44.369 17.4463 44.9897 19.7466 45.4305 21.9548C45.4851 22.2293 45.2735 22.4843 44.995 22.4843H44.6705C44.4642 22.4843 44.2861 22.3426 44.2403 22.1408C43.7501 19.9981 43.103 17.7686 42.3396 15.4736C42.2073 15.077 42.463 14.6573 42.8738 14.5971ZM56.2125 69.1809C56.2125 69.8716 55.8458 70.5108 55.2498 70.8561L51.9667 72.7598C51.6687 72.9315 51.3372 73.0183 51.004 73.0183C50.6707 73.0183 50.3393 72.9333 50.0413 72.7598L46.7582 70.8561C46.1622 70.5108 45.7955 69.8716 45.7955 69.1809V65.3737C45.7955 64.683 46.1622 64.0438 46.7582 63.6985L50.0413 61.7948C50.3393 61.6231 50.6707 61.5363 51.004 61.5363C51.3372 61.5363 51.6687 61.6213 51.9667 61.7948L55.2498 63.6985C55.8458 64.0438 56.2125 64.683 56.2125 65.3737V69.1809ZM71.2898 47.2918C65.5822 49.9197 58.6034 52.0659 51.1027 52.0659C43.602 52.0659 36.6532 49.9285 30.951 47.3077C22.7679 43.5465 22.7961 32.045 30.9809 28.2891C35.6623 26.1411 41.1811 24.3207 47.1549 23.7398C47.4652 23.7097 47.6892 23.4299 47.6363 23.1253C47.139 20.2867 46.3103 17.2639 45.2542 14.1154C45.0814 13.5983 45.4164 13.0458 45.9612 12.9608C47.6327 12.697 49.3519 12.5659 51.078 12.5659C52.7901 12.5659 54.5075 12.6934 56.1896 12.9537C56.7521 13.0405 57.0871 13.6196 56.8843 14.1455C55.7312 17.1276 54.8778 20.1167 54.4035 23.1183C54.3559 23.4211 54.5798 23.6973 54.8884 23.7257C60.9362 24.2906 66.5238 26.1304 71.2527 28.3032C79.4341 32.0627 79.4675 43.527 71.2898 47.2918Z" fill="url(#paint28_linear_1029_7204)" fill-opacity="0.3"/>
<path d="M54.809 64.4652L51.5259 62.5616C51.3672 62.4695 51.1874 62.4217 51.004 62.4217C50.8206 62.4217 50.6408 62.4695 50.4821 62.5616L47.199 64.4652C46.8763 64.6529 46.6771 65 46.6771 65.3737V69.1809C46.6771 69.5546 46.8763 69.9034 47.199 70.0894L50.4821 71.993C50.6408 72.0851 50.8206 72.1329 51.004 72.1329C51.1874 72.1329 51.3672 72.0851 51.5259 71.993L54.809 70.0894C55.1317 69.9017 55.3309 69.5546 55.3309 69.1809V65.3737C55.3309 65 55.1317 64.6512 54.809 64.4652ZM54.571 68.3841C54.571 68.9808 54.2536 69.5316 53.7405 69.8291L51.8345 70.9341C51.577 71.0828 51.2914 71.1572 51.004 71.1572C50.7166 71.1572 50.431 71.0828 50.1735 70.9341L48.2675 69.8291C47.7544 69.5298 47.437 68.9808 47.437 68.3841V66.1723C47.437 65.5755 47.7544 65.0248 48.2675 64.7273L50.1735 63.6223C50.431 63.4736 50.7166 63.3992 51.004 63.3992C51.2914 63.3992 51.577 63.4736 51.8345 63.6223L53.7405 64.7273C54.2536 65.0266 54.571 65.5755 54.571 66.1723V68.3841Z" fill="url(#paint29_linear_1029_7204)" fill-opacity="0.3"/>
</g>
<defs>
<filter id="filter0_f_1029_7204" x="9" y="9" width="84" height="81" filterUnits="userSpaceOnUse" color-interpolation-filters="sRGB">
<feFlood flood-opacity="0" result="BackgroundImageFix"/>
<feBlend mode="normal" in="SourceGraphic" in2="BackgroundImageFix" result="shape"/>
<feGaussianBlur stdDeviation="0.5" result="effect1_foregroundBlur_1029_7204"/>
</filter>
<filter id="filter1_bif_1029_7204" x="-10" y="-10" width="122" height="119" filterUnits="userSpaceOnUse" color-interpolation-filters="sRGB">
<feFlood flood-opacity="0" result="BackgroundImageFix"/>
<feGaussianBlur in="BackgroundImageFix" stdDeviation="10"/>
<feComposite in2="SourceAlpha" operator="in" result="effect1_backgroundBlur_1029_7204"/>
<feBlend mode="normal" in="SourceGraphic" in2="effect1_backgroundBlur_1029_7204" result="shape"/>
<feColorMatrix in="SourceAlpha" type="matrix" values="0 0 0 0 0 0 0 0 0 0 0 0 0 0 0 0 0 0 127 0" result="hardAlpha"/>
<feOffset dx="4" dy="4"/>
<feGaussianBlur stdDeviation="2"/>
<feComposite in2="hardAlpha" operator="arithmetic" k2="-1" k3="1"/>
<feColorMatrix type="matrix" values="0 0 0 0 1 0 0 0 0 1 0 0 0 0 1 0 0 0 0.6 0"/>
<feBlend mode="normal" in2="shape" result="effect2_innerShadow_1029_7204"/>
<feGaussianBlur stdDeviation="5" result="effect3_foregroundBlur_1029_7204"/>
</filter>
<filter id="filter2_bi_1029_7204" x="-10" y="-10" width="122" height="119" filterUnits="userSpaceOnUse" color-interpolation-filters="sRGB">
<feFlood flood-opacity="0" result="BackgroundImageFix"/>
<feGaussianBlur in="BackgroundImageFix" stdDeviation="10"/>
<feComposite in2="SourceAlpha" operator="in" result="effect1_backgroundBlur_1029_7204"/>
<feBlend mode="normal" in="SourceGraphic" in2="effect1_backgroundBlur_1029_7204" result="shape"/>
<feColorMatrix in="SourceAlpha" type="matrix" values="0 0 0 0 0 0 0 0 0 0 0 0 0 0 0 0 0 0 127 0" result="hardAlpha"/>
<feOffset dx="2" dy="4"/>
<feGaussianBlur stdDeviation="2"/>
<feComposite in2="hardAlpha" operator="arithmetic" k2="-1" k3="1"/>
<feColorMatrix type="matrix" values="0 0 0 0 1 0 0 0 0 1 0 0 0 0 1 0 0 0 0.6 0"/>
<feBlend mode="normal" in2="shape" result="effect2_innerShadow_1029_7204"/>
</filter>
<linearGradient id="paint0_linear_1029_7204" x1="51.0144" y1="90.6013" x2="50.9952" y2="11.1146" gradientUnits="userSpaceOnUse">
<stop offset="0.00202302" stop-color="#EA967A"/>
<stop offset="0.3" stop-color="#FA8071"/>
<stop offset="1" stop-color="#FFA07A"/>
</linearGradient>
<linearGradient id="paint1_linear_1029_7204" x1="51.0144" y1="90.6013" x2="50.9952" y2="11.1146" gradientUnits="userSpaceOnUse">
<stop offset="0.00202302" stop-color="#EA967A"/>
<stop offset="0.3" stop-color="#FA8071"/>
<stop offset="1" stop-color="#FFA07A"/>
</linearGradient>
<linearGradient id="paint2_linear_1029_7204" x1="51.0144" y1="90.6013" x2="50.9952" y2="11.1146" gradientUnits="userSpaceOnUse">
<stop offset="0.00202302" stop-color="#EA967A"/>
<stop offset="0.3" stop-color="#FA8071"/>
<stop offset="1" stop-color="#FFA07A"/>
</linearGradient>
<linearGradient id="paint3_linear_1029_7204" x1="51.0144" y1="90.6013" x2="50.9952" y2="11.1146" gradientUnits="userSpaceOnUse">
<stop offset="0.00202302" stop-color="#EA967A"/>
<stop offset="0.3" stop-color="#FA8071"/>
<stop offset="1" stop-color="#FFA07A"/>
</linearGradient>
<linearGradient id="paint4_linear_1029_7204" x1="51.0144" y1="90.6013" x2="50.9952" y2="11.1146" gradientUnits="userSpaceOnUse">
<stop offset="0.00202302" stop-color="#EA967A"/>
<stop offset="0.3" stop-color="#FA8071"/>
<stop offset="1" stop-color="#FFA07A"/>
</linearGradient>
<linearGradient id="paint5_linear_1029_7204" x1="51.0144" y1="90.6013" x2="50.9952" y2="11.1146" gradientUnits="userSpaceOnUse">
<stop offset="0.00202302" stop-color="#EA967A"/>
<stop offset="0.3" stop-color="#FA8071"/>
<stop offset="1" stop-color="#FFA07A"/>
</linearGradient>
<linearGradient id="paint6_linear_1029_7204" x1="51.0144" y1="90.6013" x2="50.9952" y2="11.1146" gradientUnits="userSpaceOnUse">
<stop offset="0.00202302" stop-color="#EA967A"/>
<stop offset="0.3" stop-color="#FA8071"/>
<stop offset="1" stop-color="#FFA07A"/>
</linearGradient>
<linearGradient id="paint7_linear_1029_7204" x1="51.0144" y1="90.6013" x2="50.9952" y2="11.1146" gradientUnits="userSpaceOnUse">
<stop offset="0.00202302" stop-color="#EA967A"/>
<stop offset="0.3" stop-color="#FA8071"/>
<stop offset="1" stop-color="#FFA07A"/>
</linearGradient>
<linearGradient id="paint8_linear_1029_7204" x1="51.0144" y1="90.6013" x2="50.9952" y2="11.1146" gradientUnits="userSpaceOnUse">
<stop offset="0.00202302" stop-color="#EA967A"/>
<stop offset="0.3" stop-color="#FA8071"/>
<stop offset="1" stop-color="#FFA07A"/>
</linearGradient>
<linearGradient id="paint9_linear_1029_7204" x1="51.0144" y1="90.6013" x2="50.9952" y2="11.1146" gradientUnits="userSpaceOnUse">
<stop offset="0.00202302" stop-color="#EA967A"/>
<stop offset="0.3" stop-color="#FA8071"/>
<stop offset="1" stop-color="#FFA07A"/>
</linearGradient>
<linearGradient id="paint10_linear_1029_7204" x1="51.0144" y1="90.6013" x2="50.9952" y2="11.1146" gradientUnits="userSpaceOnUse">
<stop offset="0.00202302" stop-color="#EA967A"/>
<stop offset="0.3" stop-color="#FA8071"/>
<stop offset="1" stop-color="#FFA07A"/>
</linearGradient>
<linearGradient id="paint11_linear_1029_7204" x1="51.0144" y1="90.6013" x2="50.9952" y2="11.1146" gradientUnits="userSpaceOnUse">
<stop offset="0.00202302" stop-color="#EA967A"/>
<stop offset="0.3" stop-color="#FA8071"/>
<stop offset="1" stop-color="#FFA07A"/>
</linearGradient>
<linearGradient id="paint12_linear_1029_7204" x1="51.0144" y1="90.6013" x2="50.9952" y2="11.1146" gradientUnits="userSpaceOnUse">
<stop offset="0.00202302" stop-color="#EA967A"/>
<stop offset="0.3" stop-color="#FA8071"/>
<stop offset="1" stop-color="#FFA07A"/>
</linearGradient>
<linearGradient id="paint13_linear_1029_7204" x1="51.0144" y1="90.6013" x2="50.9952" y2="11.1146" gradientUnits="userSpaceOnUse">
<stop offset="0.00202302" stop-color="#EA967A"/>
<stop offset="0.3" stop-color="#FA8071"/>
<stop offset="1" stop-color="#FFA07A"/>
</linearGradient>
<linearGradient id="paint14_linear_1029_7204" x1="51.0144" y1="90.6013" x2="50.9952" y2="11.1146" gradientUnits="userSpaceOnUse">
<stop offset="0.00202302" stop-color="#EA967A"/>
<stop offset="0.3" stop-color="#FA8071"/>
<stop offset="1" stop-color="#FFA07A"/>
</linearGradient>
<linearGradient id="paint15_linear_1029_7204" x1="51.0001" y1="10" x2="51.0001" y2="89" gradientUnits="userSpaceOnUse">
<stop stop-color="white"/>
<stop offset="1" stop-color="white"/>
</linearGradient>
<linearGradient id="paint16_linear_1029_7204" x1="51.0001" y1="10" x2="51.0001" y2="89" gradientUnits="userSpaceOnUse">
<stop stop-color="white"/>
<stop offset="1" stop-color="white"/>
</linearGradient>
<linearGradient id="paint17_linear_1029_7204" x1="51.0001" y1="10" x2="51.0001" y2="89" gradientUnits="userSpaceOnUse">
<stop stop-color="white"/>
<stop offset="1" stop-color="white"/>
</linearGradient>
<linearGradient id="paint18_linear_1029_7204" x1="51.0001" y1="10" x2="51.0001" y2="89" gradientUnits="userSpaceOnUse">
<stop stop-color="white"/>
<stop offset="1" stop-color="white"/>
</linearGradient>
<linearGradient id="paint19_linear_1029_7204" x1="51.0001" y1="10" x2="51.0001" y2="89" gradientUnits="userSpaceOnUse">
<stop stop-color="white"/>
<stop offset="1" stop-color="white"/>
</linearGradient>
<linearGradient id="paint20_linear_1029_7204" x1="51.0001" y1="10" x2="51.0001" y2="89" gradientUnits="userSpaceOnUse">
<stop stop-color="white"/>
<stop offset="1" stop-color="white"/>
</linearGradient>
<linearGradient id="paint21_linear_1029_7204" x1="51.0001" y1="10" x2="51.0001" y2="89" gradientUnits="userSpaceOnUse">
<stop stop-color="white"/>
<stop offset="1" stop-color="white"/>
</linearGradient>
<linearGradient id="paint22_linear_1029_7204" x1="51.0001" y1="10" x2="51.0001" y2="89" gradientUnits="userSpaceOnUse">
<stop stop-color="white"/>
<stop offset="1" stop-color="white"/>
</linearGradient>
<linearGradient id="paint23_linear_1029_7204" x1="51.0001" y1="10" x2="51.0001" y2="89" gradientUnits="userSpaceOnUse">
<stop stop-color="white"/>
<stop offset="1" stop-color="white"/>
</linearGradient>
<linearGradient id="paint24_linear_1029_7204" x1="51.0001" y1="10" x2="51.0001" y2="89" gradientUnits="userSpaceOnUse">
<stop stop-color="white"/>
<stop offset="1" stop-color="white"/>
</linearGradient>
<linearGradient id="paint25_linear_1029_7204" x1="51.0001" y1="10" x2="51.0001" y2="89" gradientUnits="userSpaceOnUse">
<stop stop-color="white"/>
<stop offset="1" stop-color="white"/>
</linearGradient>
<linearGradient id="paint26_linear_1029_7204" x1="51.0001" y1="10" x2="51.0001" y2="89" gradientUnits="userSpaceOnUse">
<stop stop-color="white"/>
<stop offset="1" stop-color="white"/>
</linearGradient>
<linearGradient id="paint27_linear_1029_7204" x1="51.0001" y1="10" x2="51.0001" y2="89" gradientUnits="userSpaceOnUse">
<stop stop-color="white"/>
<stop offset="1" stop-color="white"/>
</linearGradient>
<linearGradient id="paint28_linear_1029_7204" x1="51.0001" y1="10" x2="51.0001" y2="89" gradientUnits="userSpaceOnUse">
<stop stop-color="white"/>
<stop offset="1" stop-color="white"/>
</linearGradient>
<linearGradient id="paint29_linear_1029_7204" x1="51.0001" y1="10" x2="51.0001" y2="89" gradientUnits="userSpaceOnUse">
<stop stop-color="white"/>
<stop offset="1" stop-color="white"/>
</linearGradient>
</defs>
</svg>
