<svg width="29" height="20" viewBox="0 0 29 20" fill="none" xmlns="http://www.w3.org/2000/svg">
<ellipse cx="22.9076" cy="13.8551" rx="4.20444" ry="4.24058" fill="url(#paint0_linear_1099_3674)"/>
<ellipse cx="14.4974" cy="6.14494" rx="4.20444" ry="4.24058" fill="url(#paint1_linear_1099_3674)"/>
<ellipse cx="6.09116" cy="13.8551" rx="4.20444" ry="4.24058" fill="url(#paint2_linear_1099_3674)"/>
<g opacity="0.5">
<ellipse cx="22.9076" cy="13.8551" rx="4.20444" ry="4.24058" fill="url(#paint3_linear_1099_3674)" fill-opacity="0.3"/>
<ellipse cx="14.4974" cy="6.14494" rx="4.20444" ry="4.24058" fill="url(#paint4_linear_1099_3674)" fill-opacity="0.3"/>
<ellipse cx="6.09116" cy="13.8551" rx="4.20444" ry="4.24058" fill="url(#paint5_linear_1099_3674)" fill-opacity="0.3"/>
</g>
<path d="M14.4989 0.633362C11.4745 0.633362 9.02998 3.10503 9.02998 6.14496C9.02998 9.18488 11.4745 11.6566 14.4989 11.6566C17.5233 11.6566 19.9678 9.18488 19.9678 6.14496C19.9678 3.10503 17.5233 0.633362 14.4989 0.633362ZM6.08998 8.34351C3.06557 8.34351 0.621094 10.8152 0.621094 13.8551C0.621094 16.895 3.06557 19.3667 6.08998 19.3667C9.11439 19.3667 11.5589 16.895 11.5589 13.8551C11.5589 10.8152 9.11439 8.34351 6.08998 8.34351ZM22.9078 8.34351C19.8834 8.34351 17.4389 10.8152 17.4389 13.8551C17.4389 16.895 19.8834 19.3667 22.9078 19.3667C25.9322 19.3667 28.3766 16.895 28.3766 13.8551C28.3766 10.8152 25.9322 8.34351 22.9078 8.34351Z" stroke="url(#paint6_linear_1099_3674)"/>
<defs>
<linearGradient id="paint0_linear_1099_3674" x1="22.909" y1="18.2676" x2="22.9069" y2="9.73416" gradientUnits="userSpaceOnUse">
<stop offset="0.00202302" stop-color="#925BC0"/>
<stop offset="0.3" stop-color="#725BC1"/>
<stop offset="1" stop-color="#7B1AD8"/>
</linearGradient>
<linearGradient id="paint1_linear_1099_3674" x1="14.4989" y1="10.5574" x2="14.4967" y2="2.02401" gradientUnits="userSpaceOnUse">
<stop offset="0.00202302" stop-color="#925BC0"/>
<stop offset="0.3" stop-color="#725BC1"/>
<stop offset="1" stop-color="#7B1AD8"/>
</linearGradient>
<linearGradient id="paint2_linear_1099_3674" x1="6.09264" y1="18.2676" x2="6.09048" y2="9.73416" gradientUnits="userSpaceOnUse">
<stop offset="0.00202302" stop-color="#925BC0"/>
<stop offset="0.3" stop-color="#725BC1"/>
<stop offset="1" stop-color="#7B1AD8"/>
</linearGradient>
<linearGradient id="paint3_linear_1099_3674" x1="22.9076" y1="9.6145" x2="22.9076" y2="18.0957" gradientUnits="userSpaceOnUse">
<stop stop-color="white"/>
<stop offset="1" stop-color="white"/>
</linearGradient>
<linearGradient id="paint4_linear_1099_3674" x1="14.4974" y1="1.90436" x2="14.4974" y2="10.3855" gradientUnits="userSpaceOnUse">
<stop stop-color="white"/>
<stop offset="1" stop-color="white"/>
</linearGradient>
<linearGradient id="paint5_linear_1099_3674" x1="6.09116" y1="9.6145" x2="6.09116" y2="18.0957" gradientUnits="userSpaceOnUse">
<stop stop-color="white"/>
<stop offset="1" stop-color="white"/>
</linearGradient>
<linearGradient id="paint6_linear_1099_3674" x1="14.4976" y1="19.1165" x2="14.4976" y2="1.38355" gradientUnits="userSpaceOnUse">
<stop stop-color="#EDC7E0"/>
<stop offset="0.26" stop-color="#ECC7E2"/>
<stop offset="0.4" stop-color="#EACAEA"/>
<stop offset="0.5" stop-color="#E8CFF6"/>
<stop offset="0.66" stop-color="#E9D3F5"/>
<stop offset="0.82" stop-color="#EBDFF3"/>
<stop offset="0.95" stop-color="#F0F0F0"/>
</linearGradient>
</defs>
</svg>
