<svg width="31" height="21" viewBox="0 0 31 21" fill="none" xmlns="http://www.w3.org/2000/svg">
<path d="M15.5001 1.1333C12.3943 1.1333 9.85374 3.5885 9.85374 6.6449C9.85374 9.70129 12.3943 12.1565 15.5001 12.1565C18.6059 12.1565 21.1464 9.70129 21.1464 6.6449C21.1464 3.5885 18.6059 1.1333 15.5001 1.1333ZM6.79088 8.84345C3.68508 8.84345 1.14453 11.2986 1.14453 14.355C1.14453 17.4114 3.68508 19.8666 6.79088 19.8666C9.89668 19.8666 12.4372 17.4114 12.4372 14.355C12.4372 11.2986 9.89668 8.84345 6.79088 8.84345ZM24.2093 8.84345C21.1035 8.84345 18.5629 11.2986 18.5629 14.355C18.5629 17.4114 21.1035 19.8666 24.2093 19.8666C27.3151 19.8666 29.8556 17.4114 29.8556 14.355C29.8556 11.2986 27.3151 8.84345 24.2093 8.84345Z" stroke="url(#paint0_linear_1960_5376)"/>
<defs>
<linearGradient id="paint0_linear_1960_5376" x1="15.4988" y1="19.6165" x2="15.4988" y2="1.88349" gradientUnits="userSpaceOnUse">
<stop stop-color="#EDC7E0"/>
<stop offset="0.26" stop-color="#ECC7E2"/>
<stop offset="0.4" stop-color="#EACAEA"/>
<stop offset="0.5" stop-color="#E8CFF6"/>
<stop offset="0.66" stop-color="#E9D3F5"/>
<stop offset="0.82" stop-color="#EBDFF3"/>
<stop offset="0.95" stop-color="#F0F0F0"/>
</linearGradient>
</defs>
</svg>
