<svg width="178" height="170" viewBox="0 0 178 170" fill="none" xmlns="http://www.w3.org/2000/svg">
<g filter="url(#filter0_bd_1715_248)">
<path d="M56.8948 125.138C53.727 129.662 47.4163 130.815 43.4914 126.929C38.7002 122.186 34.7395 116.639 31.8026 110.515C27.4179 101.374 25.463 91.2563 26.1265 81.1392C26.7899 71.022 30.0494 61.2466 35.5904 52.7558C41.1313 44.265 48.7669 37.3454 57.7605 32.6645C66.7541 27.9835 76.8022 25.6991 86.9356 26.0318C97.069 26.3644 106.946 29.3027 115.613 34.5634C124.28 39.8241 131.446 47.2295 136.418 56.0654C139.748 61.9839 142.02 68.4103 143.156 75.0558C144.087 80.4996 139.523 85.0076 134 85.0069L90.2066 85.0007C86.9434 85.0003 83.8853 86.592 82.0136 89.265L56.8948 125.138Z" fill="url(#paint0_linear_1715_248)"/>
</g>
<g filter="url(#filter1_bd_1715_248)">
<path d="M121.317 71.7229C126.512 69.85 132.356 72.5524 133.121 78.0221C133.971 84.1014 133.659 90.3182 132.167 96.3356C129.867 105.607 124.87 113.989 117.808 120.421C110.745 126.853 101.933 131.046 92.4874 132.47C83.0415 133.894 73.3855 132.485 64.7403 128.421C56.0952 124.358 48.8492 117.822 43.9188 109.64C38.9884 101.458 36.5949 91.9975 37.041 82.4553C37.4871 72.913 40.7528 63.7174 46.4251 56.0312C50.1064 51.0429 54.694 46.8358 59.9174 43.6114C64.617 40.7104 70.4264 43.4858 72.2994 48.6813L81.8961 75.3035C83.769 80.499 89.4992 83.1926 94.6947 81.3197L121.317 71.7229Z" fill="#727DEF" fill-opacity="0.5"/>
</g>
<path d="M109.027 112.158C99.9517 122.23 84.1416 125.041 71.7948 119.746C67.6585 118.001 63.8846 115.429 60.9441 112.158C64.6663 114.487 68.5437 116.34 72.5868 117.572C84.8612 121.438 98.2485 119.13 109.027 112.158ZM53.769 101.702C54.473 102.872 55.467 103.871 56.6887 104.575C74.202 114.684 95.774 114.684 113.282 104.575C114.504 103.871 115.498 102.872 116.202 101.697C96.1001 92.8404 73.8707 92.8559 53.769 101.697V101.702ZM113.287 62.4721L89.0751 48.4966C86.5488 47.0369 83.4323 47.0369 80.906 48.4966L56.6939 62.4721C54.1676 63.9318 52.6094 66.6285 52.6094 69.5479V97.504C52.6094 98.9223 52.9821 100.289 53.6499 101.49C59.2823 97.6231 65.6654 94.947 72.3435 93.4667V82.8091C72.3435 81.5202 73.032 80.3349 74.1451 79.6879L83.1942 74.4652C84.3072 73.8233 85.6843 73.8233 86.7973 74.4652L95.8464 79.6879C96.9594 80.3297 97.648 81.5202 97.648 82.8091V93.4719C104.321 94.9522 110.704 97.6283 116.342 101.49C117.009 100.294 117.382 98.9275 117.382 97.504V69.5479C117.382 66.6285 115.824 63.9318 113.298 62.4721H113.287Z" fill="#ECECEC"/>
<g filter="url(#filter2_bif_1715_248)">
<path d="M109.027 112.158C99.9517 122.23 84.1416 125.041 71.7948 119.746C67.6585 118.001 63.8846 115.429 60.9441 112.158C64.6663 114.487 68.5437 116.34 72.5868 117.572C84.8612 121.438 98.2485 119.13 109.027 112.158ZM53.769 101.702C54.473 102.872 55.467 103.871 56.6887 104.575C74.202 114.684 95.774 114.684 113.282 104.575C114.504 103.871 115.498 102.872 116.202 101.697C96.1001 92.8404 73.8707 92.8559 53.769 101.697V101.702ZM113.287 62.4721L89.0751 48.4966C86.5488 47.0369 83.4323 47.0369 80.906 48.4966L56.6939 62.4721C54.1676 63.9318 52.6094 66.6285 52.6094 69.5479V97.504C52.6094 98.9223 52.9821 100.289 53.6499 101.49C59.2823 97.6231 65.6654 94.947 72.3435 93.4667V82.8091C72.3435 81.5202 73.032 80.3349 74.1451 79.6879L83.1942 74.4652C84.3072 73.8233 85.6843 73.8233 86.7973 74.4652L95.8464 79.6879C96.9594 80.3297 97.648 81.5202 97.648 82.8091V93.4719C104.321 94.9522 110.704 97.6283 116.342 101.49C117.009 100.294 117.382 98.9275 117.382 97.504V69.5479C117.382 66.6285 115.824 63.9318 113.298 62.4721H113.287Z" fill="url(#paint1_linear_1715_248)"/>
</g>
<g filter="url(#filter3_bdi_1715_248)">
<path d="M109.027 112.158C99.9517 122.23 84.1416 125.041 71.7948 119.746C67.6585 118.001 63.8846 115.429 60.9441 112.158C64.6663 114.487 68.5437 116.34 72.5868 117.572C84.8612 121.438 98.2485 119.13 109.027 112.158ZM53.769 101.702C54.473 102.872 55.467 103.871 56.6887 104.575C74.202 114.684 95.774 114.684 113.282 104.575C114.504 103.871 115.498 102.872 116.202 101.697C96.1001 92.8404 73.8707 92.8559 53.769 101.697V101.702ZM113.287 62.4721L89.0751 48.4966C86.5488 47.0369 83.4323 47.0369 80.906 48.4966L56.6939 62.4721C54.1676 63.9318 52.6094 66.6285 52.6094 69.5479V97.504C52.6094 98.9223 52.9821 100.289 53.6499 101.49C59.2823 97.6231 65.6654 94.947 72.3435 93.4667V82.8091C72.3435 81.5202 73.032 80.3349 74.1451 79.6879L83.1942 74.4652C84.3072 73.8233 85.6843 73.8233 86.7973 74.4652L95.8464 79.6879C96.9594 80.3297 97.648 81.5202 97.648 82.8091V93.4719C104.321 94.9522 110.704 97.6283 116.342 101.49C117.009 100.294 117.382 98.9275 117.382 97.504V69.5479C117.382 66.6285 115.824 63.9318 113.298 62.4721H113.287Z" fill="url(#paint2_linear_1715_248)" fill-opacity="0.3"/>
</g>
<defs>
<filter id="filter0_bd_1715_248" x="0" y="0" width="177.277" height="163.283" filterUnits="userSpaceOnUse" color-interpolation-filters="sRGB">
<feFlood flood-opacity="0" result="BackgroundImageFix"/>
<feGaussianBlur in="BackgroundImageFix" stdDeviation="10"/>
<feComposite in2="SourceAlpha" operator="in" result="effect1_backgroundBlur_1715_248"/>
<feColorMatrix in="SourceAlpha" type="matrix" values="0 0 0 0 0 0 0 0 0 0 0 0 0 0 0 0 0 0 127 0" result="hardAlpha"/>
<feOffset dx="4" dy="4"/>
<feGaussianBlur stdDeviation="15"/>
<feColorMatrix type="matrix" values="0 0 0 0 1 0 0 0 0 1 0 0 0 0 1 0 0 0 0.5 0"/>
<feBlend mode="normal" in2="effect1_backgroundBlur_1715_248" result="effect2_dropShadow_1715_248"/>
<feBlend mode="normal" in="SourceGraphic" in2="effect2_dropShadow_1715_248" result="shape"/>
</filter>
<filter id="filter1_bd_1715_248" x="13.1124" y="18.5621" width="156.598" height="150.572" filterUnits="userSpaceOnUse" color-interpolation-filters="sRGB">
<feFlood flood-opacity="0" result="BackgroundImageFix"/>
<feGaussianBlur in="BackgroundImageFix" stdDeviation="5"/>
<feComposite in2="SourceAlpha" operator="in" result="effect1_backgroundBlur_1715_248"/>
<feColorMatrix in="SourceAlpha" type="matrix" values="0 0 0 0 0 0 0 0 0 0 0 0 0 0 0 0 0 0 127 0" result="hardAlpha"/>
<feOffset dx="6.12409" dy="6.12409"/>
<feGaussianBlur stdDeviation="15"/>
<feColorMatrix type="matrix" values="0 0 0 0 0.45098 0 0 0 0 0 0 0 0 0 0.964706 0 0 0 0.3 0"/>
<feBlend mode="normal" in2="effect1_backgroundBlur_1715_248" result="effect2_dropShadow_1715_248"/>
<feBlend mode="normal" in="SourceGraphic" in2="effect2_dropShadow_1715_248" result="shape"/>
</filter>
<filter id="filter2_bif_1715_248" x="32.6094" y="27.4019" width="104.773" height="114.969" filterUnits="userSpaceOnUse" color-interpolation-filters="sRGB">
<feFlood flood-opacity="0" result="BackgroundImageFix"/>
<feGaussianBlur in="BackgroundImageFix" stdDeviation="10"/>
<feComposite in2="SourceAlpha" operator="in" result="effect1_backgroundBlur_1715_248"/>
<feBlend mode="normal" in="SourceGraphic" in2="effect1_backgroundBlur_1715_248" result="shape"/>
<feColorMatrix in="SourceAlpha" type="matrix" values="0 0 0 0 0 0 0 0 0 0 0 0 0 0 0 0 0 0 127 0" result="hardAlpha"/>
<feOffset dx="4" dy="4"/>
<feGaussianBlur stdDeviation="2"/>
<feComposite in2="hardAlpha" operator="arithmetic" k2="-1" k3="1"/>
<feColorMatrix type="matrix" values="0 0 0 0 1 0 0 0 0 1 0 0 0 0 1 0 0 0 0.56 0"/>
<feBlend mode="normal" in2="shape" result="effect2_innerShadow_1715_248"/>
<feGaussianBlur stdDeviation="5" result="effect3_foregroundBlur_1715_248"/>
</filter>
<filter id="filter3_bdi_1715_248" x="22.6094" y="17.4019" width="124.773" height="134.969" filterUnits="userSpaceOnUse" color-interpolation-filters="sRGB">
<feFlood flood-opacity="0" result="BackgroundImageFix"/>
<feGaussianBlur in="BackgroundImageFix" stdDeviation="10"/>
<feComposite in2="SourceAlpha" operator="in" result="effect1_backgroundBlur_1715_248"/>
<feColorMatrix in="SourceAlpha" type="matrix" values="0 0 0 0 0 0 0 0 0 0 0 0 0 0 0 0 0 0 127 0" result="hardAlpha"/>
<feOffset/>
<feGaussianBlur stdDeviation="15"/>
<feComposite in2="hardAlpha" operator="out"/>
<feColorMatrix type="matrix" values="0 0 0 0 0.45098 0 0 0 0 0 0 0 0 0 0.964706 0 0 0 0.3 0"/>
<feBlend mode="normal" in2="effect1_backgroundBlur_1715_248" result="effect2_dropShadow_1715_248"/>
<feBlend mode="normal" in="SourceGraphic" in2="effect2_dropShadow_1715_248" result="shape"/>
<feColorMatrix in="SourceAlpha" type="matrix" values="0 0 0 0 0 0 0 0 0 0 0 0 0 0 0 0 0 0 127 0" result="hardAlpha"/>
<feOffset dx="2" dy="4"/>
<feGaussianBlur stdDeviation="2"/>
<feComposite in2="hardAlpha" operator="arithmetic" k2="-1" k3="1"/>
<feColorMatrix type="matrix" values="0 0 0 0 1 0 0 0 0 1 0 0 0 0 1 0 0 0 0.43 0"/>
<feBlend mode="normal" in2="shape" result="effect3_innerShadow_1715_248"/>
</filter>
<linearGradient id="paint0_linear_1715_248" x1="84.9945" y1="145.662" x2="84.9945" y2="27.6648" gradientUnits="userSpaceOnUse">
<stop stop-color="#EDC7E0"/>
<stop offset="0.26" stop-color="#ECC7E2"/>
<stop offset="0.4" stop-color="#EACAEA"/>
<stop offset="0.5" stop-color="#E8CFF6"/>
<stop offset="0.66" stop-color="#E9D3F5"/>
<stop offset="0.82" stop-color="#EBDFF3"/>
<stop offset="0.95" stop-color="#F0F0F0"/>
</linearGradient>
<linearGradient id="paint1_linear_1715_248" x1="117.382" y1="47.4019" x2="63.8758" y2="101.47" gradientUnits="userSpaceOnUse">
<stop stop-color="white"/>
<stop offset="1" stop-color="white" stop-opacity="0.3"/>
</linearGradient>
<linearGradient id="paint2_linear_1715_248" x1="84.9958" y1="47.4019" x2="84.9958" y2="122.37" gradientUnits="userSpaceOnUse">
<stop stop-color="white"/>
<stop offset="1" stop-color="white"/>
</linearGradient>
</defs>
</svg>
