<svg width="21" height="30" viewBox="0 0 21 30" fill="none" xmlns="http://www.w3.org/2000/svg">
<path d="M13.8556 10.0311C10.8157 10.0311 8.344 12.4756 8.344 15.5C8.344 18.5244 10.8157 20.9689 13.8556 20.9689C16.8955 20.9689 19.3672 18.5244 19.3672 15.5C19.3672 12.4756 16.8955 10.0311 13.8556 10.0311ZM6.14545 1.62219C3.10552 1.62219 0.633854 4.06667 0.633854 7.09108C0.633854 10.1155 3.10552 12.56 6.14545 12.56C9.18537 12.56 11.657 10.1155 11.657 7.09108C11.657 4.06667 9.18537 1.62219 6.14545 1.62219ZM6.14545 18.44C3.10552 18.44 0.633854 20.8845 0.633854 23.9089C0.633854 26.9333 3.10552 29.3777 6.14545 29.3777C9.18537 29.3777 11.657 26.9333 11.657 23.9089C11.657 20.8845 9.18537 18.44 6.14545 18.44Z" stroke="url(#paint0_linear_1099_3735)"/>
<defs>
<linearGradient id="paint0_linear_1099_3735" x1="0.884031" y1="15.4987" x2="18.617" y2="15.4987" gradientUnits="userSpaceOnUse">
<stop stop-color="#EDC7E0"/>
<stop offset="0.26" stop-color="#ECC7E2"/>
<stop offset="0.4" stop-color="#EACAEA"/>
<stop offset="0.5" stop-color="#E8CFF6"/>
<stop offset="0.66" stop-color="#E9D3F5"/>
<stop offset="0.82" stop-color="#EBDFF3"/>
<stop offset="0.95" stop-color="#F0F0F0"/>
</linearGradient>
</defs>
</svg>
