<svg width="30" height="30" viewBox="0 0 30 30" fill="none" xmlns="http://www.w3.org/2000/svg">
<circle cx="15" cy="15" r="14.4" transform="matrix(-1 0 0 1 30 0)" stroke="#24284D" stroke-width="1.2"/>
<path d="M21 14.25C21.4142 14.25 21.75 14.5858 21.75 15C21.75 15.4142 21.4142 15.75 21 15.75V14.25ZM9.07295 15.5303C8.78005 15.2374 8.78005 14.7626 9.07295 14.4697L13.8459 9.6967C14.1388 9.40381 14.6137 9.40381 14.9066 9.6967C15.1995 9.98959 15.1995 10.4645 14.9066 10.7574L10.6639 15L14.9066 19.2426C15.1995 19.5355 15.1995 20.0104 14.9066 20.3033C14.6137 20.5962 14.1388 20.5962 13.8459 20.3033L9.07295 15.5303ZM21 15.75L9.60328 15.75V14.25L21 14.25V15.75Z" fill="#373E65"/>
</svg>
