<svg width="30" height="30" viewBox="0 0 30 30" fill="none" xmlns="http://www.w3.org/2000/svg">
<circle cx="15" cy="15" r="14.4" stroke="#24284D" stroke-width="1.2"/>
<path d="M9 14.25C8.58579 14.25 8.25 14.5858 8.25 15C8.25 15.4142 8.58579 15.75 9 15.75V14.25ZM20.9271 15.5303C21.2199 15.2374 21.2199 14.7626 20.9271 14.4697L16.1541 9.6967C15.8612 9.40381 15.3863 9.40381 15.0934 9.6967C14.8005 9.98959 14.8005 10.4645 15.0934 10.7574L19.3361 15L15.0934 19.2426C14.8005 19.5355 14.8005 20.0104 15.0934 20.3033C15.3863 20.5962 15.8612 20.5962 16.1541 20.3033L20.9271 15.5303ZM9 15.75L20.3967 15.75V14.25L9 14.25V15.75Z" fill="#373E65"/>
</svg>
