<svg width="13" height="14" viewBox="0 0 13 14" fill="none" xmlns="http://www.w3.org/2000/svg">
<g filter="url(#filter0_bi_2137_5693)">
<path d="M0 11.8466C0 10.9584 0.52721 10.159 1.32478 9.84111L5.77227 8.05069C6.27695 7.84968 6.92132 7.61127 7.48458 7.41493C7.89463 7.27001 7.89012 6.67165 7.48458 6.53141C6.92582 6.33975 6.28596 6.11536 5.77227 5.92837L1.36984 4.28287C0.54974 3.96499 0 3.15627 0 2.24937V2.15588C0 0.617895 1.50953 -0.424567 2.87938 0.169122L10.8461 3.63776C12.1484 4.20808 13 5.53102 13 6.99888C13 8.46674 12.1529 9.78969 10.8461 10.36L2.87938 13.8286C1.50953 14.427 0 13.3845 0 11.8466Z" fill="#33004F"/>
<path d="M0 11.8466C0 10.9584 0.52721 10.159 1.32478 9.84111L5.77227 8.05069C6.27695 7.84968 6.92132 7.61127 7.48458 7.41493C7.89463 7.27001 7.89012 6.67165 7.48458 6.53141C6.92582 6.33975 6.28596 6.11536 5.77227 5.92837L1.36984 4.28287C0.54974 3.96499 0 3.15627 0 2.24937V2.15588C0 0.617895 1.50953 -0.424567 2.87938 0.169122L10.8461 3.63776C12.1484 4.20808 13 5.53102 13 6.99888C13 8.46674 12.1529 9.78969 10.8461 10.36L2.87938 13.8286C1.50953 14.427 0 13.3845 0 11.8466Z" fill="#33004F"/>
</g>
<defs>
<filter id="filter0_bi_2137_5693" x="-20" y="-20" width="53" height="54" filterUnits="userSpaceOnUse" color-interpolation-filters="sRGB">
<feFlood flood-opacity="0" result="BackgroundImageFix"/>
<feGaussianBlur in="BackgroundImageFix" stdDeviation="10"/>
<feComposite in2="SourceAlpha" operator="in" result="effect1_backgroundBlur_2137_5693"/>
<feBlend mode="normal" in="SourceGraphic" in2="effect1_backgroundBlur_2137_5693" result="shape"/>
<feColorMatrix in="SourceAlpha" type="matrix" values="0 0 0 0 0 0 0 0 0 0 0 0 0 0 0 0 0 0 127 0" result="hardAlpha"/>
<feOffset dx="2" dy="1"/>
<feGaussianBlur stdDeviation="1"/>
<feComposite in2="hardAlpha" operator="arithmetic" k2="-1" k3="1"/>
<feColorMatrix type="matrix" values="0 0 0 0 0.52549 0 0 0 0 0.521569 0 0 0 0 0.521569 0 0 0 1 0"/>
<feBlend mode="normal" in2="shape" result="effect2_innerShadow_2137_5693"/>
</filter>
</defs>
</svg>
