<svg width="20" height="20" viewBox="24 24 21 21" fill="none" xmlns="http://www.w3.org/2000/svg">
<g filter="url(#filter0_bd_1797_3420)">
<g filter="url(#filter1_bd_1797_3420)">
<circle cx="34.5" cy="34" r="10" fill="#C21AD6"/>
</g>
<g filter="url(#filter2_bi_1797_3420)">
<path d="M30.5419 39V36.6C30.5419 36.12 30.6219 35.7 30.7819 35.34C30.9519 34.97 31.2119 34.645 31.5619 34.365C31.9219 34.085 32.3869 33.825 32.9569 33.585L34.6219 32.88C35.0519 32.7 35.3619 32.485 35.5519 32.235C35.7519 31.985 35.8519 31.67 35.8519 31.29C35.8519 30.94 35.7319 30.645 35.4919 30.405C35.2619 30.155 34.9219 30.03 34.4719 30.03C34.0119 30.03 33.6669 30.16 33.4369 30.42C33.2069 30.67 33.0919 31.01 33.0919 31.44H30.3919C30.3919 30.72 30.5469 30.08 30.8569 29.52C31.1669 28.96 31.6219 28.52 32.2219 28.2C32.8319 27.88 33.5819 27.72 34.4719 27.72C35.3519 27.72 36.0919 27.875 36.6919 28.185C37.3019 28.485 37.7619 28.9 38.0719 29.43C38.3919 29.95 38.5519 30.54 38.5519 31.2V31.38C38.5519 32.23 38.3219 32.93 37.8619 33.48C37.4019 34.03 36.6619 34.525 35.6419 34.965L33.9769 35.67C33.7369 35.77 33.5569 35.88 33.4369 36C33.3269 36.12 33.2719 36.28 33.2719 36.48V37.02L32.6269 36.6H38.5219V39H30.5419Z" fill="url(#paint0_linear_1797_3420)"/>
</g>
</g>
<defs>
<filter id="filter0_bd_1797_3420" x="24" y="24" width="21" height="21" filterUnits="userSpaceOnUse" color-interpolation-filters="sRGB">
<feFlood flood-opacity="0" result="BackgroundImageFix"/>
<feGaussianBlur in="BackgroundImageFix" stdDeviation="5"/>
<feComposite in2="SourceAlpha" operator="in" result="effect1_backgroundBlur_1797_3420"/>
<feColorMatrix in="SourceAlpha" type="matrix" values="0 0 0 0 0 0 0 0 0 0 0 0 0 0 0 0 0 0 127 0" result="hardAlpha"/>
<feOffset dx="6.12409" dy="6.12409"/>
<feGaussianBlur stdDeviation="15"/>
<feColorMatrix type="matrix" values="0 0 0 0 1 0 0 0 0 1 0 0 0 0 1 0 0 0 0.3 0"/>
<feBlend mode="normal" in2="effect1_backgroundBlur_1797_3420" result="effect2_dropShadow_1797_3420"/>
<feBlend mode="normal" in="SourceGraphic" in2="effect2_dropShadow_1797_3420" result="shape"/>
</filter>
<filter id="filter1_bd_1797_3420" x="0.624094" y="0.124094" width="80" height="80" filterUnits="userSpaceOnUse" color-interpolation-filters="sRGB">
<feFlood flood-opacity="0" result="BackgroundImageFix"/>
<feGaussianBlur in="BackgroundImageFix" stdDeviation="5"/>
<feComposite in2="SourceAlpha" operator="in" result="effect1_backgroundBlur_1797_3420"/>
<feColorMatrix in="SourceAlpha" type="matrix" values="0 0 0 0 0 0 0 0 0 0 0 0 0 0 0 0 0 0 127 0" result="hardAlpha"/>
<feOffset dx="6.12409" dy="6.12409"/>
<feGaussianBlur stdDeviation="15"/>
<feColorMatrix type="matrix" values="0 0 0 0 1 0 0 0 0 1 0 0 0 0 1 0 0 0 0.2 0"/>
<feBlend mode="normal" in2="effect1_backgroundBlur_1797_3420" result="effect2_dropShadow_1797_3420"/>
<feBlend mode="normal" in="SourceGraphic" in2="effect2_dropShadow_1797_3420" result="shape"/>
</filter>
<filter id="filter2_bi_1797_3420" x="20.3906" y="17.7202" width="28.1602" height="31.2798" filterUnits="userSpaceOnUse" color-interpolation-filters="sRGB">
<feFlood flood-opacity="0" result="BackgroundImageFix"/>
<feGaussianBlur in="BackgroundImageFix" stdDeviation="5"/>
<feComposite in2="SourceAlpha" operator="in" result="effect1_backgroundBlur_1797_3420"/>
<feBlend mode="normal" in="SourceGraphic" in2="effect1_backgroundBlur_1797_3420" result="shape"/>
<feColorMatrix in="SourceAlpha" type="matrix" values="0 0 0 0 0 0 0 0 0 0 0 0 0 0 0 0 0 0 127 0" result="hardAlpha"/>
<feOffset dx="2" dy="2"/>
<feGaussianBlur stdDeviation="2.5"/>
<feComposite in2="hardAlpha" operator="arithmetic" k2="-1" k3="1"/>
<feColorMatrix type="matrix" values="0 0 0 0 1 0 0 0 0 1 0 0 0 0 1 0 0 0 0.5 0"/>
<feBlend mode="normal" in2="shape" result="effect2_innerShadow_1797_3420"/>
</filter>
<linearGradient id="paint0_linear_1797_3420" x1="34.5" y1="24" x2="34.5" y2="44" gradientUnits="userSpaceOnUse">
<stop stop-color="white"/>
<stop offset="1" stop-color="white"/>
</linearGradient>
</defs>
</svg>
