<svg width="81" height="81" viewBox="0 0 81 81" fill="none" xmlns="http://www.w3.org/2000/svg">
<g filter="url(#filter0_bd_1704_5058)">
<g filter="url(#filter1_bd_1704_5058)">
<circle cx="34" cy="34" r="10" fill="url(#paint0_linear_1704_5058)"/>
</g>
<g opacity="0.3" filter="url(#filter2_bi_1704_5058)">
<circle cx="34" cy="34" r="10" fill="url(#paint1_linear_1704_5058)" fill-opacity="0.3"/>
</g>
<g filter="url(#filter3_bi_1704_5058)">
<path d="M34.0398 38.24C33.3358 38.24 32.7238 38.108 32.2038 37.844C31.6918 37.572 31.2958 37.208 31.0158 36.752C30.7358 36.296 30.5958 35.784 30.5958 35.216H32.7558C32.7558 35.456 32.8118 35.664 32.9238 35.84C33.0358 36.016 33.1918 36.152 33.3918 36.248C33.5918 36.344 33.8158 36.392 34.0638 36.392C34.3518 36.392 34.5918 36.332 34.7838 36.212C34.9838 36.092 35.1318 35.928 35.2278 35.72C35.3318 35.512 35.3838 35.276 35.3838 35.012C35.3838 34.748 35.3318 34.512 35.2278 34.304C35.1318 34.096 34.9878 33.932 34.7958 33.812C34.6038 33.692 34.3678 33.632 34.0878 33.632C33.8078 33.632 33.5638 33.696 33.3558 33.824C33.1478 33.944 32.9958 34.096 32.8998 34.28H30.7998L31.2438 29.24H36.7998V31.16H32.0598L32.9718 30.62L32.7318 33.272L32.2278 33.152C32.4678 32.848 32.7558 32.588 33.0918 32.372C33.4358 32.156 33.9078 32.048 34.5078 32.048C35.1318 32.048 35.6678 32.176 36.1158 32.432C36.5718 32.68 36.9238 33.024 37.1718 33.464C37.4198 33.896 37.5438 34.392 37.5438 34.952V35.096C37.5438 35.656 37.4078 36.176 37.1358 36.656C36.8638 37.128 36.4678 37.512 35.9478 37.808C35.4278 38.096 34.7918 38.24 34.0398 38.24Z" fill="url(#paint2_linear_1704_5058)"/>
</g>
</g>
<defs>
<filter id="filter0_bd_1704_5058" x="0.124094" y="0.124094" width="80" height="80" filterUnits="userSpaceOnUse" color-interpolation-filters="sRGB">
<feFlood flood-opacity="0" result="BackgroundImageFix"/>
<feGaussianBlur in="BackgroundImageFix" stdDeviation="5"/>
<feComposite in2="SourceAlpha" operator="in" result="effect1_backgroundBlur_1704_5058"/>
<feColorMatrix in="SourceAlpha" type="matrix" values="0 0 0 0 0 0 0 0 0 0 0 0 0 0 0 0 0 0 127 0" result="hardAlpha"/>
<feOffset dx="6.12409" dy="6.12409"/>
<feGaussianBlur stdDeviation="15"/>
<feColorMatrix type="matrix" values="0 0 0 0 1 0 0 0 0 1 0 0 0 0 1 0 0 0 0.3 0"/>
<feBlend mode="normal" in2="effect1_backgroundBlur_1704_5058" result="effect2_dropShadow_1704_5058"/>
<feBlend mode="normal" in="SourceGraphic" in2="effect2_dropShadow_1704_5058" result="shape"/>
</filter>
<filter id="filter1_bd_1704_5058" x="0.124094" y="0.124094" width="80" height="80" filterUnits="userSpaceOnUse" color-interpolation-filters="sRGB">
<feFlood flood-opacity="0" result="BackgroundImageFix"/>
<feGaussianBlur in="BackgroundImageFix" stdDeviation="5"/>
<feComposite in2="SourceAlpha" operator="in" result="effect1_backgroundBlur_1704_5058"/>
<feColorMatrix in="SourceAlpha" type="matrix" values="0 0 0 0 0 0 0 0 0 0 0 0 0 0 0 0 0 0 127 0" result="hardAlpha"/>
<feOffset dx="6.12409" dy="6.12409"/>
<feGaussianBlur stdDeviation="15"/>
<feColorMatrix type="matrix" values="0 0 0 0 1 0 0 0 0 1 0 0 0 0 1 0 0 0 0.2 0"/>
<feBlend mode="normal" in2="effect1_backgroundBlur_1704_5058" result="effect2_dropShadow_1704_5058"/>
<feBlend mode="normal" in="SourceGraphic" in2="effect2_dropShadow_1704_5058" result="shape"/>
</filter>
<filter id="filter2_bi_1704_5058" x="14" y="14" width="40" height="40" filterUnits="userSpaceOnUse" color-interpolation-filters="sRGB">
<feFlood flood-opacity="0" result="BackgroundImageFix"/>
<feGaussianBlur in="BackgroundImageFix" stdDeviation="5"/>
<feComposite in2="SourceAlpha" operator="in" result="effect1_backgroundBlur_1704_5058"/>
<feBlend mode="normal" in="SourceGraphic" in2="effect1_backgroundBlur_1704_5058" result="shape"/>
<feColorMatrix in="SourceAlpha" type="matrix" values="0 0 0 0 0 0 0 0 0 0 0 0 0 0 0 0 0 0 127 0" result="hardAlpha"/>
<feOffset dx="9" dy="6"/>
<feGaussianBlur stdDeviation="4"/>
<feComposite in2="hardAlpha" operator="arithmetic" k2="-1" k3="1"/>
<feColorMatrix type="matrix" values="0 0 0 0 1 0 0 0 0 1 0 0 0 0 1 0 0 0 0.4 0"/>
<feBlend mode="normal" in2="shape" result="effect2_innerShadow_1704_5058"/>
</filter>
<filter id="filter3_bi_1704_5058" x="20.5977" y="19.2402" width="26.9453" height="29" filterUnits="userSpaceOnUse" color-interpolation-filters="sRGB">
<feFlood flood-opacity="0" result="BackgroundImageFix"/>
<feGaussianBlur in="BackgroundImageFix" stdDeviation="5"/>
<feComposite in2="SourceAlpha" operator="in" result="effect1_backgroundBlur_1704_5058"/>
<feBlend mode="normal" in="SourceGraphic" in2="effect1_backgroundBlur_1704_5058" result="shape"/>
<feColorMatrix in="SourceAlpha" type="matrix" values="0 0 0 0 0 0 0 0 0 0 0 0 0 0 0 0 0 0 127 0" result="hardAlpha"/>
<feOffset dx="2" dy="2"/>
<feGaussianBlur stdDeviation="2.5"/>
<feComposite in2="hardAlpha" operator="arithmetic" k2="-1" k3="1"/>
<feColorMatrix type="matrix" values="0 0 0 0 1 0 0 0 0 1 0 0 0 0 1 0 0 0 0.5 0"/>
<feBlend mode="normal" in2="shape" result="effect2_innerShadow_1704_5058"/>
</filter>
<linearGradient id="paint0_linear_1704_5058" x1="34.0035" y1="44.4054" x2="33.9985" y2="24.2822" gradientUnits="userSpaceOnUse">
<stop stop-color="#C21AD6"/>
<stop offset="0.5" stop-color="#7B1AD8"/>
<stop offset="1" stop-color="#7B1AD8"/>
</linearGradient>
<linearGradient id="paint1_linear_1704_5058" x1="34" y1="24" x2="34" y2="44" gradientUnits="userSpaceOnUse">
<stop stop-color="white"/>
<stop offset="1" stop-color="white"/>
</linearGradient>
<linearGradient id="paint2_linear_1704_5058" x1="34" y1="24" x2="34" y2="44" gradientUnits="userSpaceOnUse">
<stop stop-color="white"/>
<stop offset="1" stop-color="white"/>
</linearGradient>
</defs>
</svg>
