<svg width="20" height="20" viewBox="24 24 21 21" fill="none" xmlns="http://www.w3.org/2000/svg">
<g filter="url(#filter0_bd_1993_5433)">
<circle cx="34" cy="34" r="10" fill="#7B1AD8"/>
</g>
<g filter="url(#filter1_bi_1993_5433)">
<path d="M33.8947 41.36C32.8627 41.36 31.9627 41.174 31.1947 40.802C30.4267 40.418 29.8327 39.902 29.4127 39.254C29.0047 38.594 28.8007 37.844 28.8007 37.004H32.0407C32.0407 37.472 32.2027 37.856 32.5267 38.156C32.8507 38.444 33.3067 38.588 33.8947 38.588C34.2907 38.588 34.6267 38.516 34.9027 38.372C35.1787 38.216 35.3887 38.012 35.5327 37.76C35.6767 37.496 35.7487 37.202 35.7487 36.878C35.7487 36.386 35.5867 35.978 35.2627 35.654C34.9507 35.33 34.4947 35.168 33.8947 35.168C33.5467 35.168 33.2347 35.222 32.9587 35.33C32.6947 35.438 32.4667 35.576 32.2747 35.744L30.7807 33.26L34.4167 31.028L34.2547 30.74H29.3587V27.86H38.5027V30.722L33.7687 33.602L32.2567 33.044C32.5087 32.972 32.7727 32.918 33.0487 32.882C33.3367 32.846 33.6307 32.828 33.9307 32.828C34.9627 32.828 35.8567 32.99 36.6127 33.314C37.3687 33.638 37.9507 34.106 38.3587 34.718C38.7787 35.318 38.9887 36.038 38.9887 36.878V37.094C38.9887 37.922 38.7787 38.66 38.3587 39.308C37.9507 39.944 37.3627 40.448 36.5947 40.82C35.8387 41.18 34.9387 41.36 33.8947 41.36Z" fill="url(#paint0_linear_1993_5433)"/>
</g>
<defs>
<filter id="filter0_bd_1993_5433" x="24" y="24" width="21" height="21" filterUnits="userSpaceOnUse" color-interpolation-filters="sRGB">
<feFlood flood-opacity="0" result="BackgroundImageFix"/>
<feGaussianBlur in="BackgroundImageFix" stdDeviation="5"/>
<feComposite in2="SourceAlpha" operator="in" result="effect1_backgroundBlur_1993_5433"/>
<feColorMatrix in="SourceAlpha" type="matrix" values="0 0 0 0 0 0 0 0 0 0 0 0 0 0 0 0 0 0 127 0" result="hardAlpha"/>
<feOffset dx="6.12409" dy="6.12409"/>
<feGaussianBlur stdDeviation="15"/>
<feColorMatrix type="matrix" values="0 0 0 0 1 0 0 0 0 1 0 0 0 0 1 0 0 0 0.2 0"/>
<feBlend mode="normal" in2="effect1_backgroundBlur_1993_5433" result="effect2_dropShadow_1993_5433"/>
<feBlend mode="normal" in="SourceGraphic" in2="effect2_dropShadow_1993_5433" result="shape"/>
</filter>
<filter id="filter1_bi_1993_5433" x="18.8008" y="17.8599" width="30.1875" height="33.5" filterUnits="userSpaceOnUse" color-interpolation-filters="sRGB">
<feFlood flood-opacity="0" result="BackgroundImageFix"/>
<feGaussianBlur in="BackgroundImageFix" stdDeviation="5"/>
<feComposite in2="SourceAlpha" operator="in" result="effect1_backgroundBlur_1993_5433"/>
<feBlend mode="normal" in="SourceGraphic" in2="effect1_backgroundBlur_1993_5433" result="shape"/>
<feColorMatrix in="SourceAlpha" type="matrix" values="0 0 0 0 0 0 0 0 0 0 0 0 0 0 0 0 0 0 127 0" result="hardAlpha"/>
<feOffset dx="2" dy="2"/>
<feGaussianBlur stdDeviation="2.5"/>
<feComposite in2="hardAlpha" operator="arithmetic" k2="-1" k3="1"/>
<feColorMatrix type="matrix" values="0 0 0 0 1 0 0 0 0 1 0 0 0 0 1 0 0 0 0.5 0"/>
<feBlend mode="normal" in2="shape" result="effect2_innerShadow_1993_5433"/>
</filter>
<linearGradient id="paint0_linear_1993_5433" x1="34" y1="24" x2="34" y2="44" gradientUnits="userSpaceOnUse">
<stop stop-color="white"/>
<stop offset="1" stop-color="white"/>
</linearGradient>
</defs>
</svg>
