<svg width="411" height="459" viewBox="0 0 411 459" fill="none" xmlns="http://www.w3.org/2000/svg">
<path d="M38.6215 346.804L38.6207 346.803C27.1036 340.145 20 327.828 20 314.496V143.033C20 129.701 27.1036 117.384 38.6207 110.726L38.6213 110.725L186.889 24.9936C186.89 24.9935 186.89 24.9933 186.89 24.9932C198.406 18.3356 212.594 18.3356 224.11 24.9932C224.11 24.9933 224.11 24.9935 224.111 24.9936L372.379 110.725L372.379 110.726C383.896 117.384 391 129.701 391 143.033V314.496C391 327.828 383.896 340.145 372.379 346.803L372.379 346.804L219.387 435.27L219.386 435.271C210.789 440.243 200.211 440.243 191.614 435.271L191.613 435.27L38.6215 346.804Z" fill="#727DEF"/>
<path d="M38.6215 346.804L38.6207 346.803C27.1036 340.145 20 327.828 20 314.496V143.033C20 129.701 27.1036 117.384 38.6207 110.726L38.6213 110.725L186.889 24.9936C186.89 24.9935 186.89 24.9933 186.89 24.9932C198.406 18.3356 212.594 18.3356 224.11 24.9932C224.11 24.9933 224.11 24.9935 224.111 24.9936L372.379 110.725L372.379 110.726C383.896 117.384 391 129.701 391 143.033V314.496C391 327.828 383.896 340.145 372.379 346.803L372.379 346.804L219.387 435.27L219.386 435.271C210.789 440.243 200.211 440.243 191.614 435.271L191.613 435.27L38.6215 346.804Z" stroke="url(#paint0_radial_2137_5106)" stroke-width="20"/>
<path d="M38.6215 346.804L38.6207 346.803C27.1036 340.145 20 327.828 20 314.496V143.033C20 129.701 27.1036 117.384 38.6207 110.726L38.6213 110.725L186.889 24.9936C186.89 24.9935 186.89 24.9933 186.89 24.9932C198.406 18.3356 212.594 18.3356 224.11 24.9932C224.11 24.9933 224.11 24.9935 224.111 24.9936L372.379 110.725L372.379 110.726C383.896 117.384 391 129.701 391 143.033V314.496C391 327.828 383.896 340.145 372.379 346.803L372.379 346.804L219.387 435.27L219.386 435.271C210.789 440.243 200.211 440.243 191.614 435.271L191.613 435.27L38.6215 346.804Z" stroke="url(#paint1_radial_2137_5106)" stroke-width="20"/>
<path d="M38.6215 346.804L38.6207 346.803C27.1036 340.145 20 327.828 20 314.496V143.033C20 129.701 27.1036 117.384 38.6207 110.726L38.6213 110.725L186.889 24.9936C186.89 24.9935 186.89 24.9933 186.89 24.9932C198.406 18.3356 212.594 18.3356 224.11 24.9932C224.11 24.9933 224.11 24.9935 224.111 24.9936L372.379 110.725L372.379 110.726C383.896 117.384 391 129.701 391 143.033V314.496C391 327.828 383.896 340.145 372.379 346.803L372.379 346.804L219.387 435.27L219.386 435.271C210.789 440.243 200.211 440.243 191.614 435.271L191.613 435.27L38.6215 346.804Z" stroke="url(#paint2_radial_2137_5106)" stroke-width="20"/>
<g filter="url(#filter0_bif_2137_5106)">
<path d="M10 143.033V314.496C10 331.393 19.0023 347.012 33.6157 355.461L186.607 443.927C198.302 450.691 212.698 450.691 224.393 443.927L377.384 355.461C391.998 347.012 401 331.393 401 314.496V143.033C401 126.136 391.998 110.516 377.384 102.068L229.116 16.3362C214.502 7.88792 196.498 7.88792 181.884 16.3362L33.6157 102.068C19.0023 110.516 10 126.136 10 143.033Z" fill="url(#paint3_radial_2137_5106)"/>
<path d="M10 143.033V314.496C10 331.393 19.0023 347.012 33.6157 355.461L186.607 443.927C198.302 450.691 212.698 450.691 224.393 443.927L377.384 355.461C391.998 347.012 401 331.393 401 314.496V143.033C401 126.136 391.998 110.516 377.384 102.068L229.116 16.3362C214.502 7.88792 196.498 7.88792 181.884 16.3362L33.6157 102.068C19.0023 110.516 10 126.136 10 143.033Z" fill="url(#paint4_radial_2137_5106)"/>
<path d="M10 143.033V314.496C10 331.393 19.0023 347.012 33.6157 355.461L186.607 443.927C198.302 450.691 212.698 450.691 224.393 443.927L377.384 355.461C391.998 347.012 401 331.393 401 314.496V143.033C401 126.136 391.998 110.516 377.384 102.068L229.116 16.3362C214.502 7.88792 196.498 7.88792 181.884 16.3362L33.6157 102.068C19.0023 110.516 10 126.136 10 143.033Z" fill="url(#paint5_radial_2137_5106)"/>
</g>
<g opacity="0.3" filter="url(#filter1_bi_2137_5106)">
<path d="M10 143.033V314.496C10 331.393 19.0023 347.012 33.6157 355.461L186.607 443.927C198.302 450.691 212.698 450.691 224.393 443.927L377.384 355.461C391.998 347.012 401 331.393 401 314.496V143.033C401 126.136 391.998 110.516 377.384 102.068L229.116 16.3362C214.502 7.88792 196.498 7.88792 181.884 16.3362L33.6157 102.068C19.0023 110.516 10 126.136 10 143.033Z" fill="url(#paint6_linear_2137_5106)" fill-opacity="0.3"/>
</g>
<g filter="url(#filter2_bdi_2137_5106)">
<path d="M76.2969 181.367V276.171C76.2969 293.068 85.2992 308.687 99.9125 317.136L186.61 367.267C198.305 374.032 212.701 374.032 224.395 367.267L311.093 317.136C325.707 308.687 334.709 293.068 334.709 276.171V181.367C334.709 164.47 325.707 148.851 311.093 140.402L229.119 93.0047C214.505 84.5564 196.501 84.5564 181.887 93.0047L99.9125 140.402C85.2992 148.851 76.2969 164.47 76.2969 181.367Z" fill="url(#paint7_linear_2137_5106)" fill-opacity="0.3" shape-rendering="crispEdges"/>
</g>
<path d="M130.743 246.147V209.647H138.943V246.147H130.743ZM137.943 231.447V224.647H152.043V231.447H137.943ZM137.943 216.447V209.647H152.643V216.447H137.943ZM173.796 246.147V238.047H172.446V229.247C172.446 227.847 172.112 226.797 171.446 226.097C170.779 225.397 169.712 225.047 168.246 225.047C167.512 225.047 166.546 225.064 165.346 225.097C164.146 225.13 162.912 225.18 161.646 225.247C160.379 225.314 159.229 225.38 158.196 225.447V218.697C158.962 218.63 159.862 218.564 160.896 218.497C161.929 218.43 162.996 218.38 164.096 218.347C165.196 218.314 166.229 218.297 167.196 218.297C169.996 218.297 172.346 218.697 174.246 219.497C176.179 220.297 177.646 221.514 178.646 223.147C179.646 224.747 180.146 226.814 180.146 229.347V246.147H173.796ZM165.046 246.847C163.079 246.847 161.346 246.497 159.846 245.797C158.379 245.097 157.229 244.097 156.396 242.797C155.562 241.464 155.146 239.88 155.146 238.047C155.146 236.047 155.662 234.414 156.696 233.147C157.729 231.847 159.179 230.897 161.046 230.297C162.912 229.664 165.062 229.347 167.496 229.347H173.346V233.797H167.446C166.046 233.797 164.962 234.147 164.196 234.847C163.462 235.514 163.096 236.43 163.096 237.597C163.096 238.697 163.462 239.597 164.196 240.297C164.962 240.964 166.046 241.297 167.446 241.297C168.346 241.297 169.146 241.147 169.846 240.847C170.579 240.514 171.179 239.964 171.646 239.197C172.112 238.43 172.379 237.364 172.446 235.997L174.346 237.997C174.179 239.897 173.712 241.497 172.946 242.797C172.212 244.097 171.179 245.097 169.846 245.797C168.546 246.497 166.946 246.847 165.046 246.847ZM197.333 246.997C193.433 246.997 190.383 246.197 188.183 244.597C185.983 242.997 184.817 240.747 184.683 237.847H191.783C191.917 238.714 192.433 239.497 193.333 240.197C194.267 240.864 195.65 241.197 197.483 241.197C198.883 241.197 200.033 240.964 200.933 240.497C201.867 239.997 202.333 239.297 202.333 238.397C202.333 237.597 201.983 236.964 201.283 236.497C200.583 235.997 199.333 235.647 197.533 235.447L195.383 235.247C192.083 234.914 189.6 233.997 187.933 232.497C186.3 230.997 185.483 229.08 185.483 226.747C185.483 224.814 185.967 223.197 186.933 221.897C187.9 220.597 189.233 219.614 190.933 218.947C192.667 218.28 194.633 217.947 196.833 217.947C200.367 217.947 203.217 218.73 205.383 220.297C207.55 221.83 208.683 224.064 208.783 226.997H201.683C201.55 226.097 201.083 225.347 200.283 224.747C199.483 224.114 198.3 223.797 196.733 223.797C195.5 223.797 194.517 224.03 193.783 224.497C193.05 224.964 192.683 225.597 192.683 226.397C192.683 227.164 193 227.747 193.633 228.147C194.267 228.547 195.3 228.83 196.733 228.997L198.883 229.197C202.25 229.564 204.867 230.497 206.733 231.997C208.6 233.497 209.533 235.514 209.533 238.047C209.533 239.88 209.033 241.48 208.033 242.847C207.033 244.18 205.617 245.214 203.783 245.947C201.95 246.647 199.8 246.997 197.333 246.997ZM227.266 247.097C224.933 247.097 222.866 246.697 221.066 245.897C219.3 245.097 217.816 244.03 216.616 242.697C215.45 241.33 214.55 239.814 213.916 238.147C213.316 236.447 213.016 234.714 213.016 232.947V231.947C213.016 230.114 213.316 228.364 213.916 226.697C214.55 224.997 215.45 223.48 216.616 222.147C217.783 220.814 219.233 219.764 220.966 218.997C222.733 218.197 224.733 217.797 226.966 217.797C229.9 217.797 232.366 218.464 234.366 219.797C236.4 221.097 237.95 222.814 239.016 224.947C240.083 227.047 240.616 229.347 240.616 231.847V234.547H216.366V229.997H235.766L233.166 232.097C233.166 230.464 232.933 229.064 232.466 227.897C232 226.73 231.3 225.847 230.366 225.247C229.466 224.614 228.333 224.297 226.966 224.297C225.566 224.297 224.383 224.614 223.416 225.247C222.45 225.88 221.716 226.814 221.216 228.047C220.716 229.247 220.466 230.73 220.466 232.497C220.466 234.13 220.7 235.564 221.166 236.797C221.633 237.997 222.366 238.93 223.366 239.597C224.366 240.264 225.666 240.597 227.266 240.597C228.733 240.597 229.933 240.314 230.866 239.747C231.8 239.18 232.433 238.48 232.766 237.647H240.116C239.716 239.48 238.933 241.114 237.766 242.547C236.6 243.98 235.133 245.097 233.366 245.897C231.6 246.697 229.566 247.097 227.266 247.097ZM255.766 246.147V238.647C255.766 237.08 256.016 235.714 256.516 234.547C257.049 233.38 257.882 232.347 259.016 231.447C260.149 230.514 261.649 229.647 263.516 228.847L269.416 226.297C270.916 225.664 272.016 224.88 272.716 223.947C273.449 223.014 273.816 221.83 273.816 220.397C273.816 218.93 273.366 217.73 272.466 216.797C271.566 215.864 270.249 215.397 268.516 215.397C266.782 215.397 265.466 215.88 264.566 216.847C263.666 217.814 263.216 219.114 263.216 220.747H255.266C255.266 218.447 255.766 216.38 256.766 214.547C257.766 212.68 259.249 211.214 261.216 210.147C263.182 209.08 265.616 208.547 268.516 208.547C271.416 208.547 273.832 209.064 275.766 210.097C277.732 211.13 279.216 212.514 280.216 214.247C281.249 215.98 281.766 217.93 281.766 220.097V220.697C281.766 223.497 280.999 225.814 279.466 227.647C277.932 229.447 275.566 231.047 272.366 232.447L266.516 234.997C265.516 235.43 264.799 235.88 264.366 236.347C263.966 236.814 263.766 237.447 263.766 238.247V240.747L261.816 239.097H281.816V246.147H255.766Z" fill="white"/>
<defs>
<filter id="filter0_bif_2137_5106" x="-10" y="-10" width="431" height="479" filterUnits="userSpaceOnUse" color-interpolation-filters="sRGB">
<feFlood flood-opacity="0" result="BackgroundImageFix"/>
<feGaussianBlur in="BackgroundImageFix" stdDeviation="10"/>
<feComposite in2="SourceAlpha" operator="in" result="effect1_backgroundBlur_2137_5106"/>
<feBlend mode="normal" in="SourceGraphic" in2="effect1_backgroundBlur_2137_5106" result="shape"/>
<feColorMatrix in="SourceAlpha" type="matrix" values="0 0 0 0 0 0 0 0 0 0 0 0 0 0 0 0 0 0 127 0" result="hardAlpha"/>
<feOffset dx="4" dy="4"/>
<feGaussianBlur stdDeviation="2"/>
<feComposite in2="hardAlpha" operator="arithmetic" k2="-1" k3="1"/>
<feColorMatrix type="matrix" values="0 0 0 0 1 0 0 0 0 1 0 0 0 0 1 0 0 0 0.56 0"/>
<feBlend mode="normal" in2="shape" result="effect2_innerShadow_2137_5106"/>
<feGaussianBlur stdDeviation="5" result="effect3_foregroundBlur_2137_5106"/>
</filter>
<filter id="filter1_bi_2137_5106" x="-10" y="-10" width="431" height="479" filterUnits="userSpaceOnUse" color-interpolation-filters="sRGB">
<feFlood flood-opacity="0" result="BackgroundImageFix"/>
<feGaussianBlur in="BackgroundImageFix" stdDeviation="10"/>
<feComposite in2="SourceAlpha" operator="in" result="effect1_backgroundBlur_2137_5106"/>
<feBlend mode="normal" in="SourceGraphic" in2="effect1_backgroundBlur_2137_5106" result="shape"/>
<feColorMatrix in="SourceAlpha" type="matrix" values="0 0 0 0 0 0 0 0 0 0 0 0 0 0 0 0 0 0 127 0" result="hardAlpha"/>
<feOffset dx="10" dy="10"/>
<feGaussianBlur stdDeviation="10"/>
<feComposite in2="hardAlpha" operator="arithmetic" k2="-1" k3="1"/>
<feColorMatrix type="matrix" values="0 0 0 0 1 0 0 0 0 1 0 0 0 0 1 0 0 0 0.5 0"/>
<feBlend mode="normal" in2="shape" result="effect2_innerShadow_2137_5106"/>
</filter>
<filter id="filter2_bdi_2137_5106" x="50.2969" y="60.6685" width="318.414" height="345.672" filterUnits="userSpaceOnUse" color-interpolation-filters="sRGB">
<feFlood flood-opacity="0" result="BackgroundImageFix"/>
<feGaussianBlur in="BackgroundImageFix" stdDeviation="10"/>
<feComposite in2="SourceAlpha" operator="in" result="effect1_backgroundBlur_2137_5106"/>
<feColorMatrix in="SourceAlpha" type="matrix" values="0 0 0 0 0 0 0 0 0 0 0 0 0 0 0 0 0 0 127 0" result="hardAlpha"/>
<feOffset dx="4" dy="4"/>
<feGaussianBlur stdDeviation="15"/>
<feComposite in2="hardAlpha" operator="out"/>
<feColorMatrix type="matrix" values="0 0 0 0 0.2 0 0 0 0 0 0 0 0 0 0.309804 0 0 0 0.3 0"/>
<feBlend mode="normal" in2="effect1_backgroundBlur_2137_5106" result="effect2_dropShadow_2137_5106"/>
<feBlend mode="normal" in="SourceGraphic" in2="effect2_dropShadow_2137_5106" result="shape"/>
<feColorMatrix in="SourceAlpha" type="matrix" values="0 0 0 0 0 0 0 0 0 0 0 0 0 0 0 0 0 0 127 0" result="hardAlpha"/>
<feOffset dx="10" dy="10"/>
<feGaussianBlur stdDeviation="10"/>
<feComposite in2="hardAlpha" operator="arithmetic" k2="-1" k3="1"/>
<feColorMatrix type="matrix" values="0 0 0 0 1 0 0 0 0 1 0 0 0 0 1 0 0 0 0.5 0"/>
<feBlend mode="normal" in2="shape" result="effect3_innerShadow_2137_5106"/>
</filter>
<radialGradient id="paint0_radial_2137_5106" cx="0" cy="0" r="1" gradientUnits="userSpaceOnUse" gradientTransform="translate(372.5 230) rotate(-2.32636) scale(320.264 302.063)">
<stop stop-color="#33004F"/>
<stop offset="1" stop-color="#33004F" stop-opacity="0.1"/>
</radialGradient>
<radialGradient id="paint1_radial_2137_5106" cx="0" cy="0" r="1" gradientUnits="userSpaceOnUse" gradientTransform="translate(154 134.5) rotate(-131.127) scale(272.151 249.502)">
<stop stop-color="#727DEF"/>
<stop offset="1" stop-color="#727DEF" stop-opacity="0.1"/>
</radialGradient>
<radialGradient id="paint2_radial_2137_5106" cx="0" cy="0" r="1" gradientUnits="userSpaceOnUse" gradientTransform="translate(156.5 425) rotate(80.1129) scale(288.282 196.081)">
<stop stop-color="#C21AD6"/>
<stop offset="0.968153" stop-color="#C21AD6" stop-opacity="0.1"/>
</radialGradient>
<radialGradient id="paint3_radial_2137_5106" cx="0" cy="0" r="1" gradientUnits="userSpaceOnUse" gradientTransform="translate(372.5 230) rotate(-2.32636) scale(320.264 302.063)">
<stop stop-color="#33004F"/>
<stop offset="1" stop-color="#33004F" stop-opacity="0.1"/>
</radialGradient>
<radialGradient id="paint4_radial_2137_5106" cx="0" cy="0" r="1" gradientUnits="userSpaceOnUse" gradientTransform="translate(154 134.5) rotate(-131.127) scale(272.151 249.502)">
<stop stop-color="#727DEF"/>
<stop offset="1" stop-color="#727DEF" stop-opacity="0.1"/>
</radialGradient>
<radialGradient id="paint5_radial_2137_5106" cx="0" cy="0" r="1" gradientUnits="userSpaceOnUse" gradientTransform="translate(156.5 425) rotate(80.1129) scale(288.282 196.081)">
<stop stop-color="#C21AD6"/>
<stop offset="0.968153" stop-color="#C21AD6" stop-opacity="0.1"/>
</radialGradient>
<linearGradient id="paint6_linear_2137_5106" x1="205.5" y1="10" x2="205.5" y2="449" gradientUnits="userSpaceOnUse">
<stop stop-color="white"/>
<stop offset="1" stop-color="white"/>
</linearGradient>
<linearGradient id="paint7_linear_2137_5106" x1="205.503" y1="86.6685" x2="205.503" y2="372.341" gradientUnits="userSpaceOnUse">
<stop stop-color="white"/>
<stop offset="1" stop-color="white"/>
</linearGradient>
</defs>
</svg>
