<svg width="411" height="459" viewBox="0 0 411 459" fill="none" xmlns="http://www.w3.org/2000/svg">
<path d="M10 143.033V314.496C10 331.393 19.0023 347.012 33.6157 355.461L186.607 443.927C198.302 450.691 212.698 450.691 224.393 443.927L377.384 355.461C391.998 347.012 401 331.393 401 314.496V143.033C401 126.136 391.998 110.516 377.384 102.068L229.116 16.3362C214.502 7.88792 196.498 7.88792 181.884 16.3362L33.6157 102.068C19.0023 110.516 10 126.136 10 143.033Z" fill="url(#paint0_radial_303_819)"/>
<path d="M10 143.033V314.496C10 331.393 19.0023 347.012 33.6157 355.461L186.607 443.927C198.302 450.691 212.698 450.691 224.393 443.927L377.384 355.461C391.998 347.012 401 331.393 401 314.496V143.033C401 126.136 391.998 110.516 377.384 102.068L229.116 16.3362C214.502 7.88792 196.498 7.88792 181.884 16.3362L33.6157 102.068C19.0023 110.516 10 126.136 10 143.033Z" fill="url(#paint1_radial_303_819)"/>
<path d="M10 143.033V314.496C10 331.393 19.0023 347.012 33.6157 355.461L186.607 443.927C198.302 450.691 212.698 450.691 224.393 443.927L377.384 355.461C391.998 347.012 401 331.393 401 314.496V143.033C401 126.136 391.998 110.516 377.384 102.068L229.116 16.3362C214.502 7.88792 196.498 7.88792 181.884 16.3362L33.6157 102.068C19.0023 110.516 10 126.136 10 143.033Z" fill="url(#paint2_radial_303_819)"/>
<g filter="url(#filter0_bif_303_819)">
<path d="M10 143.033V314.496C10 331.393 19.0023 347.012 33.6157 355.461L186.607 443.927C198.302 450.691 212.698 450.691 224.393 443.927L377.384 355.461C391.998 347.012 401 331.393 401 314.496V143.033C401 126.136 391.998 110.516 377.384 102.068L229.116 16.3362C214.502 7.88792 196.498 7.88792 181.884 16.3362L33.6157 102.068C19.0023 110.516 10 126.136 10 143.033Z" fill="url(#paint3_radial_303_819)"/>
<path d="M10 143.033V314.496C10 331.393 19.0023 347.012 33.6157 355.461L186.607 443.927C198.302 450.691 212.698 450.691 224.393 443.927L377.384 355.461C391.998 347.012 401 331.393 401 314.496V143.033C401 126.136 391.998 110.516 377.384 102.068L229.116 16.3362C214.502 7.88792 196.498 7.88792 181.884 16.3362L33.6157 102.068C19.0023 110.516 10 126.136 10 143.033Z" fill="url(#paint4_radial_303_819)"/>
<path d="M10 143.033V314.496C10 331.393 19.0023 347.012 33.6157 355.461L186.607 443.927C198.302 450.691 212.698 450.691 224.393 443.927L377.384 355.461C391.998 347.012 401 331.393 401 314.496V143.033C401 126.136 391.998 110.516 377.384 102.068L229.116 16.3362C214.502 7.88792 196.498 7.88792 181.884 16.3362L33.6157 102.068C19.0023 110.516 10 126.136 10 143.033Z" fill="url(#paint5_radial_303_819)"/>
</g>
<g opacity="0.3" filter="url(#filter1_bi_303_819)">
<path d="M10 143.033V314.496C10 331.393 19.0023 347.012 33.6157 355.461L186.607 443.927C198.302 450.691 212.698 450.691 224.393 443.927L377.384 355.461C391.998 347.012 401 331.393 401 314.496V143.033C401 126.136 391.998 110.516 377.384 102.068L229.116 16.3362C214.502 7.88792 196.498 7.88792 181.884 16.3362L33.6157 102.068C19.0023 110.516 10 126.136 10 143.033Z" fill="url(#paint6_linear_303_819)" fill-opacity="0.3"/>
</g>
<g filter="url(#filter2_bdi_303_819)">
<path d="M76.2969 181.367V276.171C76.2969 293.068 85.2992 308.687 99.9125 317.136L186.61 367.267C198.305 374.032 212.701 374.032 224.395 367.267L311.093 317.136C325.707 308.687 334.709 293.068 334.709 276.171V181.367C334.709 164.47 325.707 148.851 311.093 140.402L229.119 93.0047C214.505 84.5564 196.501 84.5564 181.887 93.0047L99.9125 140.402C85.2992 148.851 76.2969 164.47 76.2969 181.367Z" fill="url(#paint7_linear_303_819)" fill-opacity="0.3" shape-rendering="crispEdges"/>
</g>
<path d="M135.845 246.147V209.647H144.045V246.147H135.845ZM143.045 231.447V224.647H157.145V231.447H143.045ZM143.045 216.447V209.647H157.745V216.447H143.045ZM178.898 246.147V238.047H177.548V229.247C177.548 227.847 177.215 226.797 176.548 226.097C175.882 225.397 174.815 225.047 173.348 225.047C172.615 225.047 171.648 225.064 170.448 225.097C169.248 225.13 168.015 225.18 166.748 225.247C165.482 225.314 164.332 225.38 163.298 225.447V218.697C164.065 218.63 164.965 218.564 165.998 218.497C167.032 218.43 168.098 218.38 169.198 218.347C170.298 218.314 171.332 218.297 172.298 218.297C175.098 218.297 177.448 218.697 179.348 219.497C181.282 220.297 182.748 221.514 183.748 223.147C184.748 224.747 185.248 226.814 185.248 229.347V246.147H178.898ZM170.148 246.847C168.182 246.847 166.448 246.497 164.948 245.797C163.482 245.097 162.332 244.097 161.498 242.797C160.665 241.464 160.248 239.88 160.248 238.047C160.248 236.047 160.765 234.414 161.798 233.147C162.832 231.847 164.282 230.897 166.148 230.297C168.015 229.664 170.165 229.347 172.598 229.347H178.448V233.797H172.548C171.148 233.797 170.065 234.147 169.298 234.847C168.565 235.514 168.198 236.43 168.198 237.597C168.198 238.697 168.565 239.597 169.298 240.297C170.065 240.964 171.148 241.297 172.548 241.297C173.448 241.297 174.248 241.147 174.948 240.847C175.682 240.514 176.282 239.964 176.748 239.197C177.215 238.43 177.482 237.364 177.548 235.997L179.448 237.997C179.282 239.897 178.815 241.497 178.048 242.797C177.315 244.097 176.282 245.097 174.948 245.797C173.648 246.497 172.048 246.847 170.148 246.847ZM202.436 246.997C198.536 246.997 195.486 246.197 193.286 244.597C191.086 242.997 189.919 240.747 189.786 237.847H196.886C197.019 238.714 197.536 239.497 198.436 240.197C199.369 240.864 200.752 241.197 202.586 241.197C203.986 241.197 205.136 240.964 206.036 240.497C206.969 239.997 207.436 239.297 207.436 238.397C207.436 237.597 207.086 236.964 206.386 236.497C205.686 235.997 204.436 235.647 202.636 235.447L200.486 235.247C197.186 234.914 194.702 233.997 193.036 232.497C191.402 230.997 190.586 229.08 190.586 226.747C190.586 224.814 191.069 223.197 192.036 221.897C193.002 220.597 194.336 219.614 196.036 218.947C197.769 218.28 199.736 217.947 201.936 217.947C205.469 217.947 208.319 218.73 210.486 220.297C212.652 221.83 213.786 224.064 213.886 226.997H206.786C206.652 226.097 206.186 225.347 205.386 224.747C204.586 224.114 203.402 223.797 201.836 223.797C200.602 223.797 199.619 224.03 198.886 224.497C198.152 224.964 197.786 225.597 197.786 226.397C197.786 227.164 198.102 227.747 198.736 228.147C199.369 228.547 200.402 228.83 201.836 228.997L203.986 229.197C207.352 229.564 209.969 230.497 211.836 231.997C213.702 233.497 214.636 235.514 214.636 238.047C214.636 239.88 214.136 241.48 213.136 242.847C212.136 244.18 210.719 245.214 208.886 245.947C207.052 246.647 204.902 246.997 202.436 246.997ZM232.369 247.097C230.036 247.097 227.969 246.697 226.169 245.897C224.402 245.097 222.919 244.03 221.719 242.697C220.552 241.33 219.652 239.814 219.019 238.147C218.419 236.447 218.119 234.714 218.119 232.947V231.947C218.119 230.114 218.419 228.364 219.019 226.697C219.652 224.997 220.552 223.48 221.719 222.147C222.886 220.814 224.336 219.764 226.069 218.997C227.836 218.197 229.836 217.797 232.069 217.797C235.002 217.797 237.469 218.464 239.469 219.797C241.502 221.097 243.052 222.814 244.119 224.947C245.186 227.047 245.719 229.347 245.719 231.847V234.547H221.469V229.997H240.869L238.269 232.097C238.269 230.464 238.036 229.064 237.569 227.897C237.102 226.73 236.402 225.847 235.469 225.247C234.569 224.614 233.436 224.297 232.069 224.297C230.669 224.297 229.486 224.614 228.519 225.247C227.552 225.88 226.819 226.814 226.319 228.047C225.819 229.247 225.569 230.73 225.569 232.497C225.569 234.13 225.802 235.564 226.269 236.797C226.736 237.997 227.469 238.93 228.469 239.597C229.469 240.264 230.769 240.597 232.369 240.597C233.836 240.597 235.036 240.314 235.969 239.747C236.902 239.18 237.536 238.48 237.869 237.647H245.219C244.819 239.48 244.036 241.114 242.869 242.547C241.702 243.98 240.236 245.097 238.469 245.897C236.702 246.697 234.669 247.097 232.369 247.097ZM266.668 246.147V215.047L268.868 216.747H259.518V209.647H274.818V246.147H266.668Z" fill="white"/>
<defs>
<filter id="filter0_bif_303_819" x="-10" y="-10" width="431" height="479" filterUnits="userSpaceOnUse" color-interpolation-filters="sRGB">
<feFlood flood-opacity="0" result="BackgroundImageFix"/>
<feGaussianBlur in="BackgroundImageFix" stdDeviation="10"/>
<feComposite in2="SourceAlpha" operator="in" result="effect1_backgroundBlur_303_819"/>
<feBlend mode="normal" in="SourceGraphic" in2="effect1_backgroundBlur_303_819" result="shape"/>
<feColorMatrix in="SourceAlpha" type="matrix" values="0 0 0 0 0 0 0 0 0 0 0 0 0 0 0 0 0 0 127 0" result="hardAlpha"/>
<feOffset dx="4" dy="4"/>
<feGaussianBlur stdDeviation="2"/>
<feComposite in2="hardAlpha" operator="arithmetic" k2="-1" k3="1"/>
<feColorMatrix type="matrix" values="0 0 0 0 1 0 0 0 0 1 0 0 0 0 1 0 0 0 0.56 0"/>
<feBlend mode="normal" in2="shape" result="effect2_innerShadow_303_819"/>
<feGaussianBlur stdDeviation="5" result="effect3_foregroundBlur_303_819"/>
</filter>
<filter id="filter1_bi_303_819" x="-10" y="-10" width="431" height="479" filterUnits="userSpaceOnUse" color-interpolation-filters="sRGB">
<feFlood flood-opacity="0" result="BackgroundImageFix"/>
<feGaussianBlur in="BackgroundImageFix" stdDeviation="10"/>
<feComposite in2="SourceAlpha" operator="in" result="effect1_backgroundBlur_303_819"/>
<feBlend mode="normal" in="SourceGraphic" in2="effect1_backgroundBlur_303_819" result="shape"/>
<feColorMatrix in="SourceAlpha" type="matrix" values="0 0 0 0 0 0 0 0 0 0 0 0 0 0 0 0 0 0 127 0" result="hardAlpha"/>
<feOffset dx="10" dy="10"/>
<feGaussianBlur stdDeviation="10"/>
<feComposite in2="hardAlpha" operator="arithmetic" k2="-1" k3="1"/>
<feColorMatrix type="matrix" values="0 0 0 0 1 0 0 0 0 1 0 0 0 0 1 0 0 0 0.5 0"/>
<feBlend mode="normal" in2="shape" result="effect2_innerShadow_303_819"/>
</filter>
<filter id="filter2_bdi_303_819" x="50.2969" y="60.6685" width="318.414" height="345.672" filterUnits="userSpaceOnUse" color-interpolation-filters="sRGB">
<feFlood flood-opacity="0" result="BackgroundImageFix"/>
<feGaussianBlur in="BackgroundImageFix" stdDeviation="10"/>
<feComposite in2="SourceAlpha" operator="in" result="effect1_backgroundBlur_303_819"/>
<feColorMatrix in="SourceAlpha" type="matrix" values="0 0 0 0 0 0 0 0 0 0 0 0 0 0 0 0 0 0 127 0" result="hardAlpha"/>
<feOffset dx="4" dy="4"/>
<feGaussianBlur stdDeviation="15"/>
<feComposite in2="hardAlpha" operator="out"/>
<feColorMatrix type="matrix" values="0 0 0 0 0.2 0 0 0 0 0 0 0 0 0 0.309804 0 0 0 0.3 0"/>
<feBlend mode="normal" in2="effect1_backgroundBlur_303_819" result="effect2_dropShadow_303_819"/>
<feBlend mode="normal" in="SourceGraphic" in2="effect2_dropShadow_303_819" result="shape"/>
<feColorMatrix in="SourceAlpha" type="matrix" values="0 0 0 0 0 0 0 0 0 0 0 0 0 0 0 0 0 0 127 0" result="hardAlpha"/>
<feOffset dx="10" dy="10"/>
<feGaussianBlur stdDeviation="10"/>
<feComposite in2="hardAlpha" operator="arithmetic" k2="-1" k3="1"/>
<feColorMatrix type="matrix" values="0 0 0 0 1 0 0 0 0 1 0 0 0 0 1 0 0 0 0.5 0"/>
<feBlend mode="normal" in2="shape" result="effect3_innerShadow_303_819"/>
</filter>
<radialGradient id="paint0_radial_303_819" cx="0" cy="0" r="1" gradientUnits="userSpaceOnUse" gradientTransform="translate(372.5 230) rotate(-70.9162) scale(321.15 287.672)">
<stop stop-color="#33004F"/>
<stop offset="1" stop-color="#33004F" stop-opacity="0.1"/>
</radialGradient>
<radialGradient id="paint1_radial_303_819" cx="0" cy="0" r="1" gradientUnits="userSpaceOnUse" gradientTransform="translate(86 198.5) rotate(-109.939) scale(222.859 177.258)">
<stop stop-color="#7B1AD8"/>
<stop offset="1" stop-color="#7B1AD8" stop-opacity="0.1"/>
</radialGradient>
<radialGradient id="paint2_radial_303_819" cx="0" cy="0" r="1" gradientUnits="userSpaceOnUse" gradientTransform="translate(156.5 425) rotate(80.1129) scale(288.282 196.081)">
<stop stop-color="#E50085"/>
<stop offset="0.968153" stop-color="#E50085" stop-opacity="0.1"/>
</radialGradient>
<radialGradient id="paint3_radial_303_819" cx="0" cy="0" r="1" gradientUnits="userSpaceOnUse" gradientTransform="translate(372.5 230) rotate(-70.9162) scale(321.15 287.672)">
<stop stop-color="#33004F"/>
<stop offset="1" stop-color="#33004F" stop-opacity="0.1"/>
</radialGradient>
<radialGradient id="paint4_radial_303_819" cx="0" cy="0" r="1" gradientUnits="userSpaceOnUse" gradientTransform="translate(86 198.5) rotate(-109.939) scale(222.859 177.258)">
<stop stop-color="#7B1AD8"/>
<stop offset="1" stop-color="#7B1AD8" stop-opacity="0.1"/>
</radialGradient>
<radialGradient id="paint5_radial_303_819" cx="0" cy="0" r="1" gradientUnits="userSpaceOnUse" gradientTransform="translate(156.5 425) rotate(80.1129) scale(288.282 196.081)">
<stop stop-color="#E50085"/>
<stop offset="0.968153" stop-color="#E50085" stop-opacity="0.1"/>
</radialGradient>
<linearGradient id="paint6_linear_303_819" x1="205.5" y1="10" x2="205.5" y2="449" gradientUnits="userSpaceOnUse">
<stop stop-color="white"/>
<stop offset="1" stop-color="white"/>
</linearGradient>
<linearGradient id="paint7_linear_303_819" x1="205.503" y1="86.6685" x2="205.503" y2="372.341" gradientUnits="userSpaceOnUse">
<stop stop-color="white"/>
<stop offset="1" stop-color="white"/>
</linearGradient>
</defs>
</svg>
