<svg width="876" height="463" viewBox="0 0 876 463" fill="none" xmlns="http://www.w3.org/2000/svg">
<path d="M235.621 348.804L235.621 348.803C224.104 342.145 217 329.828 217 316.496V145.033C217 131.701 224.104 119.384 235.621 112.726L235.621 112.725L383.889 26.9936C383.89 26.9935 383.89 26.9933 383.89 26.9932C395.406 20.3356 409.594 20.3356 421.11 26.9932C421.11 26.9933 421.11 26.9935 421.111 26.9936L569.379 112.725L569.379 112.726C580.896 119.384 588 131.701 588 145.033V316.496C588 329.828 580.896 342.145 569.379 348.803L569.379 348.804L416.387 437.27L416.386 437.271C407.789 442.243 397.211 442.243 388.614 437.271L388.613 437.27L235.621 348.804Z" fill="#727DEF"/>
<path d="M235.621 348.804L235.621 348.803C224.104 342.145 217 329.828 217 316.496V145.033C217 131.701 224.104 119.384 235.621 112.726L235.621 112.725L383.889 26.9936C383.89 26.9935 383.89 26.9933 383.89 26.9932C395.406 20.3356 409.594 20.3356 421.11 26.9932C421.11 26.9933 421.11 26.9935 421.111 26.9936L569.379 112.725L569.379 112.726C580.896 119.384 588 131.701 588 145.033V316.496C588 329.828 580.896 342.145 569.379 348.803L569.379 348.804L416.387 437.27L416.386 437.271C407.789 442.243 397.211 442.243 388.614 437.271L388.613 437.27L235.621 348.804Z" stroke="url(#paint0_radial_460_1004)" stroke-width="20"/>
<path d="M235.621 348.804L235.621 348.803C224.104 342.145 217 329.828 217 316.496V145.033C217 131.701 224.104 119.384 235.621 112.726L235.621 112.725L383.889 26.9936C383.89 26.9935 383.89 26.9933 383.89 26.9932C395.406 20.3356 409.594 20.3356 421.11 26.9932C421.11 26.9933 421.11 26.9935 421.111 26.9936L569.379 112.725L569.379 112.726C580.896 119.384 588 131.701 588 145.033V316.496C588 329.828 580.896 342.145 569.379 348.803L569.379 348.804L416.387 437.27L416.386 437.271C407.789 442.243 397.211 442.243 388.614 437.271L388.613 437.27L235.621 348.804Z" stroke="url(#paint1_radial_460_1004)" stroke-width="20"/>
<path d="M235.621 348.804L235.621 348.803C224.104 342.145 217 329.828 217 316.496V145.033C217 131.701 224.104 119.384 235.621 112.726L235.621 112.725L383.889 26.9936C383.89 26.9935 383.89 26.9933 383.89 26.9932C395.406 20.3356 409.594 20.3356 421.11 26.9932C421.11 26.9933 421.11 26.9935 421.111 26.9936L569.379 112.725L569.379 112.726C580.896 119.384 588 131.701 588 145.033V316.496C588 329.828 580.896 342.145 569.379 348.803L569.379 348.804L416.387 437.27L416.386 437.271C407.789 442.243 397.211 442.243 388.614 437.271L388.613 437.27L235.621 348.804Z" stroke="url(#paint2_radial_460_1004)" stroke-width="20"/>
<g filter="url(#filter0_bif_460_1004)">
<path d="M207 145.033V316.496C207 333.393 216.002 349.012 230.616 357.461L383.607 445.927C395.302 452.691 409.698 452.691 421.393 445.927L574.384 357.461C588.998 349.012 598 333.393 598 316.496V145.033C598 128.136 588.998 112.516 574.384 104.068L426.116 18.3362C411.502 9.88792 393.498 9.88792 378.884 18.3362L230.616 104.068C216.002 112.516 207 128.136 207 145.033Z" fill="url(#paint3_radial_460_1004)"/>
<path d="M207 145.033V316.496C207 333.393 216.002 349.012 230.616 357.461L383.607 445.927C395.302 452.691 409.698 452.691 421.393 445.927L574.384 357.461C588.998 349.012 598 333.393 598 316.496V145.033C598 128.136 588.998 112.516 574.384 104.068L426.116 18.3362C411.502 9.88792 393.498 9.88792 378.884 18.3362L230.616 104.068C216.002 112.516 207 128.136 207 145.033Z" fill="url(#paint4_radial_460_1004)"/>
<path d="M207 145.033V316.496C207 333.393 216.002 349.012 230.616 357.461L383.607 445.927C395.302 452.691 409.698 452.691 421.393 445.927L574.384 357.461C588.998 349.012 598 333.393 598 316.496V145.033C598 128.136 588.998 112.516 574.384 104.068L426.116 18.3362C411.502 9.88792 393.498 9.88792 378.884 18.3362L230.616 104.068C216.002 112.516 207 128.136 207 145.033Z" fill="url(#paint5_radial_460_1004)"/>
</g>
<g opacity="0.3" filter="url(#filter1_bi_460_1004)">
<path d="M207 145.033V316.496C207 333.393 216.002 349.012 230.616 357.461L383.607 445.927C395.302 452.691 409.698 452.691 421.393 445.927L574.384 357.461C588.998 349.012 598 333.393 598 316.496V145.033C598 128.136 588.998 112.516 574.384 104.068L426.116 18.3362C411.502 9.88792 393.498 9.88792 378.884 18.3362L230.616 104.068C216.002 112.516 207 128.136 207 145.033Z" fill="url(#paint6_linear_460_1004)" fill-opacity="0.3"/>
</g>
<g filter="url(#filter2_bdi_460_1004)">
<path d="M273.297 183.367V278.171C273.297 295.068 282.299 310.687 296.913 319.136L383.61 369.267C395.305 376.032 409.701 376.032 421.395 369.267L508.093 319.136C522.707 310.687 531.709 295.068 531.709 278.171V183.367C531.709 166.47 522.707 150.851 508.093 142.402L426.119 95.0047C411.505 86.5564 393.501 86.5564 378.887 95.0047L296.913 142.402C282.299 150.851 273.297 166.47 273.297 183.367Z" fill="url(#paint7_linear_460_1004)" fill-opacity="0.3" shape-rendering="crispEdges"/>
</g>
<path d="M332.845 248.147V211.647H341.045V248.147H332.845ZM340.045 233.447V226.647H354.145V233.447H340.045ZM340.045 218.447V211.647H354.745V218.447H340.045ZM375.898 248.147V240.047H374.548V231.247C374.548 229.847 374.215 228.797 373.548 228.097C372.882 227.397 371.815 227.047 370.348 227.047C369.615 227.047 368.648 227.064 367.448 227.097C366.248 227.13 365.015 227.18 363.748 227.247C362.482 227.314 361.332 227.38 360.298 227.447V220.697C361.065 220.63 361.965 220.564 362.998 220.497C364.032 220.43 365.098 220.38 366.198 220.347C367.298 220.314 368.332 220.297 369.298 220.297C372.098 220.297 374.448 220.697 376.348 221.497C378.282 222.297 379.748 223.514 380.748 225.147C381.748 226.747 382.248 228.814 382.248 231.347V248.147H375.898ZM367.148 248.847C365.182 248.847 363.448 248.497 361.948 247.797C360.482 247.097 359.332 246.097 358.498 244.797C357.665 243.464 357.248 241.88 357.248 240.047C357.248 238.047 357.765 236.414 358.798 235.147C359.832 233.847 361.282 232.897 363.148 232.297C365.015 231.664 367.165 231.347 369.598 231.347H375.448V235.797H369.548C368.148 235.797 367.065 236.147 366.298 236.847C365.565 237.514 365.198 238.43 365.198 239.597C365.198 240.697 365.565 241.597 366.298 242.297C367.065 242.964 368.148 243.297 369.548 243.297C370.448 243.297 371.248 243.147 371.948 242.847C372.682 242.514 373.282 241.964 373.748 241.197C374.215 240.43 374.482 239.364 374.548 237.997L376.448 239.997C376.282 241.897 375.815 243.497 375.048 244.797C374.315 246.097 373.282 247.097 371.948 247.797C370.648 248.497 369.048 248.847 367.148 248.847ZM399.436 248.997C395.536 248.997 392.486 248.197 390.286 246.597C388.086 244.997 386.919 242.747 386.786 239.847H393.886C394.019 240.714 394.536 241.497 395.436 242.197C396.369 242.864 397.752 243.197 399.586 243.197C400.986 243.197 402.136 242.964 403.036 242.497C403.969 241.997 404.436 241.297 404.436 240.397C404.436 239.597 404.086 238.964 403.386 238.497C402.686 237.997 401.436 237.647 399.636 237.447L397.486 237.247C394.186 236.914 391.702 235.997 390.036 234.497C388.402 232.997 387.586 231.08 387.586 228.747C387.586 226.814 388.069 225.197 389.036 223.897C390.002 222.597 391.336 221.614 393.036 220.947C394.769 220.28 396.736 219.947 398.936 219.947C402.469 219.947 405.319 220.73 407.486 222.297C409.652 223.83 410.786 226.064 410.886 228.997H403.786C403.652 228.097 403.186 227.347 402.386 226.747C401.586 226.114 400.402 225.797 398.836 225.797C397.602 225.797 396.619 226.03 395.886 226.497C395.152 226.964 394.786 227.597 394.786 228.397C394.786 229.164 395.102 229.747 395.736 230.147C396.369 230.547 397.402 230.83 398.836 230.997L400.986 231.197C404.352 231.564 406.969 232.497 408.836 233.997C410.702 235.497 411.636 237.514 411.636 240.047C411.636 241.88 411.136 243.48 410.136 244.847C409.136 246.18 407.719 247.214 405.886 247.947C404.052 248.647 401.902 248.997 399.436 248.997ZM429.369 249.097C427.036 249.097 424.969 248.697 423.169 247.897C421.402 247.097 419.919 246.03 418.719 244.697C417.552 243.33 416.652 241.814 416.019 240.147C415.419 238.447 415.119 236.714 415.119 234.947V233.947C415.119 232.114 415.419 230.364 416.019 228.697C416.652 226.997 417.552 225.48 418.719 224.147C419.886 222.814 421.336 221.764 423.069 220.997C424.836 220.197 426.836 219.797 429.069 219.797C432.002 219.797 434.469 220.464 436.469 221.797C438.502 223.097 440.052 224.814 441.119 226.947C442.186 229.047 442.719 231.347 442.719 233.847V236.547H418.469V231.997H437.869L435.269 234.097C435.269 232.464 435.036 231.064 434.569 229.897C434.102 228.73 433.402 227.847 432.469 227.247C431.569 226.614 430.436 226.297 429.069 226.297C427.669 226.297 426.486 226.614 425.519 227.247C424.552 227.88 423.819 228.814 423.319 230.047C422.819 231.247 422.569 232.73 422.569 234.497C422.569 236.13 422.802 237.564 423.269 238.797C423.736 239.997 424.469 240.93 425.469 241.597C426.469 242.264 427.769 242.597 429.369 242.597C430.836 242.597 432.036 242.314 432.969 241.747C433.902 241.18 434.536 240.48 434.869 239.647H442.219C441.819 241.48 441.036 243.114 439.869 244.547C438.702 245.98 437.236 247.097 435.469 247.897C433.702 248.697 431.669 249.097 429.369 249.097ZM463.668 248.147V217.047L465.868 218.747H456.518V211.647H471.818V248.147H463.668Z" fill="white"/>
<defs>
<filter id="filter0_bif_460_1004" x="187" y="-8" width="431" height="479" filterUnits="userSpaceOnUse" color-interpolation-filters="sRGB">
<feFlood flood-opacity="0" result="BackgroundImageFix"/>
<feGaussianBlur in="BackgroundImageFix" stdDeviation="10"/>
<feComposite in2="SourceAlpha" operator="in" result="effect1_backgroundBlur_460_1004"/>
<feBlend mode="normal" in="SourceGraphic" in2="effect1_backgroundBlur_460_1004" result="shape"/>
<feColorMatrix in="SourceAlpha" type="matrix" values="0 0 0 0 0 0 0 0 0 0 0 0 0 0 0 0 0 0 127 0" result="hardAlpha"/>
<feOffset dx="4" dy="4"/>
<feGaussianBlur stdDeviation="2"/>
<feComposite in2="hardAlpha" operator="arithmetic" k2="-1" k3="1"/>
<feColorMatrix type="matrix" values="0 0 0 0 1 0 0 0 0 1 0 0 0 0 1 0 0 0 0.56 0"/>
<feBlend mode="normal" in2="shape" result="effect2_innerShadow_460_1004"/>
<feGaussianBlur stdDeviation="5" result="effect3_foregroundBlur_460_1004"/>
</filter>
<filter id="filter1_bi_460_1004" x="187" y="-8" width="431" height="479" filterUnits="userSpaceOnUse" color-interpolation-filters="sRGB">
<feFlood flood-opacity="0" result="BackgroundImageFix"/>
<feGaussianBlur in="BackgroundImageFix" stdDeviation="10"/>
<feComposite in2="SourceAlpha" operator="in" result="effect1_backgroundBlur_460_1004"/>
<feBlend mode="normal" in="SourceGraphic" in2="effect1_backgroundBlur_460_1004" result="shape"/>
<feColorMatrix in="SourceAlpha" type="matrix" values="0 0 0 0 0 0 0 0 0 0 0 0 0 0 0 0 0 0 127 0" result="hardAlpha"/>
<feOffset dx="10" dy="10"/>
<feGaussianBlur stdDeviation="10"/>
<feComposite in2="hardAlpha" operator="arithmetic" k2="-1" k3="1"/>
<feColorMatrix type="matrix" values="0 0 0 0 1 0 0 0 0 1 0 0 0 0 1 0 0 0 0.5 0"/>
<feBlend mode="normal" in2="shape" result="effect2_innerShadow_460_1004"/>
</filter>
<filter id="filter2_bdi_460_1004" x="247.297" y="62.6685" width="318.414" height="345.672" filterUnits="userSpaceOnUse" color-interpolation-filters="sRGB">
<feFlood flood-opacity="0" result="BackgroundImageFix"/>
<feGaussianBlur in="BackgroundImageFix" stdDeviation="10"/>
<feComposite in2="SourceAlpha" operator="in" result="effect1_backgroundBlur_460_1004"/>
<feColorMatrix in="SourceAlpha" type="matrix" values="0 0 0 0 0 0 0 0 0 0 0 0 0 0 0 0 0 0 127 0" result="hardAlpha"/>
<feOffset dx="4" dy="4"/>
<feGaussianBlur stdDeviation="15"/>
<feComposite in2="hardAlpha" operator="out"/>
<feColorMatrix type="matrix" values="0 0 0 0 0.2 0 0 0 0 0 0 0 0 0 0.309804 0 0 0 0.3 0"/>
<feBlend mode="normal" in2="effect1_backgroundBlur_460_1004" result="effect2_dropShadow_460_1004"/>
<feBlend mode="normal" in="SourceGraphic" in2="effect2_dropShadow_460_1004" result="shape"/>
<feColorMatrix in="SourceAlpha" type="matrix" values="0 0 0 0 0 0 0 0 0 0 0 0 0 0 0 0 0 0 127 0" result="hardAlpha"/>
<feOffset dx="10" dy="10"/>
<feGaussianBlur stdDeviation="10"/>
<feComposite in2="hardAlpha" operator="arithmetic" k2="-1" k3="1"/>
<feColorMatrix type="matrix" values="0 0 0 0 1 0 0 0 0 1 0 0 0 0 1 0 0 0 0.5 0"/>
<feBlend mode="normal" in2="shape" result="effect3_innerShadow_460_1004"/>
</filter>
<radialGradient id="paint0_radial_460_1004" cx="0" cy="0" r="1" gradientUnits="userSpaceOnUse" gradientTransform="translate(569.5 232) rotate(-70.9162) scale(321.15 287.672)">
<stop stop-color="#33004F"/>
<stop offset="1" stop-color="#33004F" stop-opacity="0.1"/>
</radialGradient>
<radialGradient id="paint1_radial_460_1004" cx="0" cy="0" r="1" gradientUnits="userSpaceOnUse" gradientTransform="translate(283 200.5) rotate(-109.939) scale(222.859 177.258)">
<stop stop-color="#7B1AD8"/>
<stop offset="1" stop-color="#7B1AD8" stop-opacity="0.1"/>
</radialGradient>
<radialGradient id="paint2_radial_460_1004" cx="0" cy="0" r="1" gradientUnits="userSpaceOnUse" gradientTransform="translate(353.5 427) rotate(80.1129) scale(288.282 196.081)">
<stop stop-color="#E50085"/>
<stop offset="0.968153" stop-color="#E50085" stop-opacity="0.1"/>
</radialGradient>
<radialGradient id="paint3_radial_460_1004" cx="0" cy="0" r="1" gradientUnits="userSpaceOnUse" gradientTransform="translate(569.5 232) rotate(-70.9162) scale(321.15 287.672)">
<stop stop-color="#33004F"/>
<stop offset="1" stop-color="#33004F" stop-opacity="0.1"/>
</radialGradient>
<radialGradient id="paint4_radial_460_1004" cx="0" cy="0" r="1" gradientUnits="userSpaceOnUse" gradientTransform="translate(283 200.5) rotate(-109.939) scale(222.859 177.258)">
<stop stop-color="#7B1AD8"/>
<stop offset="1" stop-color="#7B1AD8" stop-opacity="0.1"/>
</radialGradient>
<radialGradient id="paint5_radial_460_1004" cx="0" cy="0" r="1" gradientUnits="userSpaceOnUse" gradientTransform="translate(353.5 427) rotate(80.1129) scale(288.282 196.081)">
<stop stop-color="#E50085"/>
<stop offset="0.968153" stop-color="#E50085" stop-opacity="0.1"/>
</radialGradient>
<linearGradient id="paint6_linear_460_1004" x1="402.5" y1="12" x2="402.5" y2="451" gradientUnits="userSpaceOnUse">
<stop stop-color="white"/>
<stop offset="1" stop-color="white"/>
</linearGradient>
<linearGradient id="paint7_linear_460_1004" x1="402.503" y1="88.6685" x2="402.503" y2="374.341" gradientUnits="userSpaceOnUse">
<stop stop-color="white"/>
<stop offset="1" stop-color="white"/>
</linearGradient>
</defs>
</svg>
