<svg width="876" height="463" viewBox="0 0 876 463" fill="none" xmlns="http://www.w3.org/2000/svg">
<path d="M235.621 348.804L235.621 348.803C224.104 342.145 217 329.828 217 316.496V145.033C217 131.701 224.104 119.384 235.621 112.726L235.621 112.725L383.889 26.9936C383.89 26.9935 383.89 26.9933 383.89 26.9932C395.406 20.3356 409.594 20.3356 421.11 26.9932C421.11 26.9933 421.11 26.9935 421.111 26.9936L569.379 112.725L569.379 112.726C580.896 119.384 588 131.701 588 145.033V316.496C588 329.828 580.896 342.145 569.379 348.803L569.379 348.804L416.387 437.27L416.386 437.271C407.789 442.243 397.211 442.243 388.614 437.271L388.613 437.27L235.621 348.804Z" fill="#727DEF"/>
<path d="M235.621 348.804L235.621 348.803C224.104 342.145 217 329.828 217 316.496V145.033C217 131.701 224.104 119.384 235.621 112.726L235.621 112.725L383.889 26.9936C383.89 26.9935 383.89 26.9933 383.89 26.9932C395.406 20.3356 409.594 20.3356 421.11 26.9932C421.11 26.9933 421.11 26.9935 421.111 26.9936L569.379 112.725L569.379 112.726C580.896 119.384 588 131.701 588 145.033V316.496C588 329.828 580.896 342.145 569.379 348.803L569.379 348.804L416.387 437.27L416.386 437.271C407.789 442.243 397.211 442.243 388.614 437.271L388.613 437.27L235.621 348.804Z" stroke="url(#paint0_radial_1717_5130)" stroke-width="20"/>
<path d="M235.621 348.804L235.621 348.803C224.104 342.145 217 329.828 217 316.496V145.033C217 131.701 224.104 119.384 235.621 112.726L235.621 112.725L383.889 26.9936C383.89 26.9935 383.89 26.9933 383.89 26.9932C395.406 20.3356 409.594 20.3356 421.11 26.9932C421.11 26.9933 421.11 26.9935 421.111 26.9936L569.379 112.725L569.379 112.726C580.896 119.384 588 131.701 588 145.033V316.496C588 329.828 580.896 342.145 569.379 348.803L569.379 348.804L416.387 437.27L416.386 437.271C407.789 442.243 397.211 442.243 388.614 437.271L388.613 437.27L235.621 348.804Z" stroke="url(#paint1_radial_1717_5130)" stroke-width="20"/>
<path d="M235.621 348.804L235.621 348.803C224.104 342.145 217 329.828 217 316.496V145.033C217 131.701 224.104 119.384 235.621 112.726L235.621 112.725L383.889 26.9936C383.89 26.9935 383.89 26.9933 383.89 26.9932C395.406 20.3356 409.594 20.3356 421.11 26.9932C421.11 26.9933 421.11 26.9935 421.111 26.9936L569.379 112.725L569.379 112.726C580.896 119.384 588 131.701 588 145.033V316.496C588 329.828 580.896 342.145 569.379 348.803L569.379 348.804L416.387 437.27L416.386 437.271C407.789 442.243 397.211 442.243 388.614 437.271L388.613 437.27L235.621 348.804Z" stroke="url(#paint2_radial_1717_5130)" stroke-width="20"/>
<g filter="url(#filter0_bif_1717_5130)">
<path d="M207 145.033V316.496C207 333.393 216.002 349.012 230.616 357.461L383.607 445.927C395.302 452.691 409.698 452.691 421.393 445.927L574.384 357.461C588.998 349.012 598 333.393 598 316.496V145.033C598 128.136 588.998 112.516 574.384 104.068L426.116 18.3362C411.502 9.88792 393.498 9.88792 378.884 18.3362L230.616 104.068C216.002 112.516 207 128.136 207 145.033Z" fill="url(#paint3_radial_1717_5130)"/>
<path d="M207 145.033V316.496C207 333.393 216.002 349.012 230.616 357.461L383.607 445.927C395.302 452.691 409.698 452.691 421.393 445.927L574.384 357.461C588.998 349.012 598 333.393 598 316.496V145.033C598 128.136 588.998 112.516 574.384 104.068L426.116 18.3362C411.502 9.88792 393.498 9.88792 378.884 18.3362L230.616 104.068C216.002 112.516 207 128.136 207 145.033Z" fill="url(#paint4_radial_1717_5130)"/>
<path d="M207 145.033V316.496C207 333.393 216.002 349.012 230.616 357.461L383.607 445.927C395.302 452.691 409.698 452.691 421.393 445.927L574.384 357.461C588.998 349.012 598 333.393 598 316.496V145.033C598 128.136 588.998 112.516 574.384 104.068L426.116 18.3362C411.502 9.88792 393.498 9.88792 378.884 18.3362L230.616 104.068C216.002 112.516 207 128.136 207 145.033Z" fill="url(#paint5_radial_1717_5130)"/>
</g>
<g opacity="0.3" filter="url(#filter1_bi_1717_5130)">
<path d="M207 145.033V316.496C207 333.393 216.002 349.012 230.616 357.461L383.607 445.927C395.302 452.691 409.698 452.691 421.393 445.927L574.384 357.461C588.998 349.012 598 333.393 598 316.496V145.033C598 128.136 588.998 112.516 574.384 104.068L426.116 18.3362C411.502 9.88792 393.498 9.88792 378.884 18.3362L230.616 104.068C216.002 112.516 207 128.136 207 145.033Z" fill="url(#paint6_linear_1717_5130)" fill-opacity="0.3"/>
</g>
<g filter="url(#filter2_bdi_1717_5130)">
<path d="M273.297 183.367V278.171C273.297 295.068 282.299 310.687 296.913 319.136L383.61 369.267C395.305 376.032 409.701 376.032 421.395 369.267L508.093 319.136C522.707 310.687 531.709 295.068 531.709 278.171V183.367C531.709 166.47 522.707 150.851 508.093 142.402L426.119 95.0047C411.505 86.5564 393.501 86.5564 378.887 95.0047L296.913 142.402C282.299 150.851 273.297 166.47 273.297 183.367Z" fill="url(#paint7_linear_1717_5130)" fill-opacity="0.3" shape-rendering="crispEdges"/>
</g>
<path d="M327.743 248.147V211.647H335.943V248.147H327.743ZM334.943 233.447V226.647H349.043V233.447H334.943ZM334.943 218.447V211.647H349.643V218.447H334.943ZM370.796 248.147V240.047H369.446V231.247C369.446 229.847 369.112 228.797 368.446 228.097C367.779 227.397 366.712 227.047 365.246 227.047C364.512 227.047 363.546 227.064 362.346 227.097C361.146 227.13 359.912 227.18 358.646 227.247C357.379 227.314 356.229 227.38 355.196 227.447V220.697C355.962 220.63 356.862 220.564 357.896 220.497C358.929 220.43 359.996 220.38 361.096 220.347C362.196 220.314 363.229 220.297 364.196 220.297C366.996 220.297 369.346 220.697 371.246 221.497C373.179 222.297 374.646 223.514 375.646 225.147C376.646 226.747 377.146 228.814 377.146 231.347V248.147H370.796ZM362.046 248.847C360.079 248.847 358.346 248.497 356.846 247.797C355.379 247.097 354.229 246.097 353.396 244.797C352.562 243.464 352.146 241.88 352.146 240.047C352.146 238.047 352.662 236.414 353.696 235.147C354.729 233.847 356.179 232.897 358.046 232.297C359.912 231.664 362.062 231.347 364.496 231.347H370.346V235.797H364.446C363.046 235.797 361.962 236.147 361.196 236.847C360.462 237.514 360.096 238.43 360.096 239.597C360.096 240.697 360.462 241.597 361.196 242.297C361.962 242.964 363.046 243.297 364.446 243.297C365.346 243.297 366.146 243.147 366.846 242.847C367.579 242.514 368.179 241.964 368.646 241.197C369.112 240.43 369.379 239.364 369.446 237.997L371.346 239.997C371.179 241.897 370.712 243.497 369.946 244.797C369.212 246.097 368.179 247.097 366.846 247.797C365.546 248.497 363.946 248.847 362.046 248.847ZM394.333 248.997C390.433 248.997 387.383 248.197 385.183 246.597C382.983 244.997 381.817 242.747 381.683 239.847H388.783C388.917 240.714 389.433 241.497 390.333 242.197C391.267 242.864 392.65 243.197 394.483 243.197C395.883 243.197 397.033 242.964 397.933 242.497C398.867 241.997 399.333 241.297 399.333 240.397C399.333 239.597 398.983 238.964 398.283 238.497C397.583 237.997 396.333 237.647 394.533 237.447L392.383 237.247C389.083 236.914 386.6 235.997 384.933 234.497C383.3 232.997 382.483 231.08 382.483 228.747C382.483 226.814 382.967 225.197 383.933 223.897C384.9 222.597 386.233 221.614 387.933 220.947C389.667 220.28 391.633 219.947 393.833 219.947C397.367 219.947 400.217 220.73 402.383 222.297C404.55 223.83 405.683 226.064 405.783 228.997H398.683C398.55 228.097 398.083 227.347 397.283 226.747C396.483 226.114 395.3 225.797 393.733 225.797C392.5 225.797 391.517 226.03 390.783 226.497C390.05 226.964 389.683 227.597 389.683 228.397C389.683 229.164 390 229.747 390.633 230.147C391.267 230.547 392.3 230.83 393.733 230.997L395.883 231.197C399.25 231.564 401.867 232.497 403.733 233.997C405.6 235.497 406.533 237.514 406.533 240.047C406.533 241.88 406.033 243.48 405.033 244.847C404.033 246.18 402.617 247.214 400.783 247.947C398.95 248.647 396.8 248.997 394.333 248.997ZM424.266 249.097C421.933 249.097 419.866 248.697 418.066 247.897C416.3 247.097 414.816 246.03 413.616 244.697C412.45 243.33 411.55 241.814 410.916 240.147C410.316 238.447 410.016 236.714 410.016 234.947V233.947C410.016 232.114 410.316 230.364 410.916 228.697C411.55 226.997 412.45 225.48 413.616 224.147C414.783 222.814 416.233 221.764 417.966 220.997C419.733 220.197 421.733 219.797 423.966 219.797C426.9 219.797 429.366 220.464 431.366 221.797C433.4 223.097 434.95 224.814 436.016 226.947C437.083 229.047 437.616 231.347 437.616 233.847V236.547H413.366V231.997H432.766L430.166 234.097C430.166 232.464 429.933 231.064 429.466 229.897C429 228.73 428.3 227.847 427.366 227.247C426.466 226.614 425.333 226.297 423.966 226.297C422.566 226.297 421.383 226.614 420.416 227.247C419.45 227.88 418.716 228.814 418.216 230.047C417.716 231.247 417.466 232.73 417.466 234.497C417.466 236.13 417.7 237.564 418.166 238.797C418.633 239.997 419.366 240.93 420.366 241.597C421.366 242.264 422.666 242.597 424.266 242.597C425.733 242.597 426.933 242.314 427.866 241.747C428.8 241.18 429.433 240.48 429.766 239.647H437.116C436.716 241.48 435.933 243.114 434.766 244.547C433.6 245.98 432.133 247.097 430.366 247.897C428.6 248.697 426.566 249.097 424.266 249.097ZM452.766 248.147V240.647C452.766 239.08 453.016 237.714 453.516 236.547C454.049 235.38 454.882 234.347 456.016 233.447C457.149 232.514 458.649 231.647 460.516 230.847L466.416 228.297C467.916 227.664 469.016 226.88 469.716 225.947C470.449 225.014 470.816 223.83 470.816 222.397C470.816 220.93 470.366 219.73 469.466 218.797C468.566 217.864 467.249 217.397 465.516 217.397C463.782 217.397 462.466 217.88 461.566 218.847C460.666 219.814 460.216 221.114 460.216 222.747H452.266C452.266 220.447 452.766 218.38 453.766 216.547C454.766 214.68 456.249 213.214 458.216 212.147C460.182 211.08 462.616 210.547 465.516 210.547C468.416 210.547 470.832 211.064 472.766 212.097C474.732 213.13 476.216 214.514 477.216 216.247C478.249 217.98 478.766 219.93 478.766 222.097V222.697C478.766 225.497 477.999 227.814 476.466 229.647C474.932 231.447 472.566 233.047 469.366 234.447L463.516 236.997C462.516 237.43 461.799 237.88 461.366 238.347C460.966 238.814 460.766 239.447 460.766 240.247V242.747L458.816 241.097H478.816V248.147H452.766Z" fill="white"/>
<defs>
<filter id="filter0_bif_1717_5130" x="187" y="-8" width="431" height="479" filterUnits="userSpaceOnUse" color-interpolation-filters="sRGB">
<feFlood flood-opacity="0" result="BackgroundImageFix"/>
<feGaussianBlur in="BackgroundImageFix" stdDeviation="10"/>
<feComposite in2="SourceAlpha" operator="in" result="effect1_backgroundBlur_1717_5130"/>
<feBlend mode="normal" in="SourceGraphic" in2="effect1_backgroundBlur_1717_5130" result="shape"/>
<feColorMatrix in="SourceAlpha" type="matrix" values="0 0 0 0 0 0 0 0 0 0 0 0 0 0 0 0 0 0 127 0" result="hardAlpha"/>
<feOffset dx="4" dy="4"/>
<feGaussianBlur stdDeviation="2"/>
<feComposite in2="hardAlpha" operator="arithmetic" k2="-1" k3="1"/>
<feColorMatrix type="matrix" values="0 0 0 0 1 0 0 0 0 1 0 0 0 0 1 0 0 0 0.56 0"/>
<feBlend mode="normal" in2="shape" result="effect2_innerShadow_1717_5130"/>
<feGaussianBlur stdDeviation="5" result="effect3_foregroundBlur_1717_5130"/>
</filter>
<filter id="filter1_bi_1717_5130" x="187" y="-8" width="431" height="479" filterUnits="userSpaceOnUse" color-interpolation-filters="sRGB">
<feFlood flood-opacity="0" result="BackgroundImageFix"/>
<feGaussianBlur in="BackgroundImageFix" stdDeviation="10"/>
<feComposite in2="SourceAlpha" operator="in" result="effect1_backgroundBlur_1717_5130"/>
<feBlend mode="normal" in="SourceGraphic" in2="effect1_backgroundBlur_1717_5130" result="shape"/>
<feColorMatrix in="SourceAlpha" type="matrix" values="0 0 0 0 0 0 0 0 0 0 0 0 0 0 0 0 0 0 127 0" result="hardAlpha"/>
<feOffset dx="10" dy="10"/>
<feGaussianBlur stdDeviation="10"/>
<feComposite in2="hardAlpha" operator="arithmetic" k2="-1" k3="1"/>
<feColorMatrix type="matrix" values="0 0 0 0 1 0 0 0 0 1 0 0 0 0 1 0 0 0 0.5 0"/>
<feBlend mode="normal" in2="shape" result="effect2_innerShadow_1717_5130"/>
</filter>
<filter id="filter2_bdi_1717_5130" x="247.297" y="62.6685" width="318.414" height="345.672" filterUnits="userSpaceOnUse" color-interpolation-filters="sRGB">
<feFlood flood-opacity="0" result="BackgroundImageFix"/>
<feGaussianBlur in="BackgroundImageFix" stdDeviation="10"/>
<feComposite in2="SourceAlpha" operator="in" result="effect1_backgroundBlur_1717_5130"/>
<feColorMatrix in="SourceAlpha" type="matrix" values="0 0 0 0 0 0 0 0 0 0 0 0 0 0 0 0 0 0 127 0" result="hardAlpha"/>
<feOffset dx="4" dy="4"/>
<feGaussianBlur stdDeviation="15"/>
<feComposite in2="hardAlpha" operator="out"/>
<feColorMatrix type="matrix" values="0 0 0 0 0.2 0 0 0 0 0 0 0 0 0 0.309804 0 0 0 0.3 0"/>
<feBlend mode="normal" in2="effect1_backgroundBlur_1717_5130" result="effect2_dropShadow_1717_5130"/>
<feBlend mode="normal" in="SourceGraphic" in2="effect2_dropShadow_1717_5130" result="shape"/>
<feColorMatrix in="SourceAlpha" type="matrix" values="0 0 0 0 0 0 0 0 0 0 0 0 0 0 0 0 0 0 127 0" result="hardAlpha"/>
<feOffset dx="10" dy="10"/>
<feGaussianBlur stdDeviation="10"/>
<feComposite in2="hardAlpha" operator="arithmetic" k2="-1" k3="1"/>
<feColorMatrix type="matrix" values="0 0 0 0 1 0 0 0 0 1 0 0 0 0 1 0 0 0 0.5 0"/>
<feBlend mode="normal" in2="shape" result="effect3_innerShadow_1717_5130"/>
</filter>
<radialGradient id="paint0_radial_1717_5130" cx="0" cy="0" r="1" gradientUnits="userSpaceOnUse" gradientTransform="translate(569.5 232) rotate(-2.32636) scale(320.264 302.063)">
<stop stop-color="#33004F"/>
<stop offset="1" stop-color="#33004F" stop-opacity="0.1"/>
</radialGradient>
<radialGradient id="paint1_radial_1717_5130" cx="0" cy="0" r="1" gradientUnits="userSpaceOnUse" gradientTransform="translate(351 136.5) rotate(-131.127) scale(272.151 249.502)">
<stop stop-color="#727DEF"/>
<stop offset="1" stop-color="#727DEF" stop-opacity="0.1"/>
</radialGradient>
<radialGradient id="paint2_radial_1717_5130" cx="0" cy="0" r="1" gradientUnits="userSpaceOnUse" gradientTransform="translate(353.5 427) rotate(80.1129) scale(288.282 196.081)">
<stop stop-color="#C21AD6"/>
<stop offset="0.968153" stop-color="#C21AD6" stop-opacity="0.1"/>
</radialGradient>
<radialGradient id="paint3_radial_1717_5130" cx="0" cy="0" r="1" gradientUnits="userSpaceOnUse" gradientTransform="translate(569.5 232) rotate(-2.32636) scale(320.264 302.063)">
<stop stop-color="#33004F"/>
<stop offset="1" stop-color="#33004F" stop-opacity="0.1"/>
</radialGradient>
<radialGradient id="paint4_radial_1717_5130" cx="0" cy="0" r="1" gradientUnits="userSpaceOnUse" gradientTransform="translate(351 136.5) rotate(-131.127) scale(272.151 249.502)">
<stop stop-color="#727DEF"/>
<stop offset="1" stop-color="#727DEF" stop-opacity="0.1"/>
</radialGradient>
<radialGradient id="paint5_radial_1717_5130" cx="0" cy="0" r="1" gradientUnits="userSpaceOnUse" gradientTransform="translate(353.5 427) rotate(80.1129) scale(288.282 196.081)">
<stop stop-color="#C21AD6"/>
<stop offset="0.968153" stop-color="#C21AD6" stop-opacity="0.1"/>
</radialGradient>
<linearGradient id="paint6_linear_1717_5130" x1="402.5" y1="12" x2="402.5" y2="451" gradientUnits="userSpaceOnUse">
<stop stop-color="white"/>
<stop offset="1" stop-color="white"/>
</linearGradient>
<linearGradient id="paint7_linear_1717_5130" x1="402.503" y1="88.6685" x2="402.503" y2="374.341" gradientUnits="userSpaceOnUse">
<stop stop-color="white"/>
<stop offset="1" stop-color="white"/>
</linearGradient>
</defs>
</svg>
