<svg width="50" height="50" viewBox="24 24 26 26" fill="none" xmlns="http://www.w3.org/2000/svg">
<g filter="url(#filter0_bd_2180_6160)">
<g filter="url(#filter1_bd_2180_6160)">
<circle cx="37" cy="37" r="13" fill="#373E65"/>
</g>
<g filter="url(#filter2_bi_2180_6160)">
<path d="M31.7226 44V40.8C31.7226 40.16 31.8292 39.6 32.0426 39.12C32.2692 38.6267 32.6159 38.1933 33.0826 37.82C33.5626 37.4467 34.1826 37.1 34.9426 36.78L37.1626 35.84C37.7359 35.6 38.1492 35.3133 38.4026 34.98C38.6692 34.6467 38.8026 34.2267 38.8026 33.72C38.8026 33.2533 38.6426 32.86 38.3226 32.54C38.0159 32.2067 37.5626 32.04 36.9626 32.04C36.3492 32.04 35.8892 32.2133 35.5826 32.56C35.2759 32.8933 35.1226 33.3467 35.1226 33.92H31.5226C31.5226 32.96 31.7292 32.1067 32.1426 31.36C32.5559 30.6133 33.1626 30.0267 33.9626 29.6C34.7759 29.1733 35.7759 28.96 36.9626 28.96C38.1359 28.96 39.1226 29.1667 39.9226 29.58C40.7359 29.98 41.3492 30.5333 41.7626 31.24C42.1892 31.9333 42.4026 32.72 42.4026 33.6V33.84C42.4026 34.9733 42.0959 35.9067 41.4826 36.64C40.8692 37.3733 39.8826 38.0333 38.5226 38.62L36.3026 39.56C35.9826 39.6933 35.7426 39.84 35.5826 40C35.4359 40.16 35.3626 40.3733 35.3626 40.64V41.36L34.5026 40.8H42.3626V44H31.7226Z" fill="url(#paint0_linear_2180_6160)"/>
</g>
</g>
<defs>
<filter id="filter0_bd_2180_6160" x="0.124094" y="0.124094" width="86" height="86" filterUnits="userSpaceOnUse" color-interpolation-filters="sRGB">
<feFlood flood-opacity="0" result="BackgroundImageFix"/>
<feGaussianBlur in="BackgroundImageFix" stdDeviation="5"/>
<feComposite in2="SourceAlpha" operator="in" result="effect1_backgroundBlur_2180_6160"/>
<feColorMatrix in="SourceAlpha" type="matrix" values="0 0 0 0 0 0 0 0 0 0 0 0 0 0 0 0 0 0 127 0" result="hardAlpha"/>
<feOffset dx="6.12409" dy="6.12409"/>
<feGaussianBlur stdDeviation="15"/>
<feColorMatrix type="matrix" values="0 0 0 0 1 0 0 0 0 1 0 0 0 0 1 0 0 0 0.3 0"/>
<feBlend mode="normal" in2="effect1_backgroundBlur_2180_6160" result="effect2_dropShadow_2180_6160"/>
<feBlend mode="normal" in="SourceGraphic" in2="effect2_dropShadow_2180_6160" result="shape"/>
</filter>
<filter id="filter1_bd_2180_6160" x="0.124094" y="0.124094" width="86" height="86" filterUnits="userSpaceOnUse" color-interpolation-filters="sRGB">
<feFlood flood-opacity="0" result="BackgroundImageFix"/>
<feGaussianBlur in="BackgroundImageFix" stdDeviation="5"/>
<feComposite in2="SourceAlpha" operator="in" result="effect1_backgroundBlur_2180_6160"/>
<feColorMatrix in="SourceAlpha" type="matrix" values="0 0 0 0 0 0 0 0 0 0 0 0 0 0 0 0 0 0 127 0" result="hardAlpha"/>
<feOffset dx="6.12409" dy="6.12409"/>
<feGaussianBlur stdDeviation="15"/>
<feColorMatrix type="matrix" values="0 0 0 0 1 0 0 0 0 1 0 0 0 0 1 0 0 0 0.2 0"/>
<feBlend mode="normal" in2="effect1_backgroundBlur_2180_6160" result="effect2_dropShadow_2180_6160"/>
<feBlend mode="normal" in="SourceGraphic" in2="effect2_dropShadow_2180_6160" result="shape"/>
</filter>
<filter id="filter2_bi_2180_6160" x="21.5234" y="18.96" width="30.8789" height="35.04" filterUnits="userSpaceOnUse" color-interpolation-filters="sRGB">
<feFlood flood-opacity="0" result="BackgroundImageFix"/>
<feGaussianBlur in="BackgroundImageFix" stdDeviation="5"/>
<feComposite in2="SourceAlpha" operator="in" result="effect1_backgroundBlur_2180_6160"/>
<feBlend mode="normal" in="SourceGraphic" in2="effect1_backgroundBlur_2180_6160" result="shape"/>
<feColorMatrix in="SourceAlpha" type="matrix" values="0 0 0 0 0 0 0 0 0 0 0 0 0 0 0 0 0 0 127 0" result="hardAlpha"/>
<feOffset dx="2" dy="2"/>
<feGaussianBlur stdDeviation="2.5"/>
<feComposite in2="hardAlpha" operator="arithmetic" k2="-1" k3="1"/>
<feColorMatrix type="matrix" values="0 0 0 0 1 0 0 0 0 1 0 0 0 0 1 0 0 0 0.5 0"/>
<feBlend mode="normal" in2="shape" result="effect2_innerShadow_2180_6160"/>
</filter>
<linearGradient id="paint0_linear_2180_6160" x1="37" y1="24" x2="37" y2="50" gradientUnits="userSpaceOnUse">
<stop stop-color="white"/>
<stop offset="1" stop-color="white"/>
</linearGradient>
</defs>
</svg>
